  0
SECTION
  2
HEADER
  9
$ACADVER
  1
AC1014
  9
$ACADMAINTVER
 70
     9
  9
$DWGCODEPAGE
  3
ANSI_1252
  9
$INSBASE
 10
0.0
 20
0.0
 30
0.0
  9
$EXTMIN
 10
109.9999916666667
 20
69.99993055555555
 30
0.0
  9
$EXTMAX
 10
520.0000888888889
 20
379.999875
 30
0.0
  9
$LIMMIN
 10
0.0
 20
0.0
  9
$LIMMAX
 10
12.0
 20
9.0
  9
$ORTHOMODE
 70
     0
  9
$REGENMODE
 70
     1
  9
$FILLMODE
 70
     1
  9
$QTEXTMODE
 70
     0
  9
$MIRRTEXT
 70
     1
  9
$DRAGMODE
 70
     2
  9
$LTSCALE
 40
1.0
  9
$OSMODE
 70
    37
  9
$ATTMODE
 70
     1
  9
$TEXTSIZE
 40
0.2
  9
$TRACEWID
 40
0.05
  9
$TEXTSTYLE
  7
STANDARD
  9
$CLAYER
  8
DEFAULT
  9
$CELTYPE
  6
BYLAYER
  9
$CECOLOR
 62
   256
  9
$CELTSCALE
 40
1.0
  9
$DELOBJ
 70
     1
  9
$DISPSILH
 70
     0
  9
$DIMSCALE
 40
1.0
  9
$DIMASZ
 40
0.18
  9
$DIMEXO
 40
0.0625
  9
$DIMDLI
 40
0.38
  9
$DIMRND
 40
0.0
  9
$DIMDLE
 40
0.0
  9
$DIMEXE
 40
0.18
  9
$DIMTP
 40
0.0
  9
$DIMTM
 40
0.0
  9
$DIMTXT
 40
0.18
  9
$DIMCEN
 40
0.09
  9
$DIMTSZ
 40
0.0
  9
$DIMTOL
 70
     0
  9
$DIMLIM
 70
     0
  9
$DIMTIH
 70
     1
  9
$DIMTOH
 70
     1
  9
$DIMSE1
 70
     0
  9
$DIMSE2
 70
     0
  9
$DIMTAD
 70
     0
  9
$DIMZIN
 70
     0
  9
$DIMBLK
  1

  9
$DIMASO
 70
     1
  9
$DIMSHO
 70
     1
  9
$DIMPOST
  1

  9
$DIMAPOST
  1

  9
$DIMALT
 70
     0
  9
$DIMALTD
 70
     2
  9
$DIMALTF
 40
25.4
  9
$DIMLFAC
 40
1.0
  9
$DIMTOFL
 70
     0
  9
$DIMTVP
 40
0.0
  9
$DIMTIX
 70
     0
  9
$DIMSOXD
 70
     0
  9
$DIMSAH
 70
     0
  9
$DIMBLK1
  1

  9
$DIMBLK2
  1

  9
$DIMSTYLE
  2
STANDARD
  9
$DIMCLRD
 70
     0
  9
$DIMCLRE
 70
     0
  9
$DIMCLRT
 70
     0
  9
$DIMTFAC
 40
1.0
  9
$DIMGAP
 40
0.09
  9
$DIMJUST
 70
     0
  9
$DIMSD1
 70
     0
  9
$DIMSD2
 70
     0
  9
$DIMTOLJ
 70
     1
  9
$DIMTZIN
 70
     0
  9
$DIMALTZ
 70
     0
  9
$DIMALTTZ
 70
     0
  9
$DIMFIT
 70
     5
  9
$DIMUPT
 70
     0
  9
$DIMUNIT
 70
     2
  9
$DIMDEC
 70
     4
  9
$DIMTDEC
 70
     4
  9
$DIMALTU
 70
     2
  9
$DIMALTTD
 70
     2
  9
$DIMTXSTY
  7
STANDARD
  9
$DIMAUNIT
 70
     0
  9
$LUNITS
 70
     2
  9
$LUPREC
 70
     3
  9
$SKETCHINC
 40
0.1
  9
$FILLETRAD
 40
0.5
  9
$AUNITS
 70
     0
  9
$AUPREC
 70
     0
  9
$MENU
  1
.
  9
$ELEVATION
 40
0.0
  9
$PELEVATION
 40
0.0
  9
$THICKNESS
 40
0.0
  9
$LIMCHECK
 70
     0
  9
$CHAMFERA
 40
0.0
  9
$CHAMFERB
 40
0.0
  9
$CHAMFERC
 40
0.0
  9
$CHAMFERD
 40
0.0
  9
$SKPOLY
 70
     0
  9
$TDCREATE
 40
2460365.644477801
  9
$TDUPDATE
 40
2460365.644492326
  9
$TDINDWG
 40
0.0000000116
  9
$TDUSRTIMER
 40
0.0000000116
  9
$USRTIMER
 70
     1
  9
$ANGBASE
 50
0.0
  9
$ANGDIR
 70
     0
  9
$PDMODE
 70
     0
  9
$PDSIZE
 40
0.0
  9
$PLINEWID
 40
0.0
  9
$COORDS
 70
     1
  9
$SPLFRAME
 70
     0
  9
$SPLINETYPE
 70
     6
  9
$SPLINESEGS
 70
     8
  9
$ATTDIA
 70
     0
  9
$ATTREQ
 70
     1
  9
$HANDLING
 70
     1
  9
$HANDSEED
  5
FA
  9
$SURFTAB1
 70
     6
  9
$SURFTAB2
 70
     6
  9
$SURFTYPE
 70
     6
  9
$SURFU
 70
     6
  9
$SURFV
 70
     6
  9
$UCSNAME
  2

  9
$UCSORG
 10
0.0
 20
0.0
 30
0.0
  9
$UCSXDIR
 10
1.0
 20
0.0
 30
0.0
  9
$UCSYDIR
 10
0.0
 20
1.0
 30
0.0
  9
$PUCSNAME
  2

  9
$PUCSORG
 10
0.0
 20
0.0
 30
0.0
  9
$PUCSXDIR
 10
1.0
 20
0.0
 30
0.0
  9
$PUCSYDIR
 10
0.0
 20
1.0
 30
0.0
  9
$USERI1
 70
     0
  9
$USERI2
 70
     0
  9
$USERI3
 70
     0
  9
$USERI4
 70
     0
  9
$USERI5
 70
     0
  9
$USERR1
 40
0.0
  9
$USERR2
 40
0.0
  9
$USERR3
 40
0.0
  9
$USERR4
 40
0.0
  9
$USERR5
 40
0.0
  9
$WORLDVIEW
 70
     1
  9
$SHADEDGE
 70
     3
  9
$SHADEDIF
 70
    70
  9
$TILEMODE
 70
     1
  9
$MAXACTVP
 70
    64
  9
$PINSBASE
 10
0.0
 20
0.0
 30
0.0
  9
$PLIMCHECK
 70
     0
  9
$PEXTMIN
 10
1.000000000000000E+20
 20
1.000000000000000E+20
 30
1.000000000000000E+20
  9
$PEXTMAX
 10
-1.000000000000000E+20
 20
-1.000000000000000E+20
 30
-1.000000000000000E+20
  9
$PLIMMIN
 10
0.0
 20
0.0
  9
$PLIMMAX
 10
12.0
 20
9.0
  9
$UNITMODE
 70
     0
  9
$VISRETAIN
 70
     1
  9
$PLINEGEN
 70
     0
  9
$PSLTSCALE
 70
     1
  9
$TREEDEPTH
 70
  3020
  9
$PICKSTYLE
 70
     1
  9
$CMLSTYLE
  2
STANDARD
  9
$CMLJUST
 70
     0
  9
$CMLSCALE
 40
1.0
  9
$PROXYGRAPHICS
 70
     1
  9
$MEASUREMENT
 70
     0
  0
ENDSEC
  0
SECTION
  2
CLASSES
  0
CLASS
  1
ACDBDICTIONARYWDFLT
  2
AcDbDictionaryWithDefault
  3
ObjectDBX Classes
 90
        0
280
     0
281
     0
  0
CLASS
  1
VISUALSTYLE
  2
AcDbVisualStyle
  3
ObjectDBX Classes
 90
     4095
280
     0
281
     0
  0
CLASS
  1
MATERIAL
  2
AcDbMaterial
  3
ObjectDBX Classes
 90
     1153
280
     0
281
     0
  0
CLASS
  1
SCALE
  2
AcDbScale
  3
ObjectDBX Classes
 90
     1153
280
     0
281
     0
  0
CLASS
  1
SUN
  2
AcDbSun
  3
SCENEOE
 90
     1153
280
     0
281
     0
  0
CLASS
  1
DICTIONARYVAR
  2
AcDbDictionaryVar
  3
ObjectDBX Classes
 90
        0
280
     0
281
     0
  0
CLASS
  1
XRECORD
  2
AcDbXrecord
  3
ObjectDBX Classes
 90
        0
280
     0
281
     0
  0
CLASS
  1
LWPOLYLINE
  2
AcDbPolyline
  3
ObjectDBX Classes
 90
        0
280
     0
281
     1
  0
CLASS
  1
HATCH
  2
AcDbHatch
  3
ObjectDBX Classes
 90
        0
280
     0
281
     1
  0
CLASS
  1
ACDBPLACEHOLDER
  2
AcDbPlaceHolder
  3
ObjectDBX Classes
 90
        0
280
     0
281
     0
  0
CLASS
  1
LAYOUT
  2
AcDbLayout
  3
ObjectDBX Classes
 90
        0
280
     0
281
     0
  0
ENDSEC
  0
SECTION
  2
TABLES
  0
TABLE
  2
VPORT
  5
8
330
0
100
AcDbSymbolTable
 70
     1
  0
VPORT
  5
29
330
8
100
AcDbSymbolTableRecord
100
AcDbViewportTableRecord
  2
*ACTIVE
 70
     0
 10
0.0
 20
0.0
 11
1.0
 21
1.0
 12
315.0000402777778
 22
224.9999027777777
 13
0.0
 23
0.0
 14
0.5
 24
0.5
 15
0.5
 25
0.5
 16
0.0
 26
0.0
 36
1.0
 17
0.0
 27
0.0
 37
0.0
 40
316.1999433333333
 41
1.322581195803082
 42
50.0
 43
0.0
 44
0.0
 50
0.0
 51
0.0
 71
     0
 72
   100
 73
     1
 74
     3
 75
     0
 76
     0
 77
     0
 78
     0
  0
ENDTAB
  0
TABLE
  2
LTYPE
  5
5
330
0
100
AcDbSymbolTable
 70
     1
  0
LTYPE
  5
14
330
5
100
AcDbSymbolTableRecord
100
AcDbLinetypeTableRecord
  2
BYBLOCK
 70
     0
  3

 72
    65
 73
     0
 40
0.0
  0
LTYPE
  5
15
330
5
100
AcDbSymbolTableRecord
100
AcDbLinetypeTableRecord
  2
BYLAYER
 70
     0
  3

 72
    65
 73
     0
 40
0.0
  0
LTYPE
  5
16
330
5
100
AcDbSymbolTableRecord
100
AcDbLinetypeTableRecord
  2
CONTINUOUS
 70
     0
  3
Solid line
 72
    65
 73
     0
 40
0.0
  0
ENDTAB
  0
TABLE
  2
LAYER
  5
2
330
0
100
AcDbSymbolTable
 70
     2
  0
LAYER
  5
10
330
2
100
AcDbSymbolTableRecord
100
AcDbLayerTableRecord
  2
0
 70
     0
 62
     7
  6
CONTINUOUS
  0
LAYER
  5
6A
330
2
100
AcDbSymbolTableRecord
100
AcDbLayerTableRecord
  2
DEFAULT
 70
     0
 62
    18
  6
CONTINUOUS
  0
ENDTAB
  0
TABLE
  2
STYLE
  5
3
330
0
100
AcDbSymbolTable
 70
     1
  0
STYLE
  5
11
330
3
100
AcDbSymbolTableRecord
100
AcDbTextStyleTableRecord
  2
STANDARD
 70
     0
 40
0.0
 41
1.0
 50
0.0
 71
     0
 42
0.2
  3
txt
  4

  0
ENDTAB
  0
TABLE
  2
VIEW
  5
6
330
0
100
AcDbSymbolTable
 70
     0
  0
ENDTAB
  0
TABLE
  2
UCS
  5
7
330
0
100
AcDbSymbolTable
 70
     0
  0
ENDTAB
  0
TABLE
  2
APPID
  5
9
330
0
100
AcDbSymbolTable
 70
     1
  0
APPID
  5
12
330
9
100
AcDbSymbolTableRecord
100
AcDbRegAppTableRecord
  2
ACAD
 70
     0
  0
ENDTAB
  0
TABLE
  2
DIMSTYLE
  5
A
330
0
100
AcDbSymbolTable
 70
     1
  0
DIMSTYLE
105
27
330
A
100
AcDbSymbolTableRecord
100
AcDbDimStyleTableRecord
  2
STANDARD
 70
     0
  3

  4

  5

  6

  7

 40
1.0
 41
0.18
 42
0.0625
 43
0.38
 44
0.18
 45
0.0
 46
0.0
 47
0.0
 48
0.0
140
0.18
141
0.09
142
0.0
143
25.4
144
1.0
145
0.0
146
1.0
147
0.09
 71
     0
 72
     0
 73
     1
 74
     1
 75
     0
 76
     0
 77
     0
 78
     0
170
     0
171
     2
172
     0
173
     0
174
     0
175
     0
176
     0
177
     0
178
     0
270
     2
271
     4
272
     4
273
     2
274
     2
340
11
275
     0
280
     0
281
     0
282
     0
283
     1
284
     0
285
     0
286
     0
287
     3
288
     0
  0
ENDTAB
  0
TABLE
  2
BLOCK_RECORD
  5
1
330
0
100
AcDbSymbolTable
 70
     1
  0
BLOCK_RECORD
  5
1F
330
1
100
AcDbSymbolTableRecord
100
AcDbBlockTableRecord
  2
*MODEL_SPACE
  0
BLOCK_RECORD
  5
1B
330
1
100
AcDbSymbolTableRecord
100
AcDbBlockTableRecord
  2
*PAPER_SPACE
  0
ENDTAB
  0
ENDSEC
  0
SECTION
  2
BLOCKS
  0
BLOCK
  5
20
330
1F
100
AcDbEntity
  8
0
100
AcDbBlockBegin
  2
*MODEL_SPACE
 70
     0
 10
0.0
 20
0.0
 30
0.0
  3
*MODEL_SPACE
  1

  0
ENDBLK
  5
21
330
1F
100
AcDbEntity
  8
0
100
AcDbBlockEnd
  0
BLOCK
  5
1C
330
1B
100
AcDbEntity
 67
     1
  8
0
100
AcDbBlockBegin
  2
*PAPER_SPACE
 70
     0
 10
0.0
 20
0.0
 30
0.0
  3
*PAPER_SPACE
  1

  0
ENDBLK
  5
1D
330
1B
100
AcDbEntity
 67
     1
  8
0
100
AcDbBlockEnd
  0
ENDSEC
  0
SECTION
  2
ENTITIES
  0
POLYLINE
  5
6B
330
1F
100
AcDbEntity
  8
DEFAULT
 62
    18
100
AcDb2dPolyline
 66
     1
 10
0.0
 20
0.0
 30
0.0
 70
     1
  0
VERTEX
  5
6C
330
6B
100
AcDbEntity
  8
DEFAULT
 62
    18
100
AcDbVertex
100
AcDb2dVertex
 10
520.0000888888889
 20
69.99993055555555
 30
0.0
  0
VERTEX
  5
6D
330
6B
100
AcDbEntity
  8
DEFAULT
 62
    18
100
AcDbVertex
100
AcDb2dVertex
 10
109.9999916666667
 20
69.99993055555555
 30
0.0
  0
VERTEX
  5
6E
330
6B
100
AcDbEntity
  8
DEFAULT
 62
    18
100
AcDbVertex
100
AcDb2dVertex
 10
109.9999916666667
 20
379.999875
 30
0.0
  0
VERTEX
  5
6F
330
6B
100
AcDbEntity
  8
DEFAULT
 62
    18
100
AcDbVertex
100
AcDb2dVertex
 10
520.0000888888889
 20
379.999875
 30
0.0
  0
SEQEND
  5
70
330
6B
100
AcDbEntity
  8
DEFAULT
 62
    18
  0
SPLINE
  5
71
330
1F
100
AcDbEntity
  8
DEFAULT
 62
     1
100
AcDbSpline
210
0.0
220
0.0
230
1.0
 70
    11
 71
     3
 72
   125
 73
   121
 74
     0
 42
0.000000001
 43
0.0000000001
 40
29.75999999999999
 40
29.75999999999999
 40
29.75999999999999
 40
29.75999999999999
 40
30.75999999999999
 40
30.75999999999999
 40
30.75999999999999
 40
31.75999999999999
 40
31.75999999999999
 40
31.75999999999999
 40
40.26999999999998
 40
40.26999999999998
 40
40.26999999999998
 40
41.26999999999998
 40
41.26999999999998
 40
41.26999999999998
 40
1158.13
 40
1158.13
 40
1158.13
 40
1159.13
 40
1159.13
 40
1159.13
 40
1167.64
 40
1167.64
 40
1167.64
 40
1168.64
 40
1168.64
 40
1168.64
 40
1169.64
 40
1169.64
 40
1169.64
 40
1199.4
 40
1199.4
 40
1199.4
 40
1207.9
 40
1207.9
 40
1207.9
 40
1237.66
 40
1237.66
 40
1237.66
 40
1238.66
 40
1238.66
 40
1238.66
 40
1239.66
 40
1239.66
 40
1239.66
 40
2039.03
 40
2039.03
 40
2039.03
 40
2040.03
 40
2040.03
 40
2040.03
 40
2041.03
 40
2041.03
 40
2041.03
 40
2070.79
 40
2070.79
 40
2070.79
 40
2079.29
 40
2079.29
 40
2079.29
 40
2109.05
 40
2109.05
 40
2109.05
 40
2110.05
 40
2110.05
 40
2110.05
 40
2111.05
 40
2111.05
 40
2111.05
 40
2119.55
 40
2119.55
 40
2119.55
 40
2120.55
 40
2120.55
 40
2120.55
 40
3237.41
 40
3237.41
 40
3237.41
 40
3238.41
 40
3238.41
 40
3238.41
 40
3246.91
 40
3246.91
 40
3246.91
 40
3247.91
 40
3247.91
 40
3247.91
 40
3248.91
 40
3248.91
 40
3248.91
 40
3278.67
 40
3278.67
 40
3278.67
 40
3287.17
 40
3287.17
 40
3287.17
 40
3316.93
 40
3316.93
 40
3316.93
 40
3317.93
 40
3317.93
 40
3317.93
 40
3318.93
 40
3318.93
 40
3318.93
 40
4118.3
 40
4118.3
 40
4118.3
 40
4119.3
 40
4119.3
 40
4119.3
 40
4120.3
 40
4120.3
 40
4120.3
 40
4150.06
 40
4150.06
 40
4150.06
 40
4158.56
 40
4158.56
 40
4158.56
 40
4188.320000000001
 40
4188.320000000001
 40
4188.320000000001
 40
4188.320000000001
 10
511.5007549999999
 20
368.9986058333333
 30
0.0
 10
511.7265327777777
 20
368.9986058333333
 30
0.0
 10
512.2839216666666
 20
368.9492169444445
 30
0.0
 10
513.2505327777777
 20
368.9492169444445
 30
0.0
 10
514.2171438888888
 20
368.9492169444445
 30
0.0
 10
515.0003105555555
 20
368.9703836111111
 30
0.0
 10
515.0003105555555
 20
368.9986058333333
 30
0.0
 10
515.0003105555555
 20
369.9993187962962
 30
0.0
 10
515.0003105555555
 20
371.0000317592592
 30
0.0
 10
515.0003105555555
 20
372.0007447222222
 30
0.0
 10
515.0003105555555
 20
373.6588002777777
 30
0.0
 10
513.6562272222222
 20
374.9993558333333
 30
0.0
 10
512.0016994444444
 20
374.9993558333333
 30
0.0
 10
380.6672364814814
 20
374.9993558333333
 30
0.0
 10
249.3327735185185
 20
374.9993558333333
 30
0.0
 10
117.9983105555555
 20
374.9993558333333
 30
0.0
 10
116.3437827777778
 20
374.9993558333333
 30
0.0
 10
114.9996994444444
 20
373.6588002777777
 30
0.0
 10
114.9996994444444
 20
372.0007447222222
 30
0.0
 10
114.9996994444444
 20
371.0000317592592
 30
0.0
 10
114.9996994444444
 20
369.9993187962962
 30
0.0
 10
114.9996994444444
 20
368.9986058333333
 30
0.0
 10
114.9996994444444
 20
368.9703836111111
 30
0.0
 10
115.7828661111111
 20
368.9492169444445
 30
0.0
 10
116.7494772222222
 20
368.9492169444445
 30
0.0
 10
117.7160883333333
 20
368.9492169444445
 30
0.0
 10
118.2734772222222
 20
368.9986058333333
 30
0.0
 10
118.499255
 20
368.9986058333333
 30
0.0
 10
121.9988105555555
 20
368.9986058333332
 30
0.0
 10
125.4983661111111
 20
368.9986058333332
 30
0.0
 10
128.9979216666666
 20
368.9986058333333
 30
0.0
 10
128.9979216666666
 20
367.9990687962962
 30
0.0
 10
128.9979216666666
 20
366.9995317592591
 30
0.0
 10
128.9979216666666
 20
365.9999947222221
 30
0.0
 10
125.4983661111111
 20
365.9999947222221
 30
0.0
 10
121.9988105555555
 20
365.9999947222221
 30
0.0
 10
118.499255
 20
365.9999947222221
 30
0.0
 10
118.2734772222222
 20
365.9999947222221
 30
0.0
 10
117.7160883333333
 20
366.0493836111111
 30
0.0
 10
116.7494772222222
 20
366.0493836111111
 30
0.0
 10
115.7828661111111
 20
366.0493836111111
 30
0.0
 10
114.9996994444444
 20
366.0282169444445
 30
0.0
 10
114.9996994444444
 20
365.9999947222221
 30
0.0
 10
114.9996994444444
 20
272.0000039814814
 30
0.0
 10
114.9996994444444
 20
178.0000132407407
 30
0.0
 10
114.9996994444444
 20
84.00002250000001
 30
0.0
 10
114.9996994444444
 20
83.97180027777777
 30
0.0
 10
115.7828661111111
 20
83.95063361111113
 30
0.0
 10
116.7494772222222
 20
83.95063361111113
 30
0.0
 10
117.7160883333333
 20
83.95063361111113
 30
0.0
 10
118.2734772222222
 20
84.00002250000001
 30
0.0
 10
118.499255
 20
84.00002250000001
 30
0.0
 10
121.9988105555555
 20
84.00002250000001
 30
0.0
 10
125.4983661111111
 20
84.00002250000001
 30
0.0
 10
128.9979216666666
 20
84.00002250000001
 30
0.0
 10
128.9979216666666
 20
83.00048546296297
 30
0.0
 10
128.9979216666666
 20
82.00094842592594
 30
0.0
 10
128.9979216666666
 20
81.0014113888889
 30
0.0
 10
125.4983661111111
 20
81.0014113888889
 30
0.0
 10
121.9988105555555
 20
81.0014113888889
 30
0.0
 10
118.499255
 20
81.0014113888889
 30
0.0
 10
118.2734772222222
 20
81.0014113888889
 30
0.0
 10
117.7160883333333
 20
81.05080027777778
 30
0.0
 10
116.7494772222222
 20
81.05080027777778
 30
0.0
 10
115.7828661111111
 20
81.05080027777778
 30
0.0
 10
114.9996994444444
 20
81.02963361111114
 30
0.0
 10
114.9996994444444
 20
81.0014113888889
 30
0.0
 10
114.9996994444444
 20
80.00187435185187
 30
0.0
 10
114.9996994444444
 20
79.00233731481484
 30
0.0
 10
114.9996994444444
 20
78.0028002777778
 30
0.0
 10
114.9996994444444
 20
76.34474472222222
 30
0.0
 10
116.3437827777778
 20
75.0006613888889
 30
0.0
 10
117.9983105555555
 20
75.0006613888889
 30
0.0
 10
249.3327735185185
 20
75.0006613888889
 30
0.0
 10
380.6672364814814
 20
75.0006613888889
 30
0.0
 10
512.0016994444444
 20
75.0006613888889
 30
0.0
 10
513.6562272222222
 20
75.0006613888889
 30
0.0
 10
515.0003105555555
 20
76.34474472222222
 30
0.0
 10
515.0003105555555
 20
78.0028002777778
 30
0.0
 10
515.0003105555555
 20
79.00233731481482
 30
0.0
 10
515.0003105555555
 20
80.00187435185187
 30
0.0
 10
515.0003105555555
 20
81.0014113888889
 30
0.0
 10
515.0003105555555
 20
81.02963361111114
 30
0.0
 10
514.2171438888888
 20
81.05080027777778
 30
0.0
 10
513.2505327777777
 20
81.05080027777778
 30
0.0
 10
512.2839216666666
 20
81.05080027777778
 30
0.0
 10
511.7265327777777
 20
81.0014113888889
 30
0.0
 10
511.5007549999999
 20
81.0014113888889
 30
0.0
 10
508.0011994444444
 20
81.0014113888889
 30
0.0
 10
504.5016438888888
 20
81.0014113888889
 30
0.0
 10
501.0020883333332
 20
81.0014113888889
 30
0.0
 10
501.0020883333332
 20
82.00094842592594
 30
0.0
 10
501.0020883333332
 20
83.00048546296298
 30
0.0
 10
501.0020883333332
 20
84.00002250000001
 30
0.0
 10
504.5016438888888
 20
84.00002250000001
 30
0.0
 10
508.0011994444444
 20
84.00002250000001
 30
0.0
 10
511.5007549999999
 20
84.00002250000001
 30
0.0
 10
511.7265327777777
 20
84.00002250000001
 30
0.0
 10
512.2839216666666
 20
83.95063361111113
 30
0.0
 10
513.2505327777777
 20
83.95063361111113
 30
0.0
 10
514.2171438888888
 20
83.95063361111113
 30
0.0
 10
515.0003105555555
 20
83.97180027777777
 30
0.0
 10
515.0003105555555
 20
84.00002250000001
 30
0.0
 10
515.0003105555555
 20
178.0000132407407
 30
0.0
 10
515.0003105555555
 20
272.0000039814814
 30
0.0
 10
515.0003105555555
 20
365.9999947222221
 30
0.0
 10
515.0003105555555
 20
366.0282169444445
 30
0.0
 10
514.2171438888888
 20
366.0493836111111
 30
0.0
 10
513.2505327777777
 20
366.0493836111111
 30
0.0
 10
512.2839216666666
 20
366.0493836111111
 30
0.0
 10
511.7265327777777
 20
365.9999947222221
 30
0.0
 10
511.5007549999999
 20
365.9999947222221
 30
0.0
 10
508.0011994444444
 20
365.9999947222221
 30
0.0
 10
504.5016438888888
 20
365.9999947222221
 30
0.0
 10
501.0020883333332
 20
365.9999947222221
 30
0.0
 10
501.0020883333332
 20
366.9995317592591
 30
0.0
 10
501.0020883333332
 20
367.9990687962962
 30
0.0
 10
501.0020883333332
 20
368.9986058333333
 30
0.0
 10
504.5016438888888
 20
368.9986058333332
 30
0.0
 10
508.0011994444444
 20
368.9986058333332
 30
0.0
 10
511.5007549999999
 20
368.9986058333333
 30
0.0
  0
SPLINE
  5
72
330
1F
100
AcDbEntity
  8
DEFAULT
 62
     1
100
AcDbSpline
210
0.0
220
0.0
230
1.0
 70
    11
 71
     3
 72
    17
 73
    13
 74
     0
 42
0.000000001
 43
0.0000000001
 40
26.50999999999999
 40
26.50999999999999
 40
26.50999999999999
 40
26.50999999999999
 40
27.50999999999999
 40
27.50999999999999
 40
27.50999999999999
 40
70.96000000000004
 40
70.96000000000004
 40
70.96000000000004
 40
71.96000000000004
 40
71.96000000000004
 40
71.96000000000004
 40
98.47000000000003
 40
98.47000000000003
 40
98.47000000000003
 40
98.47000000000003
 10
494.0029772222222
 20
271.3673558333333
 30
0.0
 10
497.340255
 20
275.9852169444445
 30
0.0
 10
499.6791716666666
 20
280.9946613888889
 30
0.0
 10
501.0020883333332
 20
286.3639391666667
 30
0.0
 10
501.0020883333332
 20
281.2545410185185
 30
0.0
 10
501.0020883333332
 20
276.1451428703704
 30
0.0
 10
501.0020883333332
 20
271.0357447222222
 30
0.0
 10
499.0547549999999
 20
267.8748558333334
 30
0.0
 10
496.7228938888888
 20
264.8621336111111
 30
0.0
 10
494.0029772222222
 20
262.0152169444444
 30
0.0
 10
494.0029772222222
 20
265.1325965740741
 30
0.0
 10
494.0029772222222
 20
268.2499762037037
 30
0.0
 10
494.0029772222222
 20
271.3673558333333
 30
0.0
  0
SPLINE
  5
73
330
1F
100
AcDbEntity
  8
DEFAULT
 62
     1
100
AcDbSpline
210
0.0
220
0.0
230
1.0
 70
    11
 71
     3
 72
    23
 73
    19
 74
     0
 42
0.000000001
 43
0.0000000001
 40
17.0100000000001
 40
17.0100000000001
 40
17.0100000000001
 40
17.0100000000001
 40
18.0100000000001
 40
18.0100000000001
 40
18.0100000000001
 40
19.0100000000001
 40
19.0100000000001
 40
19.0100000000001
 40
36.02000000000021
 40
36.02000000000021
 40
36.02000000000021
 40
37.02000000000021
 40
37.02000000000021
 40
37.02000000000021
 40
38.02000000000021
 40
38.02000000000021
 40
38.02000000000021
 40
55.03000000000031
 40
55.03000000000031
 40
55.03000000000031
 40
55.03000000000031
 10
436.0027827777777
 20
335.9997725
 30
0.0
 10
436.0027827777777
 20
338.2081613888889
 30
0.0
 10
437.7913661111111
 20
340.0002725
 30
0.0
 10
440.0032827777778
 20
340.0002725
 30
0.0
 10
442.2116716666666
 20
340.0002725
 30
0.0
 10
444.000255
 20
338.2081613888889
 30
0.0
 10
444.000255
 20
335.9997725
 30
0.0
 10
444.000255
 20
333.9995225
 30
0.0
 10
444.000255
 20
331.9992725
 30
0.0
 10
444.000255
 20
329.9990225
 30
0.0
 10
444.000255
 20
327.7906336111111
 30
0.0
 10
442.2116716666666
 20
325.9985225
 30
0.0
 10
440.0032827777778
 20
325.9985225
 30
0.0
 10
437.7913661111111
 20
325.9985225
 30
0.0
 10
436.0027827777777
 20
327.7906336111111
 30
0.0
 10
436.0027827777777
 20
329.9990225
 30
0.0
 10
436.0027827777778
 20
331.9992725
 30
0.0
 10
436.0027827777778
 20
333.9995225
 30
0.0
 10
436.0027827777777
 20
335.9997725
 30
0.0
  0
SPLINE
  5
74
330
1F
100
AcDbEntity
  8
DEFAULT
 62
     1
100
AcDbSpline
210
0.0
220
0.0
230
1.0
 70
    11
 71
     3
 72
    26
 73
    22
 74
     0
 42
0.000000001
 43
0.0000000001
 40
50.33000000000004
 40
50.33000000000004
 40
50.33000000000004
 40
50.33000000000004
 40
51.33000000000004
 40
51.33000000000004
 40
51.33000000000004
 40
59.40999999999997
 40
59.40999999999997
 40
59.40999999999997
 40
79.26999999999998
 40
79.26999999999998
 40
79.26999999999998
 40
80.26999999999998
 40
80.26999999999998
 40
80.26999999999998
 40
81.26999999999998
 40
81.26999999999998
 40
81.26999999999998
 40
82.26999999999998
 40
82.26999999999998
 40
82.26999999999998
 40
132.6
 40
132.6
 40
132.6
 40
132.6
 10
417.0021716666666
 20
360.0486336111111
 30
0.0
 10
418.1275327777777
 20
362.8849669444444
 30
0.0
 10
419.5210049999999
 20
365.5413836111111
 30
0.0
 10
421.1508383333333
 20
368.0002447222222
 30
0.0
 10
422.1009864814814
 20
368.0002447222221
 30
0.0
 10
423.0511346296295
 20
368.0002447222221
 30
0.0
 10
424.0012827777777
 20
368.0002447222222
 30
0.0
 10
424.0012827777777
 20
365.6648558333333
 30
0.0
 10
424.0012827777777
 20
363.3294669444444
 30
0.0
 10
424.0012827777777
 20
360.9940780555555
 30
0.0
 10
423.3098383333332
 20
359.6394113888889
 30
0.0
 10
422.6995327777777
 20
358.2283002777777
 30
0.0
 10
422.1668383333333
 20
356.7678002777778
 30
0.0
 10
420.3747272222222
 20
351.8394947222222
 30
0.0
 10
419.4786716666666
 20
347.0064391666667
 30
0.0
 10
419.4469216666666
 20
341.9652447222222
 30
0.0
 10
418.6320049999999
 20
342.0781336111111
 30
0.0
 10
417.8170883333333
 20
342.1874947222222
 30
0.0
 10
417.0021716666666
 20
342.2933280555555
 30
0.0
 10
417.0021716666667
 20
348.2117632407408
 30
0.0
 10
417.0021716666667
 20
354.1301984259259
 30
0.0
 10
417.0021716666666
 20
360.0486336111111
 30
0.0
  0
SPLINE
  5
75
330
1F
100
AcDbEntity
  8
DEFAULT
 62
     1
100
AcDbSpline
210
0.0
220
0.0
230
1.0
 70
    11
 71
     3
 72
    20
 73
    16
 74
     0
 42
0.000000001
 43
0.0000000001
 40
19.41000000000008
 40
19.41000000000008
 40
19.41000000000008
 40
19.41000000000008
 40
20.45236067977504
 40
20.45236067977504
 40
20.45236067977504
 40
25.32831186903028
 40
25.32831186903028
 40
25.32831186903028
 40
46.25831186903023
 40
46.25831186903023
 40
46.25831186903023
 40
47.25831186903023
 40
47.25831186903023
 40
47.25831186903023
 40
66.6683118690303
 40
66.6683118690303
 40
66.6683118690303
 40
66.6683118690303
 10
417.0021716666666
 20
228.3672725
 30
0.0
 10
419.0094772222221
 20
229.5949391666667
 30
0.0
 10
420.836866111111
 20
231.0624947222222
 30
0.0
 10
422.3890883333333
 20
232.8158002777778
 30
0.0
 10
422.9264864814814
 20
233.0157076851852
 30
0.0
 10
423.4638846296295
 20
233.2156150925926
 30
0.0
 10
424.0012827777777
 20
233.4155225
 30
0.0
 10
424.0012827777777
 20
230.954309537037
 30
0.0
 10
424.0012827777777
 20
228.4930965740741
 30
0.0
 10
424.0012827777777
 20
226.0318836111111
 30
0.0
 10
421.8705049999999
 20
224.2256613888889
 30
0.0
 10
419.4998383333333
 20
222.7404669444444
 30
0.0
 10
417.0021716666666
 20
221.5198558333333
 30
0.0
 10
417.0021716666667
 20
223.8023280555555
 30
0.0
 10
417.0021716666667
 20
226.0848002777778
 30
0.0
 10
417.0021716666666
 20
228.3672725
 30
0.0
  0
SPLINE
  5
76
330
1F
100
AcDbEntity
  8
DEFAULT
 62
     1
100
AcDbSpline
210
0.0
220
0.0
230
1.0
 70
    11
 71
     3
 72
    17
 73
    13
 74
     0
 42
0.000000001
 43
0.0000000001
 40
3.930000000000064
 40
3.930000000000064
 40
3.930000000000064
 40
3.930000000000064
 40
23.76999999999998
 40
23.76999999999998
 40
23.76999999999998
 40
39.02999999999997
 40
39.02999999999997
 40
39.02999999999997
 40
40.02999999999997
 40
40.02999999999997
 40
40.02999999999997
 40
43.96000000000004
 40
43.96000000000004
 40
43.96000000000004
 40
43.96000000000004
 10
382.0030883333333
 20
368.0002447222222
 30
0.0
 10
384.3361253703703
 20
368.0002447222221
 30
0.0
 10
386.6691624074073
 20
368.0002447222221
 30
0.0
 10
389.0021994444444
 20
368.0002447222221
 30
0.0
 10
389.0021994444444
 20
366.2057817592592
 30
0.0
 10
389.0021994444444
 20
364.4113187962962
 30
0.0
 10
389.0021994444444
 20
362.6168558333333
 30
0.0
 10
386.7479494444444
 20
364.0561891666666
 30
0.0
 10
384.4090327777777
 20
365.3896891666667
 30
0.0
 10
382.0030883333333
 20
366.6138280555555
 30
0.0
 10
382.0030883333332
 20
367.0759669444444
 30
0.0
 10
382.0030883333332
 20
367.5381058333332
 30
0.0
 10
382.0030883333333
 20
368.0002447222222
 30
0.0
  0
SPLINE
  5
77
330
1F
100
AcDbEntity
  8
DEFAULT
 62
     1
100
AcDbSpline
210
0.0
220
0.0
230
1.0
 70
    11
 71
     3
 72
    17
 73
    13
 74
     0
 42
0.000000001
 43
0.0000000001
 40
18.42000000000007
 40
18.42000000000007
 40
18.42000000000007
 40
18.42000000000007
 40
19.42000000000007
 40
19.42000000000007
 40
19.42000000000007
 40
39.0200000000001
 40
39.0200000000001
 40
39.0200000000001
 40
40.0200000000001
 40
40.0200000000001
 40
40.0200000000001
 40
58.44000000000017
 40
58.44000000000017
 40
58.44000000000017
 40
58.44000000000017
 10
368.0013383333333
 20
353.2506058333333
 30
0.0
 10
370.4002272222222
 20
352.2945780555555
 30
0.0
 10
372.7391438888889
 20
351.2080225
 30
0.0
 10
375.0039772222222
 20
349.9874113888889
 30
0.0
 10
375.0039772222222
 20
347.6825965740741
 30
0.0
 10
375.0039772222222
 20
345.3777817592592
 30
0.0
 10
375.0039772222222
 20
343.0729669444444
 30
0.0
 10
372.7603105555555
 20
344.4523280555555
 30
0.0
 10
370.4213938888888
 20
345.6799947222222
 30
0.0
 10
368.0013383333333
 20
346.7524391666666
 30
0.0
 10
368.0013383333333
 20
348.9184947222222
 30
0.0
 10
368.0013383333333
 20
351.0845502777777
 30
0.0
 10
368.0013383333333
 20
353.2506058333333
 30
0.0
  0
SPLINE
  5
78
330
1F
100
AcDbEntity
  8
DEFAULT
 62
     1
100
AcDbSpline
210
0.0
220
0.0
230
1.0
 70
    11
 71
     3
 72
    17
 73
    13
 74
     0
 42
0.000000001
 43
0.0000000001
 40
1.0
 40
1.0
 40
1.0
 40
1.0
 40
2.0
 40
2.0
 40
2.0
 40
3.0
 40
3.0
 40
3.0
 40
4.0
 40
4.0
 40
4.0
 40
5.0
 40
5.0
 40
5.0
 40
5.0
 10
263.1169772222222
 20
224.5078836111111
 30
0.0
 10
261.0708661111111
 20
227.7428558333334
 30
0.0
 10
260.0019494444444
 20
230.8966891666666
 30
0.0
 10
261.4659772222222
 20
231.4752447222222
 30
0.0
 10
263.4521161111111
 20
232.2619391666667
 30
0.0
 10
265.2336438888889
 20
232.6464669444445
 30
0.0
 10
266.835255
 20
232.7134947222222
 30
0.0
 10
264.5598383333333
 20
231.0095780555556
 30
0.0
 10
263.0852272222222
 20
228.2931891666667
 30
0.0
 10
263.0852272222222
 20
225.2310780555555
 30
0.0
 10
263.0852272222222
 20
224.9876613888889
 30
0.0
 10
263.0958105555555
 20
224.7477725
 30
0.0
 10
263.1169772222222
 20
224.5078836111111
 30
0.0
  0
SPLINE
  5
79
330
1F
100
AcDbEntity
  8
DEFAULT
 62
     1
100
AcDbSpline
210
0.0
220
0.0
230
1.0
 70
    11
 71
     3
 72
    17
 73
    13
 74
     0
 42
0.000000001
 43
0.0000000001
 40
19.60000000000002
 40
19.60000000000002
 40
19.60000000000002
 40
19.60000000000002
 40
20.60000000000002
 40
20.60000000000002
 40
20.60000000000002
 40
39.0200000000001
 40
39.0200000000001
 40
39.0200000000001
 40
40.0200000000001
 40
40.0200000000001
 40
40.0200000000001
 40
59.62000000000012
 40
59.62000000000012
 40
59.62000000000012
 40
59.62000000000012
 10
254.9960327777777
 20
349.9874113888889
 30
0.0
 10
257.2608661111111
 20
351.2080225
 30
0.0
 10
259.5997827777778
 20
352.2945780555555
 30
0.0
 10
261.9986716666666
 20
353.2506058333333
 30
0.0
 10
261.9986716666666
 20
351.0845502777777
 30
0.0
 10
261.9986716666666
 20
348.9184947222222
 30
0.0
 10
261.9986716666666
 20
346.7524391666666
 30
0.0
 10
259.5786161111111
 20
345.6799947222222
 30
0.0
 10
257.2396994444444
 20
344.4523280555555
 30
0.0
 10
254.9960327777777
 20
343.0729669444444
 30
0.0
 10
254.9960327777777
 20
345.3777817592593
 30
0.0
 10
254.9960327777777
 20
347.6825965740741
 30
0.0
 10
254.9960327777777
 20
349.9874113888889
 30
0.0
  0
SPLINE
  5
7A
330
1F
100
AcDbEntity
  8
DEFAULT
 62
     1
100
AcDbSpline
210
0.0
220
0.0
230
1.0
 70
    11
 71
     3
 72
    17
 73
    13
 74
     0
 42
0.000000001
 43
0.0000000001
 40
15.25999999999999
 40
15.25999999999999
 40
15.25999999999999
 40
15.25999999999999
 40
35.10000000000002
 40
35.10000000000002
 40
35.10000000000002
 40
39.03000000000009
 40
39.03000000000009
 40
39.03000000000009
 40
40.03000000000009
 40
40.03000000000009
 40
40.03000000000009
 40
55.29000000000008
 40
55.29000000000008
 40
55.29000000000008
 40
55.29000000000008
 10
240.9978105555555
 20
368.0002447222222
 30
0.0
 10
243.3308475925926
 20
368.0002447222221
 30
0.0
 10
245.6638846296296
 20
368.0002447222221
 30
0.0
 10
247.9969216666666
 20
368.0002447222221
 30
0.0
 10
247.9969216666666
 20
367.5381058333332
 30
0.0
 10
247.9969216666666
 20
367.0759669444444
 30
0.0
 10
247.9969216666666
 20
366.6138280555555
 30
0.0
 10
245.5909772222222
 20
365.3896891666667
 30
0.0
 10
243.2520605555555
 20
364.0561891666666
 30
0.0
 10
240.9978105555555
 20
362.6168558333333
 30
0.0
 10
240.9978105555555
 20
364.4113187962963
 30
0.0
 10
240.9978105555555
 20
366.2057817592592
 30
0.0
 10
240.9978105555555
 20
368.0002447222222
 30
0.0
  0
SPLINE
  5
7B
330
1F
100
AcDbEntity
  8
DEFAULT
 62
     1
100
AcDbSpline
210
0.0
220
0.0
230
1.0
 70
    11
 71
     3
 72
    17
 73
    13
 74
     0
 42
0.000000001
 43
0.0000000001
 40
17.6099999999999
 40
17.6099999999999
 40
17.6099999999999
 40
17.6099999999999
 40
37.45999999999992
 40
37.45999999999992
 40
37.45999999999992
 40
53.74999999999989
 40
53.74999999999989
 40
53.74999999999989
 40
54.74999999999989
 40
54.74999999999989
 40
54.74999999999989
 40
72.35999999999979
 40
72.35999999999979
 40
72.35999999999979
 40
72.35999999999979
 10
226.9960605555555
 20
368.0002447222222
 30
0.0
 10
229.3302735185185
 20
368.0002447222221
 30
0.0
 10
231.6644864814815
 20
368.0002447222221
 30
0.0
 10
233.9986994444444
 20
368.0002447222221
 30
0.0
 10
233.9986994444444
 20
366.0846613888889
 30
0.0
 10
233.9986994444444
 20
364.1690780555555
 30
0.0
 10
233.9986994444444
 20
362.2534947222222
 30
0.0
 10
231.6315605555555
 20
362.1194391666666
 30
0.0
 10
229.2961716666666
 20
361.9642169444444
 30
0.0
 10
226.9960605555555
 20
361.7878280555556
 30
0.0
 10
226.9960605555555
 20
363.8586336111111
 30
0.0
 10
226.9960605555555
 20
365.9294391666667
 30
0.0
 10
226.9960605555555
 20
368.0002447222222
 30
0.0
  0
SPLINE
  5
7C
330
1F
100
AcDbEntity
  8
DEFAULT
 62
     1
100
AcDbSpline
210
0.0
220
0.0
230
1.0
 70
    11
 71
     3
 72
    17
 73
    13
 74
     0
 42
0.000000001
 43
0.0000000001
 40
17.07000000000005
 40
17.07000000000005
 40
17.07000000000005
 40
17.07000000000005
 40
18.07000000000005
 40
18.07000000000005
 40
18.07000000000005
 40
35.12
 40
35.12
 40
35.12
 40
36.12
 40
36.12
 40
36.12
 40
53.19000000000005
 40
53.19000000000005
 40
53.19000000000005
 40
53.19000000000005
 10
226.9960605555555
 20
343.7361891666666
 30
0.0
 10
229.3843661111111
 20
343.9302169444444
 30
0.0
 10
231.7268105555555
 20
344.0889669444445
 30
0.0
 10
233.9986994444444
 20
344.2265502777777
 30
0.0
 10
233.9986994444444
 20
342.2215965740741
 30
0.0
 10
233.9986994444444
 20
340.2166428703703
 30
0.0
 10
233.9986994444444
 20
338.2116891666666
 30
0.0
 10
231.7373938888888
 20
338.0741058333333
 30
0.0
 10
229.3914216666666
 20
337.9083002777778
 30
0.0
 10
226.9960605555555
 20
337.7142725
 30
0.0
 10
226.9960605555555
 20
339.7215780555555
 30
0.0
 10
226.9960605555555
 20
341.7288836111111
 30
0.0
 10
226.9960605555555
 20
343.7361891666666
 30
0.0
  0
SPLINE
  5
7D
330
1F
100
AcDbEntity
  8
DEFAULT
 62
     1
100
AcDbSpline
210
0.0
220
0.0
230
1.0
 70
    11
 71
     3
 72
    26
 73
    22
 74
     0
 42
0.000000001
 43
0.0000000001
 40
19.86000000000001
 40
19.86000000000001
 40
19.86000000000001
 40
19.86000000000001
 40
27.93999999999994
 40
27.93999999999994
 40
27.93999999999994
 40
28.93999999999994
 40
28.93999999999994
 40
28.93999999999994
 40
79.26999999999998
 40
79.26999999999998
 40
79.26999999999998
 40
80.26999999999998
 40
80.26999999999998
 40
80.26999999999998
 40
81.26999999999998
 40
81.26999999999998
 40
81.26999999999998
 40
82.26999999999998
 40
82.26999999999998
 40
82.26999999999998
 40
102.13
 40
102.13
 40
102.13
 40
102.13
 10
205.9987272222222
 20
368.0002447222222
 30
0.0
 10
206.9488753703704
 20
368.0002447222221
 30
0.0
 10
207.8990235185185
 20
368.0002447222221
 30
0.0
 10
208.8491716666666
 20
368.0002447222222
 30
0.0
 10
210.479005
 20
365.5413836111111
 30
0.0
 10
211.8724772222222
 20
362.8849669444444
 30
0.0
 10
212.9978383333333
 20
360.0486336111111
 30
0.0
 10
212.9978383333333
 20
354.1301984259259
 30
0.0
 10
212.9978383333333
 20
348.2117632407407
 30
0.0
 10
212.9978383333333
 20
342.2933280555555
 30
0.0
 10
212.1829216666666
 20
342.1874947222222
 30
0.0
 10
211.368005
 20
342.0781336111111
 30
0.0
 10
210.5530883333333
 20
341.9652447222222
 30
0.0
 10
210.5213383333333
 20
347.0064391666667
 30
0.0
 10
209.6252827777778
 20
351.8394947222222
 30
0.0
 10
207.8331716666666
 20
356.7678002777778
 30
0.0
 10
207.3004772222222
 20
358.2283002777777
 30
0.0
 10
206.6901716666666
 20
359.6394113888889
 30
0.0
 10
205.9987272222222
 20
360.9940780555555
 30
0.0
 10
205.9987272222222
 20
363.3294669444444
 30
0.0
 10
205.9987272222222
 20
365.6648558333333
 30
0.0
 10
205.9987272222222
 20
368.0002447222222
 30
0.0
  0
SPLINE
  5
7E
330
1F
100
AcDbEntity
  8
DEFAULT
 62
     1
100
AcDbSpline
210
0.0
220
0.0
230
1.0
 70
    11
 71
     3
 72
    20
 73
    16
 74
     0
 42
0.000000001
 43
0.0000000001
 40
20.92999999999995
 40
20.92999999999995
 40
20.92999999999995
 40
20.92999999999995
 40
21.97236067977491
 40
21.97236067977491
 40
21.97236067977491
 40
22.97236067977491
 40
22.97236067977491
 40
22.97236067977491
 40
42.38236067977499
 40
42.38236067977499
 40
42.38236067977499
 40
43.38236067977499
 40
43.38236067977499
 40
43.38236067977499
 40
64.31236067977494
 40
64.31236067977494
 40
64.31236067977494
 40
64.31236067977494
 10
205.9987272222222
 20
233.4155225
 30
0.0
 10
206.5067272222222
 20
233.1791613888889
 30
0.0
 10
207.0464772222222
 20
232.9780780555555
 30
0.0
 10
207.6109216666666
 20
232.8122725
 30
0.0
 10
209.1631438888888
 20
231.0624947222222
 30
0.0
 10
210.9905327777778
 20
229.5949391666667
 30
0.0
 10
212.9978383333333
 20
228.3672725
 30
0.0
 10
212.9978383333333
 20
226.0848002777778
 30
0.0
 10
212.9978383333333
 20
223.8023280555555
 30
0.0
 10
212.9978383333333
 20
221.5198558333333
 30
0.0
 10
210.5001716666667
 20
222.7404669444444
 30
0.0
 10
208.129505
 20
224.2256613888889
 30
0.0
 10
205.9987272222222
 20
226.0318836111111
 30
0.0
 10
205.9987272222222
 20
228.4930965740741
 30
0.0
 10
205.9987272222222
 20
230.954309537037
 30
0.0
 10
205.9987272222222
 20
233.4155225
 30
0.0
  0
SPLINE
  5
7F
330
1F
100
AcDbEntity
  8
DEFAULT
 62
     1
100
AcDbSpline
210
0.0
220
0.0
230
1.0
 70
    11
 71
     3
 72
    23
 73
    19
 74
     0
 42
0.000000001
 43
0.0000000001
 40
17.0100000000001
 40
17.0100000000001
 40
17.0100000000001
 40
17.0100000000001
 40
18.0100000000001
 40
18.0100000000001
 40
18.0100000000001
 40
19.0100000000001
 40
19.0100000000001
 40
19.0100000000001
 40
36.02000000000021
 40
36.02000000000021
 40
36.02000000000021
 40
37.02000000000021
 40
37.02000000000021
 40
37.02000000000021
 40
38.02000000000021
 40
38.02000000000021
 40
38.02000000000021
 40
55.03000000000031
 40
55.03000000000031
 40
55.03000000000031
 40
55.03000000000031
 10
185.999755
 20
335.9997725
 30
0.0
 10
185.999755
 20
338.2081613888889
 30
0.0
 10
187.7883383333333
 20
340.0002725
 30
0.0
 10
190.000255
 20
340.0002725
 30
0.0
 10
192.2086438888889
 20
340.0002725
 30
0.0
 10
193.9972272222222
 20
338.2081613888889
 30
0.0
 10
193.9972272222222
 20
335.9997725
 30
0.0
 10
193.9972272222222
 20
333.9995225
 30
0.0
 10
193.9972272222222
 20
331.9992725
 30
0.0
 10
193.9972272222222
 20
329.9990225
 30
0.0
 10
193.9972272222222
 20
327.7906336111111
 30
0.0
 10
192.2086438888889
 20
325.9985225
 30
0.0
 10
190.000255
 20
325.9985225
 30
0.0
 10
187.7883383333333
 20
325.9985225
 30
0.0
 10
185.999755
 20
327.7906336111111
 30
0.0
 10
185.999755
 20
329.9990225
 30
0.0
 10
185.999755
 20
331.9992725
 30
0.0
 10
185.999755
 20
333.9995225
 30
0.0
 10
185.999755
 20
335.9997725
 30
0.0
  0
SPLINE
  5
80
330
1F
100
AcDbEntity
  8
DEFAULT
 62
     1
100
AcDbSpline
210
0.0
220
0.0
230
1.0
 70
    11
 71
     3
 72
    20
 73
    16
 74
     0
 42
0.000000001
 43
0.0000000001
 40
43.43000000000006
 40
43.43000000000006
 40
43.43000000000006
 40
43.43000000000006
 40
44.43000000000006
 40
44.43000000000006
 40
44.43000000000006
 40
81.09000000000003
 40
81.09000000000003
 40
81.09000000000003
 40
82.09000000000003
 40
82.09000000000003
 40
82.09000000000003
 40
83.09000000000003
 40
83.09000000000003
 40
83.09000000000003
 40
126.5200000000001
 40
126.5200000000001
 40
126.5200000000001
 40
126.5200000000001
 10
142.9961438888889
 20
329.5157169444444
 30
0.0
 10
145.2680327777778
 20
334.3417169444444
 30
0.0
 10
147.6880883333333
 20
339.0654113888889
 30
0.0
 10
149.9987827777778
 20
343.1788002777777
 30
0.0
 10
149.9987827777778
 20
338.8678558333333
 30
0.0
 10
149.9987827777778
 20
334.5569113888889
 30
0.0
 10
149.9987827777778
 20
330.2459669444444
 30
0.0
 10
148.3936438888888
 20
326.9686613888889
 30
0.0
 10
146.8308383333333
 20
323.5855225
 30
0.0
 10
145.3950327777777
 20
320.2694113888889
 30
0.0
 10
144.4813383333333
 20
318.1598002777778
 30
0.0
 10
143.6840605555556
 20
316.1383836111111
 30
0.0
 10
142.9961438888889
 20
314.1945780555556
 30
0.0
 10
142.9961438888889
 20
319.3016243518518
 30
0.0
 10
142.9961438888889
 20
324.4086706481481
 30
0.0
 10
142.9961438888889
 20
329.5157169444444
 30
0.0
  0
SPLINE
  5
81
330
1F
100
AcDbEntity
  8
DEFAULT
 62
     1
100
AcDbSpline
210
0.0
220
0.0
230
1.0
 70
    11
 71
     3
 72
    17
 73
    13
 74
     0
 42
0.000000001
 43
0.0000000001
 40
19.42999999999995
 40
19.42999999999995
 40
19.42999999999995
 40
19.42999999999995
 40
20.42999999999995
 40
20.42999999999995
 40
20.42999999999995
 40
38.80999999999995
 40
38.80999999999995
 40
38.80999999999995
 40
39.80999999999995
 40
39.80999999999995
 40
39.80999999999995
 40
59.2399999999999
 40
59.2399999999999
 40
59.2399999999999
 40
59.2399999999999
 10
142.9961438888889
 20
248.9483280555555
 30
0.0
 10
145.1904216666667
 20
247.6606891666667
 30
0.0
 10
147.5222827777777
 20
246.4929947222222
 30
0.0
 10
149.9987827777778
 20
245.4346613888889
 30
0.0
 10
149.9987827777778
 20
243.273309537037
 30
0.0
 10
149.9987827777778
 20
241.1119576851852
 30
0.0
 10
149.9987827777778
 20
238.9506058333333
 30
0.0
 10
147.550505
 20
239.8960502777778
 30
0.0
 10
145.2151161111111
 20
240.9402725
 30
0.0
 10
142.9961438888889
 20
242.0938558333333
 30
0.0
 10
142.9961438888889
 20
244.3786799074074
 30
0.0
 10
142.9961438888889
 20
246.6635039814815
 30
0.0
 10
142.9961438888889
 20
248.9483280555555
 30
0.0
  0
SPLINE
  5
82
330
1F
100
AcDbEntity
  8
DEFAULT
 62
     1
100
AcDbSpline
210
0.0
220
0.0
230
1.0
 70
    11
 71
     3
 72
    17
 73
    13
 74
     0
 42
0.000000001
 43
0.0000000001
 40
18.40999999999997
 40
18.40999999999997
 40
18.40999999999997
 40
18.40999999999997
 40
19.40999999999997
 40
19.40999999999997
 40
19.40999999999997
 40
37.27999999999986
 40
37.27999999999986
 40
37.27999999999986
 40
38.27999999999986
 40
38.27999999999986
 40
38.27999999999986
 40
56.68999999999983
 40
56.68999999999983
 40
56.68999999999983
 40
56.68999999999983
 10
142.9961438888889
 20
228.8223558333333
 30
0.0
 10
145.246866111111
 20
227.8628002777778
 30
0.0
 10
147.5787272222222
 20
226.9914391666667
 30
0.0
 10
149.9987827777778
 20
226.1976891666666
 30
0.0
 10
149.9987827777778
 20
224.096309537037
 30
0.0
 10
149.9987827777778
 20
221.9949299074074
 30
0.0
 10
149.9987827777778
 20
219.8935502777778
 30
0.0
 10
147.5893105555555
 20
220.6343836111111
 30
0.0
 10
145.2574494444445
 20
221.4457725
 30
0.0
 10
142.9961438888889
 20
222.3277169444445
 30
0.0
 10
142.9961438888889
 20
224.4925965740741
 30
0.0
 10
142.9961438888889
 20
226.6574762037037
 30
0.0
 10
142.9961438888889
 20
228.8223558333333
 30
0.0
  0
SPLINE
  5
83
330
1F
100
AcDbEntity
  8
DEFAULT
 62
     1
100
AcDbSpline
210
0.0
220
0.0
230
1.0
 70
    11
 71
     3
 72
    23
 73
    19
 74
     0
 42
0.000000001
 43
0.0000000001
 40
66.41999999999996
 40
66.41999999999996
 40
66.41999999999996
 40
66.41999999999996
 40
67.41999999999996
 40
67.41999999999996
 40
67.41999999999996
 40
68.41999999999996
 40
68.41999999999996
 40
68.41999999999996
 40
108.73
 40
108.73
 40
108.73
 40
109.73
 40
109.73
 40
109.73
 40
110.73
 40
110.73
 40
110.73
 40
177.15
 40
177.15
 40
177.15
 40
177.15
 10
121.9988105555555
 20
326.5029947222222
 30
0.0
 10
122.4327272222222
 20
327.5895502777778
 30
0.0
 10
122.8913383333333
 20
328.6902169444444
 30
0.0
 10
123.371116111111
 20
329.8014669444444
 30
0.0
 10
125.1103105555555
 20
333.8266613888889
 30
0.0
 10
127.0294216666667
 20
337.9506336111111
 30
0.0
 10
128.9979216666666
 20
341.9158558333334
 30
0.0
 10
128.9979216666666
 20
337.1756984259259
 30
0.0
 10
128.9979216666666
 20
332.4355410185185
 30
0.0
 10
128.9979216666666
 20
327.6953836111111
 30
0.0
 10
128.9555883333333
 20
327.6036613888889
 30
0.0
 10
128.9167827777777
 20
327.5119391666667
 30
0.0
 10
128.8779772222222
 20
327.4202169444444
 30
0.0
 10
125.0150605555555
 20
318.4914113888889
 30
0.0
 10
122.7608105555555
 20
310.5680225
 30
0.0
 10
121.9988105555555
 20
303.0714947222222
 30
0.0
 10
121.9988105555555
 20
310.8819947222223
 30
0.0
 10
121.9988105555555
 20
318.6924947222222
 30
0.0
 10
121.9988105555555
 20
326.5029947222222
 30
0.0
  0
SPLINE
  5
84
330
1F
100
AcDbEntity
  8
DEFAULT
 62
     1
100
AcDbSpline
210
0.0
220
0.0
230
1.0
 70
    11
 71
     3
 72
    17
 73
    13
 74
     0
 42
0.000000001
 43
0.0000000001
 40
22.33999999999992
 40
22.33999999999992
 40
22.33999999999992
 40
22.33999999999992
 40
23.33999999999992
 40
23.33999999999992
 40
23.33999999999992
 40
43.77999999999986
 40
43.77999999999986
 40
43.77999999999986
 40
44.77999999999986
 40
44.77999999999986
 40
44.77999999999986
 40
67.11999999999978
 40
67.11999999999978
 40
67.11999999999978
 40
67.11999999999978
 10
121.9988105555555
 20
242.1467725
 30
0.0
 10
124.2001438888889
 20
240.1324113888889
 30
0.0
 10
126.532005
 20
238.2591613888889
 30
0.0
 10
128.9979216666666
 20
236.5340780555555
 30
0.0
 10
128.9979216666666
 20
234.130485462963
 30
0.0
 10
128.9979216666666
 20
231.7268928703704
 30
0.0
 10
128.9979216666666
 20
229.3233002777778
 30
0.0
 10
126.5531716666666
 20
230.8508280555556
 30
0.0
 10
124.2213105555555
 20
232.4983002777778
 30
0.0
 10
121.9988105555555
 20
234.2657169444444
 30
0.0
 10
121.9988105555555
 20
236.8927354629629
 30
0.0
 10
121.9988105555555
 20
239.5197539814815
 30
0.0
 10
121.9988105555555
 20
242.1467725
 30
0.0
  0
SPLINE
  5
85
330
1F
100
AcDbEntity
  8
DEFAULT
 62
     1
100
AcDbSpline
210
0.0
220
0.0
230
1.0
 70
    11
 71
     3
 72
    17
 73
    13
 74
     0
 42
0.000000001
 43
0.0000000001
 40
18.71999999999991
 40
18.71999999999991
 40
18.71999999999991
 40
18.71999999999991
 40
19.71999999999991
 40
19.71999999999991
 40
19.71999999999991
 40
37.9799999999999
 40
37.9799999999999
 40
37.9799999999999
 40
38.9799999999999
 40
38.9799999999999
 40
38.9799999999999
 40
57.69999999999982
 40
57.69999999999982
 40
57.69999999999982
 40
57.69999999999982
 10
121.9988105555555
 20
192.1581613888889
 30
0.0
 10
124.277755
 20
191.0857169444444
 30
0.0
 10
126.6096161111111
 20
190.0732447222223
 30
0.0
 10
128.9979216666666
 20
189.1313280555555
 30
0.0
 10
128.9979216666666
 20
186.9840873148148
 30
0.0
 10
128.9979216666666
 20
184.8368465740741
 30
0.0
 10
128.9979216666666
 20
182.6896058333333
 30
0.0
 10
126.6131438888888
 20
183.5891891666666
 30
0.0
 10
124.2812827777778
 20
184.5416891666667
 30
0.0
 10
121.9988105555555
 20
185.5541613888889
 30
0.0
 10
121.9988105555555
 20
187.7554947222222
 30
0.0
 10
121.9988105555555
 20
189.9568280555555
 30
0.0
 10
121.9988105555555
 20
192.1581613888889
 30
0.0
  0
SPLINE
  5
86
330
1F
100
AcDbEntity
  8
DEFAULT
 62
     1
100
AcDbSpline
210
0.0
220
0.0
230
1.0
 70
    11
 71
     3
 72
    23
 73
    19
 74
     0
 42
0.000000001
 43
0.0000000001
 40
74.94999999999993
 40
74.94999999999993
 40
74.94999999999993
 40
74.94999999999993
 40
75.94999999999993
 40
75.94999999999993
 40
75.94999999999993
 40
77.08991227732655
 40
77.08991227732655
 40
77.08991227732655
 40
78.08991227732655
 40
78.08991227732655
 40
78.08991227732655
 40
99.87991227732651
 40
99.87991227732651
 40
99.87991227732651
 40
100.8799122773265
 40
100.8799122773265
 40
100.8799122773265
 40
175.8299122773265
 40
175.8299122773265
 40
175.8299122773265
 40
175.8299122773265
 10
128.9979216666666
 20
92.41377250000002
 30
0.0
 10
127.1140883333333
 20
100.5170780555555
 30
0.0
 10
126.1157272222222
 20
107.6749391666667
 30
0.0
 10
125.4736716666666
 20
113.6368836111111
 30
0.0
 10
125.4560327777778
 20
113.7697632407407
 30
0.0
 10
125.4383938888889
 20
113.9026428703704
 30
0.0
 10
125.420755
 20
114.0355225
 30
0.0
 10
124.2706994444444
 20
114.8892447222222
 30
0.0
 10
123.1276994444444
 20
115.7570780555556
 30
0.0
 10
121.9988105555555
 20
116.6425502777778
 30
0.0
 10
121.9988105555555
 20
119.2048928703704
 30
0.0
 10
121.9988105555555
 20
121.767235462963
 30
0.0
 10
121.9988105555555
 20
124.3295780555555
 30
0.0
 10
124.277755
 20
122.4492725
 30
0.0
 10
126.6166716666666
 20
120.6183558333333
 30
0.0
 10
128.9979216666666
 20
118.8544669444444
 30
0.0
 10
128.9979216666666
 20
110.0409021296296
 30
0.0
 10
128.9979216666666
 20
101.2273373148148
 30
0.0
 10
128.9979216666666
 20
92.41377250000002
 30
0.0
  0
SPLINE
  5
87
330
1F
100
AcDbEntity
  8
DEFAULT
 62
     1
100
AcDbSpline
210
0.0
220
0.0
230
1.0
 70
    11
 71
     3
 72
    17
 73
    13
 74
     0
 42
0.000000001
 43
0.0000000001
 40
21.92999999999995
 40
21.92999999999995
 40
21.92999999999995
 40
21.92999999999995
 40
22.92999999999995
 40
22.92999999999995
 40
22.92999999999995
 40
46.15999999999991
 40
46.15999999999991
 40
46.15999999999991
 40
47.15999999999991
 40
47.15999999999991
 40
47.15999999999991
 40
69.08999999999986
 40
69.08999999999986
 40
69.08999999999986
 40
69.08999999999986
 10
135.9970327777778
 20
136.1546891666667
 30
0.0
 10
133.5910883333333
 20
138.0455780555556
 30
0.0
 10
131.2556994444444
 20
140.0105502777778
 30
0.0
 10
128.9979216666666
 20
142.0284391666667
 30
0.0
 10
128.9979216666666
 20
144.7601150925926
 30
0.0
 10
128.9979216666666
 20
147.4917910185185
 30
0.0
 10
128.9979216666666
 20
150.2234669444444
 30
0.0
 10
131.2380605555556
 20
148.0468280555556
 30
0.0
 10
133.5769772222222
 20
145.9336891666667
 30
0.0
 10
135.9970327777778
 20
143.8911058333333
 30
0.0
 10
135.9970327777778
 20
141.3123002777778
 30
0.0
 10
135.9970327777778
 20
138.7334947222222
 30
0.0
 10
135.9970327777778
 20
136.1546891666667
 30
0.0
  0
SPLINE
  5
88
330
1F
100
AcDbEntity
  8
DEFAULT
 62
     1
100
AcDbSpline
210
0.0
220
0.0
230
1.0
 70
    11
 71
     3
 72
    17
 73
    13
 74
     0
 42
0.000000001
 43
0.0000000001
 40
26.50999999999999
 40
26.50999999999999
 40
26.50999999999999
 40
26.50999999999999
 40
27.50999999999999
 40
27.50999999999999
 40
27.50999999999999
 40
70.96000000000004
 40
70.96000000000004
 40
70.96000000000004
 40
71.96000000000004
 40
71.96000000000004
 40
71.96000000000004
 40
98.47000000000003
 40
98.47000000000003
 40
98.47000000000003
 40
98.47000000000003
 10
135.9970327777778
 20
262.0152169444444
 30
0.0
 10
133.2771161111111
 20
264.8621336111111
 30
0.0
 10
130.9452549999999
 20
267.8748558333334
 30
0.0
 10
128.9979216666666
 20
271.0357447222222
 30
0.0
 10
128.9979216666666
 20
276.1451428703704
 30
0.0
 10
128.9979216666666
 20
281.2545410185185
 30
0.0
 10
128.9979216666666
 20
286.3639391666667
 30
0.0
 10
130.3208383333333
 20
280.9946613888889
 30
0.0
 10
132.659755
 20
275.9852169444445
 30
0.0
 10
135.9970327777778
 20
271.3673558333333
 30
0.0
 10
135.9970327777778
 20
268.2499762037037
 30
0.0
 10
135.9970327777778
 20
265.1325965740741
 30
0.0
 10
135.9970327777778
 20
262.0152169444444
 30
0.0
  0
SPLINE
  5
89
330
1F
100
AcDbEntity
  8
DEFAULT
 62
     1
100
AcDbSpline
210
0.0
220
0.0
230
1.0
 70
    11
 71
     3
 72
    23
 73
    19
 74
     0
 42
0.000000001
 43
0.0000000001
 40
1.0
 40
1.0
 40
1.0
 40
1.0
 40
2.0
 40
2.0
 40
2.0
 40
29.22000000000003
 40
29.22000000000003
 40
29.22000000000003
 40
30.22000000000003
 40
30.22000000000003
 40
30.22000000000003
 40
31.22000000000003
 40
31.22000000000003
 40
31.22000000000003
 40
55.63
 40
55.63
 40
55.63
 40
56.63
 40
56.63
 40
56.63
 40
56.63
 10
143.6417272222222
 20
178.3716058333333
 30
0.0
 10
143.4688661111111
 20
178.5726891666667
 30
0.0
 10
143.2536716666667
 20
178.8266891666667
 30
0.0
 10
142.9961438888889
 20
179.1265502777778
 30
0.0
 10
142.9961438888889
 20
182.3274206481481
 30
0.0
 10
142.9961438888889
 20
185.5282910185185
 30
0.0
 10
142.9961438888889
 20
188.7291613888889
 30
0.0
 10
145.3526994444445
 20
185.5929669444444
 30
0.0
 10
147.3035605555555
 20
183.3246058333333
 30
0.0
 10
148.1960883333333
 20
182.2768558333333
 30
0.0
 10
148.7852272222222
 20
181.5889391666667
 30
0.0
 10
149.3884772222222
 20
180.9080780555556
 30
0.0
 10
149.9987827777778
 20
180.2342725
 30
0.0
 10
149.9987827777778
 20
177.3638373148148
 30
0.0
 10
149.9987827777778
 20
174.4934021296296
 30
0.0
 10
149.9987827777778
 20
171.6229669444444
 30
0.0
 10
147.7621716666666
 20
173.7890225
 30
0.0
 10
145.6384494444444
 20
176.0432725
 30
0.0
 10
143.6417272222222
 20
178.3716058333333
 30
0.0
  0
SPLINE
  5
8A
330
1F
100
AcDbEntity
  8
DEFAULT
 62
     1
100
AcDbSpline
210
0.0
220
0.0
230
1.0
 70
    11
 71
     3
 72
    26
 73
    22
 74
     0
 42
0.000000001
 43
0.0000000001
 40
87.73000000000002
 40
87.73000000000002
 40
87.73000000000002
 40
87.73000000000002
 40
88.73000000000002
 40
88.73000000000002
 40
88.73000000000002
 40
89.73000000000002
 40
89.73000000000002
 40
89.73000000000002
 40
90.73000000000002
 40
90.73000000000002
 40
90.73000000000002
 40
91.73000000000002
 40
91.73000000000002
 40
91.73000000000002
 40
112.2500000000001
 40
112.2500000000001
 40
112.2500000000001
 40
113.2500000000001
 40
113.2500000000001
 40
113.2500000000001
 40
200.9800000000001
 40
200.9800000000001
 40
200.9800000000001
 40
200.9800000000001
 10
156.9978938888889
 20
105.1702169444444
 30
0.0
 10
156.1618105555555
 20
109.6504947222222
 30
0.0
 10
155.6361716666666
 20
113.7039113888889
 30
0.0
 10
155.2586994444444
 20
117.2458002777778
 30
0.0
 10
153.6994216666667
 20
128.8169113888889
 30
0.0
 10
153.6359216666666
 20
129.4483836111111
 30
0.0
 10
153.5230327777778
 20
130.5913836111111
 30
0.0
 10
153.5018661111111
 20
130.8101058333333
 30
0.0
 10
153.4806994444444
 20
131.0288280555556
 30
0.0
 10
153.4595327777778
 20
131.2510780555556
 30
0.0
 10
152.2953661111111
 20
131.9672169444445
 30
0.0
 10
151.1417827777778
 20
132.7009947222222
 30
0.0
 10
149.9987827777778
 20
133.4524113888889
 30
0.0
 10
149.9987827777778
 20
135.8654113888889
 30
0.0
 10
149.9987827777778
 20
138.2784113888889
 30
0.0
 10
149.9987827777778
 20
140.6914113888889
 30
0.0
 10
152.2777272222222
 20
139.1003836111111
 30
0.0
 10
154.6166438888888
 20
137.5763836111111
 30
0.0
 10
156.9978938888889
 20
136.1194113888889
 30
0.0
 10
156.9978938888889
 20
125.8030132407408
 30
0.0
 10
156.9978938888889
 20
115.4866150925926
 30
0.0
 10
156.9978938888889
 20
105.1702169444444
 30
0.0
  0
SPLINE
  5
8B
330
1F
100
AcDbEntity
  8
DEFAULT
 62
     1
100
AcDbSpline
210
0.0
220
0.0
230
1.0
 70
    11
 71
     3
 72
    17
 73
    13
 74
     0
 42
0.000000001
 43
0.0000000001
 40
20.93000000000001
 40
20.93000000000001
 40
20.93000000000001
 40
20.93000000000001
 40
21.93000000000001
 40
21.93000000000001
 40
21.93000000000001
 40
44.08999999999997
 40
44.08999999999997
 40
44.08999999999997
 40
45.08999999999997
 40
45.08999999999997
 40
45.08999999999997
 40
66.01999999999998
 40
66.01999999999998
 40
66.01999999999998
 40
66.01999999999998
 10
156.9978938888889
 20
150.4316058333334
 30
0.0
 10
154.5919494444444
 20
152.0967169444444
 30
0.0
 10
152.2565605555555
 20
153.8429669444444
 30
0.0
 10
149.9987827777778
 20
155.6562447222222
 30
0.0
 10
149.9987827777778
 20
158.2620965740741
 30
0.0
 10
149.9987827777778
 20
160.8679484259259
 30
0.0
 10
149.9987827777778
 20
163.4738002777778
 30
0.0
 10
152.2389216666666
 20
161.5088280555555
 30
0.0
 10
154.5778383333333
 20
159.6214669444444
 30
0.0
 10
156.9978938888889
 20
157.8152447222222
 30
0.0
 10
156.9978938888889
 20
155.3540317592592
 30
0.0
 10
156.9978938888889
 20
152.8928187962963
 30
0.0
 10
156.9978938888889
 20
150.4316058333334
 30
0.0
  0
SPLINE
  5
8C
330
1F
100
AcDbEntity
  8
DEFAULT
 62
     1
100
AcDbSpline
210
0.0
220
0.0
230
1.0
 70
    11
 71
     3
 72
    17
 73
    13
 74
     0
 42
0.000000001
 43
0.0000000001
 40
15.09999999999991
 40
15.09999999999991
 40
15.09999999999991
 40
15.09999999999991
 40
34.93999999999994
 40
34.93999999999994
 40
34.93999999999994
 40
37.67999999999995
 40
37.67999999999995
 40
37.67999999999995
 40
38.67999999999995
 40
38.67999999999995
 40
38.67999999999995
 40
53.77999999999986
 40
53.77999999999986
 40
53.77999999999986
 40
53.77999999999986
 10
156.9978938888889
 20
368.0002447222222
 30
0.0
 10
159.3309309259259
 20
368.0002447222221
 30
0.0
 10
161.6639679629629
 20
368.0002447222221
 30
0.0
 10
163.997005
 20
368.0002447222221
 30
0.0
 10
163.997005
 20
367.6780410185185
 30
0.0
 10
163.997005
 20
367.3558373148148
 30
0.0
 10
163.997005
 20
367.0336336111111
 30
0.0
 10
161.3652827777777
 20
365.9364947222222
 30
0.0
 10
159.0475327777777
 20
364.4230780555555
 30
0.0
 10
156.9978938888889
 20
362.6733002777778
 30
0.0
 10
156.9978938888889
 20
364.4489484259259
 30
0.0
 10
156.9978938888889
 20
366.224596574074
 30
0.0
 10
156.9978938888889
 20
368.0002447222222
 30
0.0
  0
SPLINE
  5
8D
330
1F
100
AcDbEntity
  8
DEFAULT
 62
     1
100
AcDbSpline
210
0.0
220
0.0
230
1.0
 70
    11
 71
     3
 72
    17
 73
    13
 74
     0
 42
0.000000001
 43
0.0000000001
 40
17.55000000000007
 40
17.55000000000007
 40
17.55000000000007
 40
17.55000000000007
 40
18.55000000000007
 40
18.55000000000007
 40
18.55000000000007
 40
35.79000000000008
 40
35.79000000000008
 40
35.79000000000008
 40
36.79000000000008
 40
36.79000000000008
 40
36.79000000000008
 40
54.34000000000015
 40
54.34000000000015
 40
54.34000000000015
 40
54.34000000000015
 10
163.997005
 20
259.5528280555556
 30
0.0
 10
166.1948105555555
 20
258.9319391666667
 30
0.0
 10
168.5266716666666
 20
258.3921891666667
 30
0.0
 10
170.9961161111111
 20
257.9371058333333
 30
0.0
 10
170.9961161111111
 20
255.909809537037
 30
0.0
 10
170.9961161111111
 20
253.8825132407407
 30
0.0
 10
170.9961161111111
 20
251.8552169444444
 30
0.0
 10
168.5478383333333
 20
252.2820780555556
 30
0.0
 10
166.2159772222222
 20
252.7830225
 30
0.0
 10
163.997005
 20
253.3615780555555
 30
0.0
 10
163.997005
 20
255.4253280555555
 30
0.0
 10
163.997005
 20
257.4890780555555
 30
0.0
 10
163.997005
 20
259.5528280555556
 30
0.0
  0
SPLINE
  5
8E
330
1F
100
AcDbEntity
  8
DEFAULT
 62
     1
100
AcDbSpline
210
0.0
220
0.0
230
1.0
 70
    11
 71
     3
 72
    29
 73
    25
 74
     0
 42
0.000000001
 43
0.0000000001
 40
37.44999999999993
 40
37.44999999999993
 40
37.44999999999993
 40
37.44999999999993
 40
41.74000000000001
 40
41.74000000000001
 40
41.74000000000001
 40
42.74000000000001
 40
42.74000000000001
 40
42.74000000000001
 40
156.1800000000001
 40
156.1800000000001
 40
156.1800000000001
 40
157.1800000000001
 40
157.1800000000001
 40
157.1800000000001
 40
158.1800000000001
 40
158.1800000000001
 40
158.1800000000001
 40
159.1800000000001
 40
159.1800000000001
 40
159.1800000000001
 40
160.1800000000001
 40
160.1800000000001
 40
160.1800000000001
 40
197.63
 40
197.63
 40
197.63
 40
197.63
 10
177.998755
 20
81.99977250000002
 30
0.0
 10
177.4942827777777
 20
81.99977250000002
 30
0.0
 10
176.9898105555555
 20
81.99977250000002
 30
0.0
 10
176.4853383333333
 20
81.99977250000002
 30
0.0
 10
174.1040883333333
 20
87.56660583333336
 30
0.0
 10
172.3331438888889
 20
92.85121694444446
 30
0.0
 10
170.9961161111111
 20
97.76188361111112
 30
0.0
 10
170.9961161111111
 20
111.1015873148148
 30
0.0
 10
170.9961161111111
 20
124.4412910185185
 30
0.0
 10
170.9961161111111
 20
137.7809947222222
 30
0.0
 10
171.013755
 20
137.7316058333333
 30
0.0
 10
171.0313938888889
 20
137.6786891666667
 30
0.0
 10
171.0490327777777
 20
137.6293002777778
 30
0.0
 10
171.1478105555555
 20
135.6819669444444
 30
0.0
 10
171.2748105555555
 20
133.9815780555555
 30
0.0
 10
171.4370883333333
 20
132.3517447222222
 30
0.0
 10
171.521755
 20
131.5015502777778
 30
0.0
 10
171.5817272222222
 20
130.8841891666667
 30
0.0
 10
173.1304216666666
 20
119.3942169444445
 30
0.0
 10
173.8042272222222
 20
112.9948280555555
 30
0.0
 10
175.0248383333333
 20
104.7221891666667
 30
0.0
 10
177.998755
 20
95.21130027777778
 30
0.0
 10
177.998755
 20
90.80745768518518
 30
0.0
 10
177.998755
 20
86.4036150925926
 30
0.0
 10
177.998755
 20
81.99977250000002
 30
0.0
  0
SPLINE
  5
8F
330
1F
100
AcDbEntity
  8
DEFAULT
 62
     1
100
AcDbSpline
210
0.0
220
0.0
230
1.0
 70
    11
 71
     3
 72
    17
 73
    13
 74
     0
 42
0.000000001
 43
0.0000000001
 40
20.26999999999998
 40
20.26999999999998
 40
20.26999999999998
 40
20.26999999999998
 40
21.26999999999998
 40
21.26999999999998
 40
21.26999999999998
 40
43.01000000000005
 40
43.01000000000005
 40
43.01000000000005
 40
44.01000000000005
 40
44.01000000000005
 40
44.01000000000005
 40
64.28000000000003
 40
64.28000000000003
 40
64.28000000000003
 40
64.28000000000003
 10
177.998755
 20
172.4837447222222
 30
0.0
 10
175.5751716666666
 20
173.9901058333333
 30
0.0
 10
173.2397827777777
 20
175.5917169444444
 30
0.0
 10
170.9961161111111
 20
177.2850502777778
 30
0.0
 10
170.9961161111111
 20
179.8415132407407
 30
0.0
 10
170.9961161111111
 20
182.3979762037037
 30
0.0
 10
170.9961161111111
 20
184.9544391666667
 30
0.0
 10
173.2186161111111
 20
183.0706058333333
 30
0.0
 10
175.554005
 20
181.2961336111111
 30
0.0
 10
177.998755
 20
179.6345502777778
 30
0.0
 10
177.998755
 20
177.2509484259259
 30
0.0
 10
177.998755
 20
174.8673465740741
 30
0.0
 10
177.998755
 20
172.4837447222222
 30
0.0
  0
SPLINE
  5
90
330
1F
100
AcDbEntity
  8
DEFAULT
 62
     1
100
AcDbSpline
210
0.0
220
0.0
230
1.0
 70
    11
 71
     3
 72
    20
 73
    16
 74
     0
 42
0.000000001
 43
0.0000000001
 40
22.41999999999996
 40
22.41999999999996
 40
22.41999999999996
 40
22.41999999999996
 40
23.41999999999996
 40
23.41999999999996
 40
23.41999999999996
 40
24.41999999999996
 40
24.41999999999996
 40
24.41999999999996
 40
41.64999999999986
 40
41.64999999999986
 40
41.64999999999986
 40
42.64999999999986
 40
42.64999999999986
 40
42.64999999999986
 40
65.06999999999982
 40
65.06999999999982
 40
65.06999999999982
 40
65.06999999999982
 10
177.998755
 20
236.9327169444445
 30
0.0
 10
177.8188383333333
 20
237.5641891666666
 30
0.0
 10
177.649505
 20
238.2062447222222
 30
0.0
 10
177.4978105555555
 20
238.8624113888889
 30
0.0
 10
175.2647272222222
 20
239.0917169444444
 30
0.0
 10
173.0986716666666
 20
239.3704113888889
 30
0.0
 10
170.9961161111111
 20
239.6949669444444
 30
0.0
 10
170.9961161111111
 20
241.7210873148148
 30
0.0
 10
170.9961161111111
 20
243.7472076851851
 30
0.0
 10
170.9961161111111
 20
245.7733280555555
 30
0.0
 10
173.2468383333333
 20
245.4029113888889
 30
0.0
 10
175.5786994444444
 20
245.0959947222222
 30
0.0
 10
177.998755
 20
244.8419947222222
 30
0.0
 10
177.998755
 20
242.2055687962963
 30
0.0
 10
177.998755
 20
239.5691428703704
 30
0.0
 10
177.998755
 20
236.9327169444445
 30
0.0
  0
SPLINE
  5
91
330
1F
100
AcDbEntity
  8
DEFAULT
 62
     1
100
AcDbSpline
210
0.0
220
0.0
230
1.0
 70
    11
 71
     3
 72
    20
 73
    16
 74
     0
 42
0.000000001
 43
0.0000000001
 40
1.0
 40
1.0
 40
1.0
 40
1.0
 40
2.0
 40
2.0
 40
2.0
 40
3.0
 40
3.0
 40
3.0
 40
4.0
 40
4.0
 40
4.0
 40
52.66146113712567
 40
52.66146113712567
 40
52.66146113712567
 40
53.66146113712567
 40
53.66146113712567
 40
53.66146113712567
 40
53.66146113712567
 10
182.2320883333333
 20
319.1546336111111
 30
0.0
 10
180.0871994444444
 20
321.9027725
 30
0.0
 10
179.2193661111111
 20
325.8962169444444
 30
0.0
 10
180.7080883333333
 20
331.5971058333333
 30
0.0
 10
184.2923105555555
 20
345.3236891666667
 30
0.0
 10
183.0611161111111
 20
353.6421891666666
 30
0.0
 10
178.2880327777777
 20
355.9458280555555
 30
0.0
 10
181.2513661111111
 20
354.7252169444444
 30
0.0
 10
183.6678938888888
 20
352.3686613888889
 30
0.0
 10
184.9978661111111
 20
349.2606891666666
 30
0.0
 10
184.3311161111111
 20
343.5774391666666
 30
0.0
 10
183.6643661111111
 20
337.8941891666666
 30
0.0
 10
182.9976161111111
 20
332.2109391666667
 30
0.0
 10
182.8635605555555
 20
331.6853002777778
 30
0.0
 10
182.9940883333333
 20
323.5431891666667
 30
0.0
 10
182.2320883333333
 20
319.1546336111111
 30
0.0
  0
SPLINE
  5
92
330
1F
100
AcDbEntity
  8
DEFAULT
 62
     1
100
AcDbSpline
210
0.0
220
0.0
230
1.0
 70
    11
 71
     3
 72
    17
 73
    13
 74
     0
 42
0.000000001
 43
0.0000000001
 40
20.97000000000003
 40
20.97000000000003
 40
20.97000000000003
 40
20.97000000000003
 40
21.97000000000003
 40
21.97000000000003
 40
21.97000000000003
 40
46.18000000000006
 40
46.18000000000006
 40
46.18000000000006
 40
47.18000000000006
 40
47.18000000000006
 40
47.18000000000006
 40
68.15000000000009
 40
68.15000000000009
 40
68.15000000000009
 40
68.15000000000009
 10
191.9969772222222
 20
199.1114113888889
 30
0.0
 10
189.5028383333333
 20
200.7765225
 30
0.0
 10
187.1639216666666
 20
202.6003836111111
 30
0.0
 10
184.9978661111111
 20
204.5688836111111
 30
0.0
 10
184.9978661111111
 20
207.4158002777778
 30
0.0
 10
184.9978661111111
 20
210.2627169444445
 30
0.0
 10
184.9978661111111
 20
213.1096336111111
 30
0.0
 10
187.0898383333333
 20
210.7178002777778
 30
0.0
 10
189.4322827777777
 20
208.5129391666667
 30
0.0
 10
191.9969772222222
 20
206.5091613888889
 30
0.0
 10
191.9969772222222
 20
204.0432447222222
 30
0.0
 10
191.9969772222222
 20
201.5773280555555
 30
0.0
 10
191.9969772222222
 20
199.1114113888889
 30
0.0
  0
SPLINE
  5
93
330
1F
100
AcDbEntity
  8
DEFAULT
 62
     1
100
AcDbSpline
210
0.0
220
0.0
230
1.0
 70
    11
 71
     3
 72
    29
 73
    25
 74
     0
 42
0.000000001
 43
0.0000000001
 40
1.0
 40
1.0
 40
1.0
 40
1.0
 40
63.10000000000002
 40
63.10000000000002
 40
63.10000000000002
 40
64.10000000000002
 40
64.10000000000002
 40
64.10000000000002
 40
65.10000000000002
 40
65.10000000000002
 40
65.10000000000002
 40
66.10000000000002
 40
66.10000000000002
 40
66.10000000000002
 40
67.10000000000002
 40
67.10000000000002
 40
67.10000000000002
 40
94.48000000000002
 40
94.48000000000002
 40
94.48000000000002
 40
95.48000000000002
 40
95.48000000000002
 40
95.48000000000002
 40
96.48000000000002
 40
96.48000000000002
 40
96.48000000000002
 40
96.48000000000002
 10
191.9969772222222
 20
234.1493002777778
 30
0.0
 10
191.9969772222222
 20
241.4518002777778
 30
0.0
 10
191.9969772222222
 20
248.7543002777778
 30
0.0
 10
191.9969772222222
 20
256.0568002777778
 30
0.0
 10
192.953005
 20
256.0391613888889
 30
0.0
 10
193.9266716666666
 20
256.0321058333333
 30
0.0
 10
194.9109216666666
 20
256.0321058333333
 30
0.0
 10
195.2143105555555
 20
256.0321058333333
 30
0.0
 10
195.7223105555555
 20
256.0462169444444
 30
0.0
 10
196.4490327777777
 20
256.0673836111111
 30
0.0
 10
196.1315327777777
 20
255.3300780555555
 30
0.0
 10
195.8316716666666
 20
254.5398558333333
 30
0.0
 10
195.556505
 20
253.7002447222222
 30
0.0
 10
192.9247827777778
 20
245.6569113888889
 30
0.0
 10
195.8457827777777
 20
238.8341891666666
 30
0.0
 10
198.9960883333333
 20
234.1140225
 30
0.0
 10
198.9960883333333
 20
230.8943373148148
 30
0.0
 10
198.9960883333333
 20
227.6746521296296
 30
0.0
 10
198.9960883333333
 20
224.4549669444444
 30
0.0
 10
198.7597272222222
 20
224.7124947222222
 30
0.0
 10
198.5304216666666
 20
224.9735502777778
 30
0.0
 10
198.3011161111111
 20
225.2381336111111
 30
0.0
 10
196.7594772222222
 20
227.0373002777778
 30
0.0
 10
194.1383383333333
 20
230.0923558333333
 30
0.0
 10
191.9969772222222
 20
234.1493002777778
 30
0.0
  0
SPLINE
  5
94
330
1F
100
AcDbEntity
  8
DEFAULT
 62
     1
100
AcDbSpline
210
0.0
220
0.0
230
1.0
 70
    11
 71
     3
 72
    29
 73
    25
 74
     0
 42
0.000000001
 43
0.0000000001
 40
114.67
 40
114.67
 40
114.67
 40
114.67
 40
115.67
 40
115.67
 40
115.67
 40
116.67
 40
116.67
 40
116.67
 40
117.67
 40
117.67
 40
117.67
 40
118.67
 40
118.67
 40
118.67
 40
176.36
 40
176.36
 40
176.36
 40
177.36
 40
177.36
 40
177.36
 40
178.36
 40
178.36
 40
178.36
 40
293.0299999999999
 40
293.0299999999999
 40
293.0299999999999
 40
293.0299999999999
 10
205.9987272222222
 20
106.3978836111111
 30
0.0
 10
204.1783938888888
 20
112.8254947222222
 30
0.0
 10
203.3811161111111
 20
118.4769947222222
 30
0.0
 10
202.9260327777777
 20
122.9466891666667
 30
0.0
 10
201.3914494444444
 20
134.3131891666667
 30
0.0
 10
201.3244216666666
 20
134.9728836111111
 30
0.0
 10
201.2926716666666
 20
135.2903836111111
 30
0.0
 10
201.0774772222222
 20
137.4282169444445
 30
0.0
 10
200.9434216666666
 20
139.9223558333333
 30
0.0
 10
200.8552272222222
 20
143.4854113888889
 30
0.0
 10
200.3507549999999
 20
144.7942169444445
 30
0.0
 10
199.7051716666666
 20
146.5369391666667
 30
0.0
 10
198.9960883333333
 20
148.5971613888889
 30
0.0
 10
198.9960883333333
 20
155.3810780555556
 30
0.0
 10
198.9960883333333
 20
162.1649947222222
 30
0.0
 10
198.9960883333333
 20
168.9489113888889
 30
0.0
 10
199.2571438888889
 20
168.8501336111111
 30
0.0
 10
199.5217272222222
 20
168.7584113888889
 30
0.0
 10
199.7863105555555
 20
168.6631613888889
 30
0.0
 10
201.1691994444444
 20
161.1454669444445
 30
0.0
 10
203.6562827777777
 20
153.1091891666667
 30
0.0
 10
205.9987272222222
 20
146.8509113888889
 30
0.0
 10
205.9987272222222
 20
133.3665687962963
 30
0.0
 10
205.9987272222222
 20
119.8822262037037
 30
0.0
 10
205.9987272222222
 20
106.3978836111111
 30
0.0
  0
SPLINE
  5
95
330
1F
100
AcDbEntity
  8
DEFAULT
 62
     1
100
AcDbSpline
210
0.0
220
0.0
230
1.0
 70
    11
 71
     3
 72
    17
 73
    13
 74
     0
 42
0.000000001
 43
0.0000000001
 40
17.94
 40
17.94
 40
17.94
 40
17.94
 40
18.94
 40
18.94
 40
18.94
 40
37.50000000000006
 40
37.50000000000006
 40
37.50000000000006
 40
38.50000000000006
 40
38.50000000000006
 40
38.50000000000006
 40
56.44000000000005
 40
56.44000000000005
 40
56.44000000000005
 40
56.44000000000005
 10
205.9987272222222
 20
179.2253280555556
 30
0.0
 10
203.5998383333333
 20
180.0049669444444
 30
0.0
 10
201.2644494444444
 20
180.8728002777777
 30
0.0
 10
198.9960883333333
 20
181.8288280555555
 30
0.0
 10
198.9960883333333
 20
184.0113465740741
 30
0.0
 10
198.9960883333333
 20
186.1938650925926
 30
0.0
 10
198.9960883333333
 20
188.3763836111111
 30
0.0
 10
201.2503383333333
 20
187.3427447222222
 30
0.0
 10
203.589255
 20
186.4008280555556
 30
0.0
 10
205.9987272222222
 20
185.5541613888889
 30
0.0
 10
205.9987272222222
 20
183.4445502777778
 30
0.0
 10
205.9987272222222
 20
181.3349391666667
 30
0.0
 10
205.9987272222222
 20
179.2253280555556
 30
0.0
  0
SPLINE
  5
96
330
1F
100
AcDbEntity
  8
DEFAULT
 62
     1
100
AcDbSpline
210
0.0
220
0.0
230
1.0
 70
    11
 71
     3
 72
    17
 73
    13
 74
     0
 42
0.000000001
 43
0.0000000001
 40
18.28999999999996
 40
18.28999999999996
 40
18.28999999999996
 40
18.28999999999996
 40
19.28999999999996
 40
19.28999999999996
 40
19.28999999999996
 40
36.9899999999999
 40
36.9899999999999
 40
36.9899999999999
 40
37.9899999999999
 40
37.9899999999999
 40
37.9899999999999
 40
56.27999999999986
 40
56.27999999999986
 40
56.27999999999986
 40
56.27999999999986
 10
205.9987272222222
 20
198.3917447222222
 30
0.0
 10
208.2388661111111
 20
197.4533558333333
 30
0.0
 10
210.574255
 20
196.6172725
 30
0.0
 10
212.9978383333333
 20
195.8870225
 30
0.0
 10
212.9978383333333
 20
193.8056336111111
 30
0.0
 10
212.9978383333333
 20
191.7242447222222
 30
0.0
 10
212.9978383333333
 20
189.6428558333334
 30
0.0
 10
210.5883661111111
 20
190.3131336111111
 30
0.0
 10
208.256505
 20
191.0821891666667
 30
0.0
 10
205.9987272222222
 20
191.9394391666667
 30
0.0
 10
205.9987272222222
 20
194.0902076851852
 30
0.0
 10
205.9987272222222
 20
196.2409762037037
 30
0.0
 10
205.9987272222222
 20
198.3917447222222
 30
0.0
  0
SPLINE
  5
97
330
1F
100
AcDbEntity
  8
DEFAULT
 62
     1
100
AcDbSpline
210
0.0
220
0.0
230
1.0
 70
    11
 71
     3
 72
    17
 73
    13
 74
     0
 42
0.000000001
 43
0.0000000001
 40
11.91000000000008
 40
11.91000000000008
 40
11.91000000000008
 40
11.91000000000008
 40
31.95000000000005
 40
31.95000000000005
 40
31.95000000000005
 40
32.95000000000005
 40
32.95000000000005
 40
32.95000000000005
 40
33.95000000000005
 40
33.95000000000005
 40
33.95000000000005
 40
45.86000000000013
 40
45.86000000000013
 40
45.86000000000013
 40
45.86000000000013
 10
212.9978383333333
 20
81.99977250000002
 30
0.0
 10
212.9978383333333
 20
84.35632805555558
 30
0.0
 10
212.9978383333333
 20
86.71288361111112
 30
0.0
 10
212.9978383333333
 20
89.06943916666668
 30
0.0
 10
213.6046161111111
 20
87.93349472222222
 30
0.0
 10
214.2466716666667
 20
86.79049472222222
 30
0.0
 10
214.9275327777777
 20
85.63691138888889
 30
0.0
 10
215.6577827777778
 20
84.40218916666667
 30
0.0
 10
216.4127272222222
 20
83.18863361111114
 30
0.0
 10
217.1994216666666
 20
81.99977250000002
 30
0.0
 10
215.7988938888889
 20
81.99977250000002
 30
0.0
 10
214.398366111111
 20
81.99977250000002
 30
0.0
 10
212.9978383333333
 20
81.99977250000002
 30
0.0
  0
SPLINE
  5
98
330
1F
100
AcDbEntity
  8
DEFAULT
 62
     1
100
AcDbSpline
210
0.0
220
0.0
230
1.0
 70
    11
 71
     3
 72
    17
 73
    13
 74
     0
 42
0.000000001
 43
0.0000000001
 40
17.51999999999998
 40
17.51999999999998
 40
17.51999999999998
 40
17.51999999999998
 40
18.51999999999998
 40
18.51999999999998
 40
18.51999999999998
 40
36.71999999999991
 40
36.71999999999991
 40
36.71999999999991
 40
37.71999999999991
 40
37.71999999999991
 40
37.71999999999991
 40
55.2399999999999
 40
55.2399999999999
 40
55.2399999999999
 40
55.2399999999999
 10
219.9969494444444
 20
206.4068558333333
 30
0.0
 10
217.5557272222222
 20
206.9995225
 30
0.0
 10
215.2203383333333
 20
207.7015502777778
 30
0.0
 10
212.9978383333333
 20
208.5164669444445
 30
0.0
 10
212.9978383333333
 20
210.6566521296296
 30
0.0
 10
212.9978383333333
 20
212.7968373148148
 30
0.0
 10
212.9978383333333
 20
214.9370225
 30
0.0
 10
215.2908938888888
 20
213.9845225
 30
0.0
 10
217.6439216666666
 20
213.2119391666667
 30
0.0
 10
219.9969494444444
 20
212.5875225
 30
0.0
 10
219.9969494444444
 20
210.5273002777778
 30
0.0
 10
219.9969494444444
 20
208.4670780555556
 30
0.0
 10
219.9969494444444
 20
206.4068558333333
 30
0.0
  0
SPLINE
  5
99
330
1F
100
AcDbEntity
  8
DEFAULT
 62
     1
100
AcDbSpline
210
0.0
220
0.0
230
1.0
 70
    11
 71
     3
 72
    17
 73
    13
 74
     0
 42
0.000000001
 43
0.0000000001
 40
8.940000000000055
 40
8.940000000000055
 40
8.940000000000055
 40
8.940000000000055
 40
9.940000000000055
 40
9.940000000000055
 40
9.940000000000055
 40
17.59000000000015
 40
17.59000000000015
 40
17.59000000000015
 40
18.59000000000015
 40
18.59000000000015
 40
18.59000000000015
 40
27.5300000000002
 40
27.5300000000002
 40
27.5300000000002
 40
27.5300000000002
 10
226.9960605555555
 20
319.6485225
 30
0.0
 10
229.3914216666666
 20
319.8531336111111
 30
0.0
 10
231.7373938888888
 20
320.0259947222222
 30
0.0
 10
233.9986994444444
 20
320.1741613888889
 30
0.0
 10
233.9986994444444
 20
319.2745780555555
 30
0.0
 10
233.9986994444444
 20
318.3749947222222
 30
0.0
 10
233.9986994444444
 20
317.4754113888889
 30
0.0
 10
231.7656161111111
 20
317.1296891666667
 30
0.0
 10
229.4302272222222
 20
316.8051336111111
 30
0.0
 10
226.9960605555555
 20
316.4946891666667
 30
0.0
 10
226.9960605555555
 20
317.5459669444444
 30
0.0
 10
226.9960605555555
 20
318.5972447222222
 30
0.0
 10
226.9960605555555
 20
319.6485225
 30
0.0
  0
SPLINE
  5
9A
330
1F
100
AcDbEntity
  8
DEFAULT
 62
     1
100
AcDbSpline
210
0.0
220
0.0
230
1.0
 70
    11
 71
     3
 72
    20
 73
    16
 74
     0
 42
0.000000001
 43
0.0000000001
 40
1.0
 40
1.0
 40
1.0
 40
1.0
 40
2.0
 40
2.0
 40
2.0
 40
3.0
 40
3.0
 40
3.0
 40
4.0
 40
4.0
 40
4.0
 40
5.0
 40
5.0
 40
5.0
 40
6.0
 40
6.0
 40
6.0
 40
6.0
 10
239.3150605555555
 20
267.4233002777778
 30
0.0
 10
237.8192827777777
 20
270.5348002777778
 30
0.0
 10
232.8239494444444
 20
270.1643836111111
 30
0.0
 10
231.1411994444444
 20
275.4525225
 30
0.0
 10
241.848005
 20
275.2655502777778
 30
0.0
 10
246.6598938888889
 20
274.1507725
 30
0.0
 10
251.9162827777778
 20
273.8156336111111
 30
0.0
 10
251.500005
 20
270.0797169444444
 30
0.0
 10
250.4910605555555
 20
267.1869391666667
 30
0.0
 10
251.1683938888889
 20
264.3541336111111
 30
0.0
 10
252.0820883333333
 20
260.5335502777777
 30
0.0
 10
248.0216161111111
 20
265.0103002777778
 30
0.0
 10
239.6325605555555
 20
260.9921613888889
 30
0.0
 10
240.1687827777777
 20
262.9571336111111
 30
0.0
 10
240.5638938888888
 20
264.8198002777777
 30
0.0
 10
239.3150605555555
 20
267.4233002777778
 30
0.0
  0
SPLINE
  5
9B
330
1F
100
AcDbEntity
  8
DEFAULT
 62
     1
100
AcDbSpline
210
0.0
220
0.0
230
1.0
 70
    11
 71
     3
 72
    20
 73
    16
 74
     0
 42
0.000000001
 43
0.0000000001
 40
27.07999999999993
 40
27.07999999999993
 40
27.07999999999993
 40
27.07999999999993
 40
28.07999999999993
 40
28.07999999999993
 40
28.07999999999993
 40
69.52999999999997
 40
69.52999999999997
 40
69.52999999999997
 40
70.52999999999997
 40
70.52999999999997
 40
70.52999999999997
 40
71.52999999999997
 40
71.52999999999997
 40
71.52999999999997
 40
98.6099999999999
 40
98.6099999999999
 40
98.6099999999999
 40
98.6099999999999
 10
247.9969216666666
 20
91.17199472222225
 30
0.0
 10
245.3581438888888
 20
94.0189113888889
 30
0.0
 10
243.022755
 20
97.13393916666668
 30
0.0
 10
240.9978105555555
 20
100.4959113888889
 30
0.0
 10
240.9978105555555
 20
105.3701243518519
 30
0.0
 10
240.9978105555555
 20
110.2443373148148
 30
0.0
 10
240.9978105555555
 20
115.1185502777778
 30
0.0
 10
242.070255
 20
111.6154669444444
 30
0.0
 10
243.626005
 20
107.8336891666667
 30
0.0
 10
245.9190605555555
 20
103.9531336111111
 30
0.0
 10
246.5716994444444
 20
102.8489391666667
 30
0.0
 10
247.2631438888888
 20
101.7729669444444
 30
0.0
 10
247.9969216666666
 20
100.7252169444444
 30
0.0
 10
247.9969216666666
 20
97.54080953703703
 30
0.0
 10
247.9969216666666
 20
94.35640212962964
 30
0.0
 10
247.9969216666666
 20
91.17199472222225
 30
0.0
  0
SPLINE
  5
9C
330
1F
100
AcDbEntity
  8
DEFAULT
 62
     1
100
AcDbSpline
210
0.0
220
0.0
230
1.0
 70
    11
 71
     3
 72
    26
 73
    22
 74
     0
 42
0.000000001
 43
0.0000000001
 40
45.13000000000005
 40
45.13000000000005
 40
45.13000000000005
 40
45.13000000000005
 40
46.13000000000005
 40
46.13000000000005
 40
46.13000000000005
 40
47.13000000000005
 40
47.13000000000005
 40
47.13000000000005
 40
104.7400000000001
 40
104.7400000000001
 40
104.7400000000001
 40
105.7400000000001
 40
105.7400000000001
 40
105.7400000000001
 40
106.7400000000001
 40
106.7400000000001
 40
106.7400000000001
 40
107.7400000000001
 40
107.7400000000001
 40
107.7400000000001
 40
152.8700000000002
 40
152.8700000000002
 40
152.8700000000002
 40
152.8700000000002
 10
247.9969216666666
 20
155.2082169444444
 30
0.0
 10
247.4148383333333
 20
156.6793002777778
 30
0.0
 10
246.6704772222222
 20
158.3867447222222
 30
0.0
 10
246.3212272222222
 20
159.0429113888889
 30
0.0
 10
243.5131161111111
 20
164.3134113888889
 30
0.0
 10
241.752755
 20
169.8484947222222
 30
0.0
 10
240.9978105555555
 20
175.8421891666667
 30
0.0
 10
240.9978105555555
 20
182.6166984259259
 30
0.0
 10
240.9978105555555
 20
189.3912076851852
 30
0.0
 10
240.9978105555555
 20
196.1657169444445
 30
0.0
 10
242.8569494444444
 20
193.5622169444444
 30
0.0
 10
244.6031994444444
 20
190.9022725
 30
0.0
 10
244.8924772222222
 20
189.1101613888889
 30
0.0
 10
245.2381994444444
 20
186.9652725
 30
0.0
 10
246.5505327777777
 20
182.6296336111111
 30
0.0
 10
246.5928661111111
 20
181.3949113888889
 30
0.0
 10
246.6916438888888
 20
177.7895225
 30
0.0
 10
247.1537827777777
 20
174.3852169444444
 30
0.0
 10
247.9969216666666
 20
171.1290780555556
 30
0.0
 10
247.9969216666666
 20
165.8221243518519
 30
0.0
 10
247.9969216666666
 20
160.5151706481481
 30
0.0
 10
247.9969216666666
 20
155.2082169444444
 30
0.0
  0
SPLINE
  5
9D
330
1F
100
AcDbEntity
  8
DEFAULT
 62
     1
100
AcDbSpline
210
0.0
220
0.0
230
1.0
 70
    11
 71
     3
 72
    20
 73
    16
 74
     0
 42
0.000000001
 43
0.0000000001
 40
1.0
 40
1.0
 40
1.0
 40
1.0
 40
2.0
 40
2.0
 40
2.0
 40
3.0
 40
3.0
 40
3.0
 40
4.0
 40
4.0
 40
4.0
 40
5.0
 40
5.0
 40
5.0
 40
6.0
 40
6.0
 40
6.0
 40
6.0
 10
258.4708938888888
 20
212.3899669444445
 30
0.0
 10
256.3542272222222
 20
217.7416058333333
 30
0.0
 10
250.4875327777777
 20
224.6313558333333
 30
0.0
 10
248.4414216666666
 20
234.8195780555556
 30
0.0
 10
249.8560605555555
 20
235.0065502777778
 30
0.0
 10
250.9743661111111
 20
235.2923002777778
 30
0.0
 10
251.8598383333333
 20
235.5709947222222
 30
0.0
 10
251.9162827777778
 20
229.3127169444444
 30
0.0
 10
257.0597827777777
 20
225.8272725
 30
0.0
 10
258.6931438888889
 20
218.2460780555555
 30
0.0
 10
259.9666716666666
 20
212.3158836111111
 30
0.0
 10
263.7025883333333
 20
212.8309391666667
 30
0.0
 10
263.9495327777777
 20
204.7699669444444
 30
0.0
 10
261.9175327777778
 20
207.1794391666667
 30
0.0
 10
259.5750883333333
 20
209.5924391666667
 30
0.0
 10
258.4708938888888
 20
212.3899669444445
 30
0.0
  0
SPLINE
  5
9E
330
1F
100
AcDbEntity
  8
DEFAULT
 62
     1
100
AcDbSpline
210
0.0
220
0.0
230
1.0
 70
    11
 71
     3
 72
    17
 73
    13
 74
     0
 42
0.000000001
 43
0.0000000001
 40
1.0
 40
1.0
 40
1.0
 40
1.0
 40
2.0
 40
2.0
 40
2.0
 40
3.0
 40
3.0
 40
3.0
 40
4.0
 40
4.0
 40
4.0
 40
5.0
 40
5.0
 40
5.0
 40
5.0
 10
266.327255
 20
223.2908002777777
 30
0.0
 10
265.6499216666666
 20
224.3456058333333
 30
0.0
 10
265.0607827777777
 20
226.4305225
 30
0.0
 10
265.7628105555555
 20
227.9545225
 30
0.0
 10
267.4631994444444
 20
231.6410502777778
 30
0.0
 10
269.6962827777778
 20
231.2529947222222
 30
0.0
 10
270.9909772222222
 20
230.5403836111111
 30
0.0
 10
272.423255
 20
229.7536891666666
 30
0.0
 10
269.4563938888888
 20
229.8348280555556
 30
0.0
 10
268.1581716666666
 20
227.3653836111111
 30
0.0
 10
267.0751438888889
 20
225.3016336111111
 30
0.0
 10
266.8035049999999
 20
222.5499669444444
 30
0.0
 10
266.327255
 20
223.2908002777777
 30
0.0
  0
SPLINE
  5
9F
330
1F
100
AcDbEntity
  8
DEFAULT
 62
     1
100
AcDbSpline
210
0.0
220
0.0
230
1.0
 70
    11
 71
     3
 72
    20
 73
    16
 74
     0
 42
0.000000001
 43
0.0000000001
 40
13.00999999999999
 40
13.00999999999999
 40
13.00999999999999
 40
13.00999999999999
 40
25.95000000000005
 40
25.95000000000005
 40
25.95000000000005
 40
26.95000000000005
 40
26.95000000000005
 40
26.95000000000005
 40
46.11000000000013
 40
46.11000000000013
 40
46.11000000000013
 40
47.11000000000013
 40
47.11000000000013
 40
47.11000000000013
 40
60.12000000000012
 40
60.12000000000012
 40
60.12000000000012
 40
60.12000000000012
 10
275.9968938888888
 20
81.99977250000002
 30
0.0
 10
274.4752457407407
 20
81.99977250000002
 30
0.0
 10
272.9535975925925
 20
81.99977250000002
 30
0.0
 10
271.4319494444444
 20
81.99977250000002
 30
0.0
 10
270.6064494444444
 20
82.36313361111112
 30
0.0
 10
269.7950605555555
 20
82.74060583333333
 30
0.0
 10
268.9977827777777
 20
83.13218916666666
 30
0.0
 10
268.9977827777777
 20
85.38526324074074
 30
0.0
 10
268.9977827777777
 20
87.63833731481482
 30
0.0
 10
268.9977827777777
 20
89.89141138888891
 30
0.0
 10
271.1920605555555
 20
88.67080027777779
 30
0.0
 10
273.5274494444444
 20
87.57013361111112
 30
0.0
 10
275.9968938888888
 20
86.5894113888889
 30
0.0
 10
275.9968938888888
 20
85.05953175925929
 30
0.0
 10
275.9968938888888
 20
83.52965212962965
 30
0.0
 10
275.9968938888888
 20
81.99977250000002
 30
0.0
  0
SPLINE
  5
A0
330
1F
100
AcDbEntity
  8
DEFAULT
 62
     1
100
AcDbSpline
210
0.0
220
0.0
230
1.0
 70
    11
 71
     3
 72
    17
 73
    13
 74
     0
 42
0.000000001
 43
0.0000000001
 40
3.370000000000005
 40
3.370000000000005
 40
3.370000000000005
 40
3.370000000000005
 40
4.370000000000005
 40
4.370000000000005
 40
4.370000000000005
 40
5.740000000000009
 40
5.740000000000009
 40
5.740000000000009
 40
6.740000000000009
 40
6.740000000000009
 40
6.740000000000009
 40
10.11000000000001
 40
10.11000000000001
 40
10.11000000000001
 40
10.11000000000001
 10
275.9968938888888
 20
331.4383558333333
 30
0.0
 10
273.5450883333333
 20
330.9162447222222
 30
0.0
 10
271.1955883333333
 20
330.3235780555556
 30
0.0
 10
268.9977827777777
 20
329.6533002777778
 30
0.0
 10
268.9977827777777
 20
329.8144021296296
 30
0.0
 10
268.9977827777777
 20
329.9755039814815
 30
0.0
 10
268.9977827777777
 20
330.1366058333334
 30
0.0
 10
271.1920605555555
 20
331.1349669444444
 30
0.0
 10
273.534505
 20
331.9781058333333
 30
0.0
 10
275.9968938888888
 20
332.6272169444444
 30
0.0
 10
275.9968938888888
 20
332.2309299074074
 30
0.0
 10
275.9968938888888
 20
331.8346428703704
 30
0.0
 10
275.9968938888888
 20
331.4383558333333
 30
0.0
  0
SPLINE
  5
A1
330
1F
100
AcDbEntity
  8
DEFAULT
 62
     1
100
AcDbSpline
210
0.0
220
0.0
230
1.0
 70
    11
 71
     3
 72
    17
 73
    13
 74
     0
 42
0.000000001
 43
0.0000000001
 40
17.31999999999994
 40
17.31999999999994
 40
17.31999999999994
 40
17.31999999999994
 40
18.31999999999994
 40
18.31999999999994
 40
18.31999999999994
 40
35.64999999999998
 40
35.64999999999998
 40
35.64999999999998
 40
36.64999999999998
 40
36.64999999999998
 40
36.64999999999998
 40
53.96999999999991
 40
53.96999999999991
 40
53.96999999999991
 40
53.96999999999991
 10
296.9977549999999
 20
348.4986891666666
 30
0.0
 10
294.4224772222222
 20
348.0048002777777
 30
0.0
 10
291.9988938888889
 20
347.5109113888889
 30
0.0
 10
289.9986438888888
 20
347.0946336111111
 30
0.0
 10
289.9986438888888
 20
349.1325132407407
 30
0.0
 10
289.9986438888888
 20
351.1703928703703
 30
0.0
 10
289.9986438888888
 20
353.2082725
 30
0.0
 10
292.0165327777777
 20
353.6316058333333
 30
0.0
 10
294.4330605555555
 20
354.1219669444445
 30
0.0
 10
296.9977549999999
 20
354.6088002777777
 30
0.0
 10
296.9977549999999
 20
352.572096574074
 30
0.0
 10
296.9977549999999
 20
350.5353928703703
 30
0.0
 10
296.9977549999999
 20
348.4986891666666
 30
0.0
  0
SPLINE
  5
A2
330
1F
100
AcDbEntity
  8
DEFAULT
 62
     1
100
AcDbSpline
210
0.0
220
0.0
230
1.0
 70
    11
 71
     3
 72
    26
 73
    22
 74
     0
 42
0.000000001
 43
0.0000000001
 40
17.29000000000008
 40
17.29000000000008
 40
17.29000000000008
 40
17.29000000000008
 40
18.29000000000008
 40
18.29000000000008
 40
18.29000000000008
 40
19.29000000000008
 40
19.29000000000008
 40
19.29000000000008
 40
20.04000000000008
 40
20.04000000000008
 40
20.04000000000008
 40
20.14999999999998
 40
20.14999999999998
 40
20.14999999999998
 40
37.33000000000004
 40
37.33000000000004
 40
37.33000000000004
 40
38.33000000000004
 40
38.33000000000004
 40
38.33000000000004
 40
55.62000000000012
 40
55.62000000000012
 40
55.62000000000012
 40
55.62000000000012
 10
296.9977549999999
 20
366.8219669444445
 30
0.0
 10
299.2731716666667
 20
367.2311891666666
 30
0.0
 10
301.6544216666666
 20
367.6263002777778
 30
0.0
 10
303.996866111111
 20
367.9614391666667
 30
0.0
 10
304.0850605555555
 20
367.9755502777778
 30
0.0
 10
304.173255
 20
367.9861336111111
 30
0.0
 10
304.2614494444444
 20
368.0002447222222
 30
0.0
 10
304.1732549999999
 20
368.0002447222221
 30
0.0
 10
304.0850605555555
 20
368.0002447222221
 30
0.0
 10
303.996866111111
 20
368.0002447222222
 30
0.0
 10
303.996866111111
 20
367.987309537037
 30
0.0
 10
303.996866111111
 20
367.9743743518518
 30
0.0
 10
303.996866111111
 20
367.9614391666667
 30
0.0
 10
303.996866111111
 20
365.9411984259259
 30
0.0
 10
303.996866111111
 20
363.9209576851852
 30
0.0
 10
303.996866111111
 20
361.9007169444444
 30
0.0
 10
301.6579494444444
 20
361.5479391666667
 30
0.0
 10
299.2696438888889
 20
361.1422447222222
 30
0.0
 10
296.9977549999999
 20
360.7224391666666
 30
0.0
 10
296.9977549999999
 20
362.7556150925926
 30
0.0
 10
296.9977549999999
 20
364.7887910185186
 30
0.0
 10
296.9977549999999
 20
366.8219669444445
 30
0.0
  0
SPLINE
  5
A3
330
1F
100
AcDbEntity
  8
DEFAULT
 62
     1
100
AcDbSpline
210
0.0
220
0.0
230
1.0
 70
    11
 71
     3
 72
    17
 73
    13
 74
     0
 42
0.000000001
 43
0.0000000001
 40
17.0
 40
17.0
 40
17.0
 40
17.0
 40
18.0
 40
18.0
 40
18.0
 40
35.00999999999999
 40
35.00999999999999
 40
35.00999999999999
 40
36.00999999999999
 40
36.00999999999999
 40
36.00999999999999
 40
53.00999999999999
 40
53.00999999999999
 40
53.00999999999999
 40
53.00999999999999
 10
310.9959772222222
 20
87.04096694444446
 30
0.0
 10
310.4244772222222
 20
87.04096694444446
 30
0.0
 10
306.0076994444444
 20
87.06213361111111
 30
0.0
 10
303.996866111111
 20
87.1432725
 30
0.0
 10
303.996866111111
 20
89.14352249999997
 30
0.0
 10
303.996866111111
 20
91.1437725
 30
0.0
 10
303.996866111111
 20
93.14402249999999
 30
0.0
 10
306.0076994444444
 20
93.05935583333333
 30
0.0
 10
310.5020883333333
 20
93.03818916666668
 30
0.0
 10
310.9959772222222
 20
93.03818916666668
 30
0.0
 10
310.9959772222222
 20
91.03911509259262
 30
0.0
 10
310.9959772222222
 20
89.04004101851854
 30
0.0
 10
310.9959772222222
 20
87.04096694444446
 30
0.0
  0
SPLINE
  5
A4
330
1F
100
AcDbEntity
  8
DEFAULT
 62
     1
100
AcDbSpline
210
0.0
220
0.0
230
1.0
 70
    11
 71
     3
 72
    23
 73
    19
 74
     0
 42
0.000000001
 43
0.0000000001
 40
17.00999999999999
 40
17.00999999999999
 40
17.00999999999999
 40
17.00999999999999
 40
18.00999999999999
 40
18.00999999999999
 40
18.00999999999999
 40
19.00999999999999
 40
19.00999999999999
 40
19.00999999999999
 40
36.01999999999998
 40
36.01999999999998
 40
36.01999999999998
 40
37.01999999999998
 40
37.01999999999998
 40
37.01999999999998
 40
38.01999999999998
 40
38.01999999999998
 40
38.01999999999998
 40
55.02999999999997
 40
55.02999999999997
 40
55.02999999999997
 40
55.02999999999997
 10
318.9969772222222
 20
344.9991336111111
 30
0.0
 10
318.9969772222222
 20
342.7907447222222
 30
0.0
 10
317.2119216666666
 20
340.9986336111111
 30
0.0
 10
315.0000049999999
 20
340.9986336111111
 30
0.0
 10
312.7880883333333
 20
340.9986336111111
 30
0.0
 10
310.9995049999999
 20
342.7907447222222
 30
0.0
 10
310.9995049999999
 20
344.9991336111111
 30
0.0
 10
310.9995049999999
 20
346.9993836111111
 30
0.0
 10
310.9995049999999
 20
348.9996336111111
 30
0.0
 10
310.9995049999999
 20
350.9998836111111
 30
0.0
 10
310.9995049999999
 20
353.2082725
 30
0.0
 10
312.7880883333333
 20
355.0003836111111
 30
0.0
 10
315.0000049999999
 20
355.0003836111111
 30
0.0
 10
317.2119216666666
 20
355.0003836111111
 30
0.0
 10
318.9969772222222
 20
353.2082725
 30
0.0
 10
318.9969772222222
 20
350.9998836111111
 30
0.0
 10
318.9969772222222
 20
348.9996336111111
 30
0.0
 10
318.9969772222222
 20
346.9993836111111
 30
0.0
 10
318.9969772222222
 20
344.9991336111111
 30
0.0
  0
SPLINE
  5
A5
330
1F
100
AcDbEntity
  8
DEFAULT
 62
     1
100
AcDbSpline
210
0.0
220
0.0
230
1.0
 70
    11
 71
     3
 72
    17
 73
    13
 74
     0
 42
0.000000001
 43
0.0000000001
 40
17.00999999999999
 40
17.00999999999999
 40
17.00999999999999
 40
17.00999999999999
 40
18.00999999999999
 40
18.00999999999999
 40
18.00999999999999
 40
35.00999999999999
 40
35.00999999999999
 40
35.00999999999999
 40
36.00999999999999
 40
36.00999999999999
 40
36.00999999999999
 40
53.01999999999998
 40
53.01999999999998
 40
53.01999999999998
 40
53.01999999999998
 10
326.0031438888889
 20
87.1432725
 30
0.0
 10
323.9923105555555
 20
87.06213361111111
 30
0.0
 10
319.5755327777777
 20
87.04096694444446
 30
0.0
 10
319.0040327777778
 20
87.04096694444446
 30
0.0
 10
319.0040327777778
 20
89.04004101851854
 30
0.0
 10
319.0040327777778
 20
91.03911509259262
 30
0.0
 10
319.0040327777778
 20
93.03818916666668
 30
0.0
 10
319.4979216666666
 20
93.03818916666668
 30
0.0
 10
323.9923105555555
 20
93.05935583333333
 30
0.0
 10
326.0031438888889
 20
93.14402249999999
 30
0.0
 10
326.0031438888889
 20
91.1437725
 30
0.0
 10
326.0031438888889
 20
89.14352249999997
 30
0.0
 10
326.0031438888889
 20
87.1432725
 30
0.0
  0
SPLINE
  5
A6
330
1F
100
AcDbEntity
  8
DEFAULT
 62
     1
100
AcDbSpline
210
0.0
220
0.0
230
1.0
 70
    11
 71
     3
 72
    26
 73
    22
 74
     0
 42
0.000000001
 43
0.0000000001
 40
17.28999999999996
 40
17.28999999999996
 40
17.28999999999996
 40
17.28999999999996
 40
18.03999999999996
 40
18.03999999999996
 40
18.03999999999996
 40
19.03999999999996
 40
19.03999999999996
 40
19.03999999999996
 40
20.03999999999996
 40
20.03999999999996
 40
20.03999999999996
 40
37.33000000000004
 40
37.33000000000004
 40
37.33000000000004
 40
38.33000000000004
 40
38.33000000000004
 40
38.33000000000004
 40
55.5100000000001
 40
55.5100000000001
 40
55.5100000000001
 40
55.62
 40
55.62
 40
55.62
 40
55.62
 10
326.0031438888889
 20
368.0002447222222
 30
0.0
 10
325.9149494444444
 20
368.0002447222221
 30
0.0
 10
325.826755
 20
368.0002447222221
 30
0.0
 10
325.7385605555555
 20
368.0002447222222
 30
0.0
 10
325.8267549999999
 20
367.9861336111111
 30
0.0
 10
325.9149494444444
 20
367.9755502777778
 30
0.0
 10
326.0031438888889
 20
367.9614391666667
 30
0.0
 10
328.3455883333333
 20
367.6263002777778
 30
0.0
 10
330.7268383333333
 20
367.2311891666666
 30
0.0
 10
333.0022549999999
 20
366.8219669444445
 30
0.0
 10
333.0022549999999
 20
364.7887910185186
 30
0.0
 10
333.0022549999999
 20
362.7556150925926
 30
0.0
 10
333.0022549999999
 20
360.7224391666666
 30
0.0
 10
330.730366111111
 20
361.1422447222222
 30
0.0
 10
328.3420605555555
 20
361.5479391666667
 30
0.0
 10
326.0031438888889
 20
361.9007169444444
 30
0.0
 10
326.0031438888889
 20
363.9209576851852
 30
0.0
 10
326.0031438888889
 20
365.9411984259259
 30
0.0
 10
326.0031438888889
 20
367.9614391666667
 30
0.0
 10
326.0031438888889
 20
367.9743743518518
 30
0.0
 10
326.0031438888889
 20
367.987309537037
 30
0.0
 10
326.0031438888889
 20
368.0002447222222
 30
0.0
  0
SPLINE
  5
A7
330
1F
100
AcDbEntity
  8
DEFAULT
 62
     1
100
AcDbSpline
210
0.0
220
0.0
230
1.0
 70
    11
 71
     3
 72
    17
 73
    13
 74
     0
 42
0.000000001
 43
0.0000000001
 40
17.33000000000004
 40
17.33000000000004
 40
17.33000000000004
 40
17.33000000000004
 40
18.33000000000004
 40
18.33000000000004
 40
18.33000000000004
 40
35.64999999999998
 40
35.64999999999998
 40
35.64999999999998
 40
36.64999999999998
 40
36.64999999999998
 40
36.64999999999998
 40
53.98000000000002
 40
53.98000000000002
 40
53.98000000000002
 40
53.98000000000002
 10
340.0013661111111
 20
347.0946336111111
 30
0.0
 10
338.0011161111111
 20
347.5109113888889
 30
0.0
 10
335.5775327777777
 20
348.0048002777777
 30
0.0
 10
333.0022549999999
 20
348.4986891666666
 30
0.0
 10
333.0022549999999
 20
350.5353928703703
 30
0.0
 10
333.0022549999999
 20
352.572096574074
 30
0.0
 10
333.0022549999999
 20
354.6088002777777
 30
0.0
 10
335.5669494444444
 20
354.1219669444445
 30
0.0
 10
337.9834772222222
 20
353.6316058333333
 30
0.0
 10
340.0013661111111
 20
353.2082725
 30
0.0
 10
340.0013661111111
 20
351.1703928703703
 30
0.0
 10
340.0013661111111
 20
349.1325132407407
 30
0.0
 10
340.0013661111111
 20
347.0946336111111
 30
0.0
  0
SPLINE
  5
A8
330
1F
100
AcDbEntity
  8
DEFAULT
 62
     1
100
AcDbSpline
210
0.0
220
0.0
230
1.0
 70
    11
 71
     3
 72
    17
 73
    13
 74
     0
 42
0.000000001
 43
0.0000000001
 40
1.0
 40
1.0
 40
1.0
 40
1.0
 40
2.0
 40
2.0
 40
2.0
 40
3.0
 40
3.0
 40
3.0
 40
4.0
 40
4.0
 40
4.0
 40
5.0
 40
5.0
 40
5.0
 40
5.0
 10
352.1369216666666
 20
221.8796891666666
 30
0.0
 10
352.1016438888889
 20
222.7616336111111
 30
0.0
 10
353.4704216666667
 20
221.8197169444445
 30
0.0
 10
355.5412272222222
 20
220.7472725
 30
0.0
 10
358.0177272222222
 20
219.4666891666667
 30
0.0
 10
360.6035883333333
 20
221.1176891666667
 30
0.0
 10
359.6793105555555
 20
219.7700780555556
 30
0.0
 10
358.9878661111111
 20
218.7540780555556
 30
0.0
 10
356.3279216666666
 20
218.0626336111111
 30
0.0
 10
354.2430049999999
 20
219.3890780555556
 30
0.0
 10
353.0753105555555
 20
220.1334391666666
 30
0.0
 10
352.1863105555555
 20
220.6273280555556
 30
0.0
 10
352.1369216666666
 20
221.8796891666666
 30
0.0
  0
SPLINE
  5
A9
330
1F
100
AcDbEntity
  8
DEFAULT
 62
     1
100
AcDbSpline
210
0.0
220
0.0
230
1.0
 70
    11
 71
     3
 72
    20
 73
    16
 74
     0
 42
0.000000001
 43
0.0000000001
 40
19.16000000000008
 40
19.16000000000008
 40
19.16000000000008
 40
19.16000000000008
 40
20.16000000000008
 40
20.16000000000008
 40
20.16000000000008
 40
33.10000000000002
 40
33.10000000000002
 40
33.10000000000002
 40
46.11000000000001
 40
46.11000000000001
 40
46.11000000000001
 40
47.11000000000001
 40
47.11000000000001
 40
47.11000000000001
 40
66.2700000000001
 40
66.2700000000001
 40
66.2700000000001
 40
66.2700000000001
 10
361.0022272222222
 20
83.13218916666666
 30
0.0
 10
360.2049494444444
 20
82.74060583333333
 30
0.0
 10
359.3935605555555
 20
82.36313361111112
 30
0.0
 10
358.5680605555555
 20
81.99977250000002
 30
0.0
 10
357.0464124074074
 20
81.99977250000002
 30
0.0
 10
355.5247642592593
 20
81.99977250000002
 30
0.0
 10
354.0031161111111
 20
81.99977250000002
 30
0.0
 10
354.0031161111111
 20
83.52965212962965
 30
0.0
 10
354.0031161111111
 20
85.05953175925929
 30
0.0
 10
354.0031161111111
 20
86.5894113888889
 30
0.0
 10
356.4725605555555
 20
87.57013361111112
 30
0.0
 10
358.8079494444444
 20
88.67080027777779
 30
0.0
 10
361.0022272222222
 20
89.89141138888891
 30
0.0
 10
361.0022272222222
 20
87.63833731481482
 30
0.0
 10
361.0022272222222
 20
85.38526324074076
 30
0.0
 10
361.0022272222222
 20
83.13218916666666
 30
0.0
  0
SPLINE
  5
AA
330
1F
100
AcDbEntity
  8
DEFAULT
 62
     1
100
AcDbSpline
210
0.0
220
0.0
230
1.0
 70
    11
 71
     3
 72
    17
 73
    13
 74
     0
 42
0.000000001
 43
0.0000000001
 40
1.370000000000005
 40
1.370000000000005
 40
1.370000000000005
 40
1.370000000000005
 40
2.370000000000005
 40
2.370000000000005
 40
2.370000000000005
 40
5.740000000000009
 40
5.740000000000009
 40
5.740000000000009
 40
6.740000000000009
 40
6.740000000000009
 40
6.740000000000009
 40
8.110000000000014
 40
8.110000000000014
 40
8.110000000000014
 40
8.110000000000014
 10
361.0022272222222
 20
329.6533002777778
 30
0.0
 10
358.8044216666667
 20
330.3235780555556
 30
0.0
 10
356.4549216666666
 20
330.9162447222222
 30
0.0
 10
354.0031161111111
 20
331.4383558333333
 30
0.0
 10
354.0031161111111
 20
331.8346428703704
 30
0.0
 10
354.0031161111111
 20
332.2309299074074
 30
0.0
 10
354.0031161111111
 20
332.6272169444444
 30
0.0
 10
356.465505
 20
331.9781058333333
 30
0.0
 10
358.8079494444444
 20
331.1349669444444
 30
0.0
 10
361.0022272222222
 20
330.1366058333334
 30
0.0
 10
361.0022272222222
 20
329.9755039814815
 30
0.0
 10
361.0022272222222
 20
329.8144021296296
 30
0.0
 10
361.0022272222222
 20
329.6533002777778
 30
0.0
  0
SPLINE
  5
AB
330
1F
100
AcDbEntity
  8
DEFAULT
 62
     1
100
AcDbSpline
210
0.0
220
0.0
230
1.0
 70
    11
 71
     3
 72
    17
 73
    13
 74
     0
 42
0.000000001
 43
0.0000000001
 40
1.0
 40
1.0
 40
1.0
 40
1.0
 40
2.0
 40
2.0
 40
2.0
 40
3.0
 40
3.0
 40
3.0
 40
4.0
 40
4.0
 40
4.0
 40
5.0
 40
5.0
 40
5.0
 40
5.0
 10
363.1647549999999
 20
232.7134947222222
 30
0.0
 10
364.7663661111111
 20
232.6464669444445
 30
0.0
 10
366.5478938888889
 20
232.2619391666667
 30
0.0
 10
368.5340327777777
 20
231.4752447222222
 30
0.0
 10
369.9980605555555
 20
230.8966891666666
 30
0.0
 10
368.9291438888889
 20
227.7428558333334
 30
0.0
 10
366.8830327777778
 20
224.5078836111111
 30
0.0
 10
366.9041994444444
 20
224.7477725
 30
0.0
 10
366.9147827777778
 20
224.9876613888889
 30
0.0
 10
366.9147827777778
 20
225.2310780555555
 30
0.0
 10
366.9147827777778
 20
228.2931891666667
 30
0.0
 10
365.4401716666666
 20
231.0095780555556
 30
0.0
 10
363.1647549999999
 20
232.7134947222222
 30
0.0
  0
SPLINE
  5
AC
330
1F
100
AcDbEntity
  8
DEFAULT
 62
     1
100
AcDbSpline
210
0.0
220
0.0
230
1.0
 70
    11
 71
     3
 72
    20
 73
    16
 74
     0
 42
0.000000001
 43
0.0000000001
 40
1.0
 40
1.0
 40
1.0
 40
1.0
 40
2.0
 40
2.0
 40
2.0
 40
3.0
 40
3.0
 40
3.0
 40
4.0
 40
4.0
 40
4.0
 40
5.0
 40
5.0
 40
5.0
 40
6.0
 40
6.0
 40
6.0
 40
6.0
 10
371.529116111111
 20
212.3899669444445
 30
0.0
 10
370.4249216666666
 20
209.5924391666667
 30
0.0
 10
368.0824772222222
 20
207.1794391666667
 30
0.0
 10
366.0504772222222
 20
204.7699669444444
 30
0.0
 10
366.2974216666667
 20
212.8309391666667
 30
0.0
 10
370.0333383333333
 20
212.3158836111111
 30
0.0
 10
371.3068661111111
 20
218.2460780555555
 30
0.0
 10
372.9402272222222
 20
225.8272725
 30
0.0
 10
378.0837272222222
 20
229.3127169444444
 30
0.0
 10
378.1401716666666
 20
235.5709947222222
 30
0.0
 10
379.0256438888889
 20
235.2923002777778
 30
0.0
 10
380.1439494444444
 20
235.0065502777778
 30
0.0
 10
381.5585883333333
 20
234.8195780555556
 30
0.0
 10
379.5124772222222
 20
224.6313558333333
 30
0.0
 10
373.6457827777777
 20
217.7416058333333
 30
0.0
 10
371.529116111111
 20
212.3899669444445
 30
0.0
  0
SPLINE
  5
AD
330
1F
100
AcDbEntity
  8
DEFAULT
 62
     1
100
AcDbSpline
210
0.0
220
0.0
230
1.0
 70
    11
 71
     3
 72
    20
 73
    16
 74
     0
 42
0.000000001
 43
0.0000000001
 40
41.45000000000005
 40
41.45000000000005
 40
41.45000000000005
 40
41.45000000000005
 40
42.45000000000005
 40
42.45000000000005
 40
42.45000000000005
 40
69.52999999999997
 40
69.52999999999997
 40
69.52999999999997
 40
70.52999999999997
 40
70.52999999999997
 40
70.52999999999997
 40
71.52999999999997
 40
71.52999999999997
 40
71.52999999999997
 40
112.98
 40
112.98
 40
112.98
 40
112.98
 10
389.0021994444444
 20
100.4959113888889
 30
0.0
 10
386.9772549999999
 20
97.13393916666668
 30
0.0
 10
384.6418661111111
 20
94.0189113888889
 30
0.0
 10
382.0030883333333
 20
91.17199472222225
 30
0.0
 10
382.0030883333332
 20
94.35640212962964
 30
0.0
 10
382.0030883333332
 20
97.54080953703703
 30
0.0
 10
382.0030883333333
 20
100.7252169444444
 30
0.0
 10
382.7368661111111
 20
101.7729669444444
 30
0.0
 10
383.4283105555555
 20
102.8489391666667
 30
0.0
 10
384.0809494444445
 20
103.9531336111111
 30
0.0
 10
386.374005
 20
107.8336891666667
 30
0.0
 10
387.9297549999999
 20
111.6154669444444
 30
0.0
 10
389.0021994444444
 20
115.1185502777778
 30
0.0
 10
389.0021994444444
 20
110.2443373148148
 30
0.0
 10
389.0021994444444
 20
105.3701243518519
 30
0.0
 10
389.0021994444444
 20
100.4959113888889
 30
0.0
  0
SPLINE
  5
AE
330
1F
100
AcDbEntity
  8
DEFAULT
 62
     1
100
AcDbSpline
210
0.0
220
0.0
230
1.0
 70
    11
 71
     3
 72
    26
 73
    22
 74
     0
 42
0.000000001
 43
0.0000000001
 40
57.61000000000007
 40
57.61000000000007
 40
57.61000000000007
 40
57.61000000000007
 40
58.61000000000007
 40
58.61000000000007
 40
58.61000000000007
 40
59.61000000000007
 40
59.61000000000007
 40
59.61000000000007
 40
104.7400000000001
 40
104.7400000000001
 40
104.7400000000001
 40
105.7400000000001
 40
105.7400000000001
 40
105.7400000000001
 40
106.7400000000001
 40
106.7400000000001
 40
106.7400000000001
 40
107.7400000000001
 40
107.7400000000001
 40
107.7400000000001
 40
165.3500000000002
 40
165.3500000000002
 40
165.3500000000002
 40
165.3500000000002
 10
389.0021994444444
 20
175.8421891666667
 30
0.0
 10
388.247255
 20
169.8484947222222
 30
0.0
 10
386.4868938888889
 20
164.3134113888889
 30
0.0
 10
383.6787827777777
 20
159.0429113888889
 30
0.0
 10
383.3295327777777
 20
158.3867447222222
 30
0.0
 10
382.5851716666666
 20
156.6793002777778
 30
0.0
 10
382.0030883333333
 20
155.2082169444444
 30
0.0
 10
382.0030883333332
 20
160.5151706481481
 30
0.0
 10
382.0030883333332
 20
165.8221243518519
 30
0.0
 10
382.0030883333333
 20
171.1290780555556
 30
0.0
 10
382.8462272222222
 20
174.3852169444444
 30
0.0
 10
383.3083661111111
 20
177.7895225
 30
0.0
 10
383.4071438888889
 20
181.3949113888889
 30
0.0
 10
383.4494772222221
 20
182.6296336111111
 30
0.0
 10
384.7618105555555
 20
186.9652725
 30
0.0
 10
385.1075327777777
 20
189.1101613888889
 30
0.0
 10
385.3968105555555
 20
190.9022725
 30
0.0
 10
387.1430605555555
 20
193.5622169444444
 30
0.0
 10
389.0021994444444
 20
196.1657169444445
 30
0.0
 10
389.0021994444444
 20
189.3912076851852
 30
0.0
 10
389.0021994444444
 20
182.6166984259259
 30
0.0
 10
389.0021994444444
 20
175.8421891666667
 30
0.0
  0
SPLINE
  5
AF
330
1F
100
AcDbEntity
  8
DEFAULT
 62
     1
100
AcDbSpline
210
0.0
220
0.0
230
1.0
 70
    11
 71
     3
 72
    20
 73
    16
 74
     0
 42
0.000000001
 43
0.0000000001
 40
1.0
 40
1.0
 40
1.0
 40
1.0
 40
2.0
 40
2.0
 40
2.0
 40
3.0
 40
3.0
 40
3.0
 40
4.0
 40
4.0
 40
4.0
 40
5.0
 40
5.0
 40
5.0
 40
6.0
 40
6.0
 40
6.0
 40
6.0
 10
390.6849494444444
 20
267.4233002777778
 30
0.0
 10
389.4361161111111
 20
264.8198002777777
 30
0.0
 10
389.8312272222222
 20
262.9571336111111
 30
0.0
 10
390.3674494444444
 20
260.9921613888889
 30
0.0
 10
381.9783938888889
 20
265.0103002777778
 30
0.0
 10
377.9179216666666
 20
260.5335502777777
 30
0.0
 10
378.8316161111111
 20
264.3541336111111
 30
0.0
 10
379.5089494444444
 20
267.1869391666667
 30
0.0
 10
378.5000049999999
 20
270.0797169444444
 30
0.0
 10
378.0837272222222
 20
273.8156336111111
 30
0.0
 10
383.3401161111111
 20
274.1507725
 30
0.0
 10
388.152005
 20
275.2655502777778
 30
0.0
 10
398.8588105555555
 20
275.4525225
 30
0.0
 10
397.1760605555555
 20
270.1643836111111
 30
0.0
 10
392.1807272222221
 20
270.5348002777778
 30
0.0
 10
390.6849494444444
 20
267.4233002777778
 30
0.0
  0
SPLINE
  5
B0
330
1F
100
AcDbEntity
  8
DEFAULT
 62
     1
100
AcDbSpline
210
0.0
220
0.0
230
1.0
 70
    11
 71
     3
 72
    17
 73
    13
 74
     0
 42
0.000000001
 43
0.0000000001
 40
8.940000000000055
 40
8.940000000000055
 40
8.940000000000055
 40
8.940000000000055
 40
9.940000000000055
 40
9.940000000000055
 40
9.940000000000055
 40
17.59000000000015
 40
17.59000000000015
 40
17.59000000000015
 40
18.59000000000015
 40
18.59000000000015
 40
18.59000000000015
 40
27.5300000000002
 40
27.5300000000002
 40
27.5300000000002
 40
27.5300000000002
 10
403.0039494444444
 20
316.4946891666667
 30
0.0
 10
400.5697827777777
 20
316.8051336111111
 30
0.0
 10
398.2343938888889
 20
317.1296891666667
 30
0.0
 10
396.0013105555555
 20
317.4754113888889
 30
0.0
 10
396.0013105555556
 20
318.3749947222222
 30
0.0
 10
396.0013105555556
 20
319.2745780555555
 30
0.0
 10
396.0013105555555
 20
320.1741613888889
 30
0.0
 10
398.262616111111
 20
320.0259947222222
 30
0.0
 10
400.6085883333333
 20
319.8531336111111
 30
0.0
 10
403.0039494444444
 20
319.6485225
 30
0.0
 10
403.0039494444443
 20
318.5972447222222
 30
0.0
 10
403.0039494444443
 20
317.5459669444445
 30
0.0
 10
403.0039494444444
 20
316.4946891666667
 30
0.0
  0
SPLINE
  5
B1
330
1F
100
AcDbEntity
  8
DEFAULT
 62
     1
100
AcDbSpline
210
0.0
220
0.0
230
1.0
 70
    11
 71
     3
 72
    17
 73
    13
 74
     0
 42
0.000000001
 43
0.0000000001
 40
17.07000000000005
 40
17.07000000000005
 40
17.07000000000005
 40
17.07000000000005
 40
18.07000000000005
 40
18.07000000000005
 40
18.07000000000005
 40
35.12
 40
35.12
 40
35.12
 40
36.12
 40
36.12
 40
36.12
 40
53.19000000000005
 40
53.19000000000005
 40
53.19000000000005
 40
53.19000000000005
 10
403.0039494444444
 20
337.7142725
 30
0.0
 10
400.6085883333333
 20
337.9083002777778
 30
0.0
 10
398.262616111111
 20
338.0741058333333
 30
0.0
 10
396.0013105555555
 20
338.2116891666666
 30
0.0
 10
396.0013105555556
 20
340.2166428703704
 30
0.0
 10
396.0013105555556
 20
342.2215965740741
 30
0.0
 10
396.0013105555555
 20
344.2265502777777
 30
0.0
 10
398.2731994444445
 20
344.0889669444445
 30
0.0
 10
400.6156438888888
 20
343.9302169444444
 30
0.0
 10
403.0039494444444
 20
343.7361891666666
 30
0.0
 10
403.0039494444443
 20
341.7288836111111
 30
0.0
 10
403.0039494444443
 20
339.7215780555555
 30
0.0
 10
403.0039494444444
 20
337.7142725
 30
0.0
  0
SPLINE
  5
B2
330
1F
100
AcDbEntity
  8
DEFAULT
 62
     1
100
AcDbSpline
210
0.0
220
0.0
230
1.0
 70
    11
 71
     3
 72
    17
 73
    13
 74
     0
 42
0.000000001
 43
0.0000000001
 40
17.6099999999999
 40
17.6099999999999
 40
17.6099999999999
 40
17.6099999999999
 40
18.6099999999999
 40
18.6099999999999
 40
18.6099999999999
 40
34.89999999999986
 40
34.89999999999986
 40
34.89999999999986
 40
54.74999999999977
 40
54.74999999999977
 40
54.74999999999977
 40
72.35999999999967
 40
72.35999999999967
 40
72.35999999999967
 40
72.35999999999967
 10
403.0039494444444
 20
361.7878280555556
 30
0.0
 10
400.7038383333333
 20
361.9642169444444
 30
0.0
 10
398.3684494444444
 20
362.1194391666666
 30
0.0
 10
396.0013105555555
 20
362.2534947222222
 30
0.0
 10
396.0013105555556
 20
364.1690780555555
 30
0.0
 10
396.0013105555556
 20
366.0846613888889
 30
0.0
 10
396.0013105555555
 20
368.0002447222222
 30
0.0
 10
398.3355235185184
 20
368.0002447222221
 30
0.0
 10
400.6697364814815
 20
368.0002447222221
 30
0.0
 10
403.0039494444444
 20
368.0002447222222
 30
0.0
 10
403.0039494444443
 20
365.9294391666667
 30
0.0
 10
403.0039494444443
 20
363.8586336111111
 30
0.0
 10
403.0039494444444
 20
361.7878280555556
 30
0.0
  0
SPLINE
  5
B3
330
1F
100
AcDbEntity
  8
DEFAULT
 62
     1
100
AcDbSpline
210
0.0
220
0.0
230
1.0
 70
    11
 71
     3
 72
    17
 73
    13
 74
     0
 42
0.000000001
 43
0.0000000001
 40
17.51999999999998
 40
17.51999999999998
 40
17.51999999999998
 40
17.51999999999998
 40
18.51999999999998
 40
18.51999999999998
 40
18.51999999999998
 40
36.71999999999991
 40
36.71999999999991
 40
36.71999999999991
 40
37.71999999999991
 40
37.71999999999991
 40
37.71999999999991
 40
55.2399999999999
 40
55.2399999999999
 40
55.2399999999999
 40
55.2399999999999
 10
410.0030605555556
 20
212.5875225
 30
0.0
 10
412.3560883333333
 20
213.2119391666667
 30
0.0
 10
414.7091161111111
 20
213.9845225
 30
0.0
 10
417.0021716666666
 20
214.9370225
 30
0.0
 10
417.0021716666667
 20
212.7968373148148
 30
0.0
 10
417.0021716666667
 20
210.6566521296296
 30
0.0
 10
417.0021716666666
 20
208.5164669444445
 30
0.0
 10
414.7796716666667
 20
207.7015502777778
 30
0.0
 10
412.4442827777777
 20
206.9995225
 30
0.0
 10
410.0030605555556
 20
206.4068558333333
 30
0.0
 10
410.0030605555556
 20
208.4670780555556
 30
0.0
 10
410.0030605555556
 20
210.5273002777778
 30
0.0
 10
410.0030605555556
 20
212.5875225
 30
0.0
  0
SPLINE
  5
B4
330
1F
100
AcDbEntity
  8
DEFAULT
 62
     1
100
AcDbSpline
210
0.0
220
0.0
230
1.0
 70
    11
 71
     3
 72
    17
 73
    13
 74
     0
 42
0.000000001
 43
0.0000000001
 40
20.03999999999996
 40
20.03999999999996
 40
20.03999999999996
 40
20.03999999999996
 40
31.95000000000005
 40
31.95000000000005
 40
31.95000000000005
 40
32.95000000000005
 40
32.95000000000005
 40
32.95000000000005
 40
33.95000000000005
 40
33.95000000000005
 40
33.95000000000005
 40
53.99000000000001
 40
53.99000000000001
 40
53.99000000000001
 40
53.99000000000001
 10
417.0021716666666
 20
81.99977250000002
 30
0.0
 10
415.6016438888889
 20
81.99977250000002
 30
0.0
 10
414.2011161111111
 20
81.99977250000002
 30
0.0
 10
412.8005883333333
 20
81.99977250000002
 30
0.0
 10
413.5872827777777
 20
83.18863361111114
 30
0.0
 10
414.3422272222221
 20
84.40218916666667
 30
0.0
 10
415.0724772222222
 20
85.63691138888889
 30
0.0
 10
415.7533383333332
 20
86.79049472222222
 30
0.0
 10
416.3953938888889
 20
87.93349472222222
 30
0.0
 10
417.0021716666666
 20
89.06943916666668
 30
0.0
 10
417.0021716666667
 20
86.71288361111112
 30
0.0
 10
417.0021716666667
 20
84.35632805555558
 30
0.0
 10
417.0021716666666
 20
81.99977250000002
 30
0.0
  0
SPLINE
  5
B5
330
1F
100
AcDbEntity
  8
DEFAULT
 62
     1
100
AcDbSpline
210
0.0
220
0.0
230
1.0
 70
    11
 71
     3
 72
    17
 73
    13
 74
     0
 42
0.000000001
 43
0.0000000001
 40
17.69999999999993
 40
17.69999999999993
 40
17.69999999999993
 40
17.69999999999993
 40
18.69999999999993
 40
18.69999999999993
 40
18.69999999999993
 40
36.9899999999999
 40
36.9899999999999
 40
36.9899999999999
 40
37.9899999999999
 40
37.9899999999999
 40
37.9899999999999
 40
55.68999999999983
 40
55.68999999999983
 40
55.68999999999983
 40
55.68999999999983
 10
417.0021716666666
 20
195.8870225
 30
0.0
 10
419.4257549999999
 20
196.6172725
 30
0.0
 10
421.7611438888889
 20
197.4533558333333
 30
0.0
 10
424.0012827777777
 20
198.3917447222222
 30
0.0
 10
424.0012827777777
 20
196.2409762037037
 30
0.0
 10
424.0012827777777
 20
194.0902076851852
 30
0.0
 10
424.0012827777777
 20
191.9394391666667
 30
0.0
 10
421.7435049999999
 20
191.0821891666667
 30
0.0
 10
419.4116438888888
 20
190.3131336111111
 30
0.0
 10
417.0021716666666
 20
189.6428558333334
 30
0.0
 10
417.0021716666667
 20
191.7242447222222
 30
0.0
 10
417.0021716666667
 20
193.8056336111111
 30
0.0
 10
417.0021716666666
 20
195.8870225
 30
0.0
  0
SPLINE
  5
B6
330
1F
100
AcDbEntity
  8
DEFAULT
 62
     1
100
AcDbSpline
210
0.0
220
0.0
230
1.0
 70
    11
 71
     3
 72
    29
 73
    25
 74
     0
 42
0.000000001
 43
0.0000000001
 40
57.69
 40
57.69
 40
57.69
 40
57.69
 40
58.69
 40
58.69
 40
58.69
 40
59.69
 40
59.69
 40
59.69
 40
60.69
 40
60.69
 40
60.69
 40
61.69
 40
61.69
 40
61.69
 40
176.36
 40
176.36
 40
176.36
 40
177.36
 40
177.36
 40
177.36
 40
178.36
 40
178.36
 40
178.36
 40
236.05
 40
236.05
 40
236.05
 40
236.05
 10
431.0039216666665
 20
148.5971613888889
 30
0.0
 10
430.2948383333333
 20
146.5369391666667
 30
0.0
 10
429.6492549999999
 20
144.7942169444445
 30
0.0
 10
429.1447827777777
 20
143.4854113888889
 30
0.0
 10
429.0565883333333
 20
139.9223558333333
 30
0.0
 10
428.9225327777777
 20
137.4282169444445
 30
0.0
 10
428.7073383333333
 20
135.2903836111111
 30
0.0
 10
428.6755883333333
 20
134.9728836111111
 30
0.0
 10
428.6085605555555
 20
134.3131891666667
 30
0.0
 10
427.0739772222222
 20
122.9466891666667
 30
0.0
 10
426.6188938888889
 20
118.4769947222222
 30
0.0
 10
425.8216161111111
 20
112.8254947222222
 30
0.0
 10
424.0012827777777
 20
106.3978836111111
 30
0.0
 10
424.0012827777777
 20
119.8822262037037
 30
0.0
 10
424.0012827777777
 20
133.3665687962963
 30
0.0
 10
424.0012827777777
 20
146.8509113888889
 30
0.0
 10
426.3437272222222
 20
153.1091891666667
 30
0.0
 10
428.8308105555555
 20
161.1454669444445
 30
0.0
 10
430.2136994444444
 20
168.6631613888889
 30
0.0
 10
430.4782827777777
 20
168.7584113888889
 30
0.0
 10
430.7428661111111
 20
168.8501336111111
 30
0.0
 10
431.0039216666665
 20
168.9489113888889
 30
0.0
 10
431.0039216666666
 20
162.1649947222222
 30
0.0
 10
431.0039216666666
 20
155.3810780555555
 30
0.0
 10
431.0039216666665
 20
148.5971613888889
 30
0.0
  0
SPLINE
  5
B7
330
1F
100
AcDbEntity
  8
DEFAULT
 62
     1
100
AcDbSpline
210
0.0
220
0.0
230
1.0
 70
    11
 71
     3
 72
    17
 73
    13
 74
     0
 42
0.000000001
 43
0.0000000001
 40
18.56000000000006
 40
18.56000000000006
 40
18.56000000000006
 40
18.56000000000006
 40
19.56000000000006
 40
19.56000000000006
 40
19.56000000000006
 40
37.50000000000006
 40
37.50000000000006
 40
37.50000000000006
 40
38.50000000000006
 40
38.50000000000006
 40
38.50000000000006
 40
57.06000000000012
 40
57.06000000000012
 40
57.06000000000012
 40
57.06000000000012
 10
431.0039216666665
 20
181.8288280555555
 30
0.0
 10
428.7355605555555
 20
180.8728002777777
 30
0.0
 10
426.4001716666666
 20
180.0049669444444
 30
0.0
 10
424.0012827777777
 20
179.2253280555556
 30
0.0
 10
424.0012827777777
 20
181.3349391666667
 30
0.0
 10
424.0012827777777
 20
183.4445502777778
 30
0.0
 10
424.0012827777777
 20
185.5541613888889
 30
0.0
 10
426.4107549999999
 20
186.4008280555556
 30
0.0
 10
428.7496716666666
 20
187.3427447222222
 30
0.0
 10
431.0039216666665
 20
188.3763836111111
 30
0.0
 10
431.0039216666666
 20
186.1938650925926
 30
0.0
 10
431.0039216666666
 20
184.0113465740741
 30
0.0
 10
431.0039216666665
 20
181.8288280555555
 30
0.0
  0
SPLINE
  5
B8
330
1F
100
AcDbEntity
  8
DEFAULT
 62
     1
100
AcDbSpline
210
0.0
220
0.0
230
1.0
 70
    11
 71
     3
 72
    29
 73
    25
 74
     0
 42
0.000000001
 43
0.0000000001
 40
1.0
 40
1.0
 40
1.0
 40
1.0
 40
28.38
 40
28.38
 40
28.38
 40
29.38
 40
29.38
 40
29.38
 40
30.38
 40
30.38
 40
30.38
 40
31.38
 40
31.38
 40
31.38
 40
32.38
 40
32.38
 40
32.38
 40
94.48000000000002
 40
94.48000000000002
 40
94.48000000000002
 40
95.48000000000002
 40
95.48000000000002
 40
95.48000000000002
 40
96.48000000000002
 40
96.48000000000002
 40
96.48000000000002
 40
96.48000000000002
 10
431.0039216666665
 20
224.4549669444444
 30
0.0
 10
431.0039216666666
 20
227.6746521296296
 30
0.0
 10
431.0039216666666
 20
230.8943373148148
 30
0.0
 10
431.0039216666665
 20
234.1140225
 30
0.0
 10
434.1542272222222
 20
238.8341891666666
 30
0.0
 10
437.0752272222221
 20
245.6569113888889
 30
0.0
 10
434.4435049999999
 20
253.7002447222222
 30
0.0
 10
434.1683383333332
 20
254.5398558333333
 30
0.0
 10
433.8684772222222
 20
255.3300780555555
 30
0.0
 10
433.5509772222221
 20
256.0673836111111
 30
0.0
 10
434.2776994444444
 20
256.0462169444444
 30
0.0
 10
434.7856994444443
 20
256.0321058333333
 30
0.0
 10
435.0890883333333
 20
256.0321058333333
 30
0.0
 10
436.0733383333333
 20
256.0321058333333
 30
0.0
 10
437.047005
 20
256.0391613888889
 30
0.0
 10
438.0030327777777
 20
256.0568002777778
 30
0.0
 10
438.0030327777777
 20
248.7543002777778
 30
0.0
 10
438.0030327777777
 20
241.4518002777778
 30
0.0
 10
438.0030327777777
 20
234.1493002777778
 30
0.0
 10
435.8616716666667
 20
230.0923558333333
 30
0.0
 10
433.2405327777777
 20
227.0373002777778
 30
0.0
 10
431.6988938888888
 20
225.2381336111111
 30
0.0
 10
431.4695883333333
 20
224.9735502777778
 30
0.0
 10
431.2402827777777
 20
224.7124947222222
 30
0.0
 10
431.0039216666665
 20
224.4549669444444
 30
0.0
  0
SPLINE
  5
B9
330
1F
100
AcDbEntity
  8
DEFAULT
 62
     1
100
AcDbSpline
210
0.0
220
0.0
230
1.0
 70
    11
 71
     3
 72
    17
 73
    13
 74
     0
 42
0.000000001
 43
0.0000000001
 40
24.21000000000004
 40
24.21000000000004
 40
24.21000000000004
 40
24.21000000000004
 40
25.21000000000004
 40
25.21000000000004
 40
25.21000000000004
 40
46.18000000000006
 40
46.18000000000006
 40
46.18000000000006
 40
47.18000000000006
 40
47.18000000000006
 40
47.18000000000006
 40
71.3900000000001
 40
71.3900000000001
 40
71.3900000000001
 40
71.3900000000001
 10
445.0021438888888
 20
204.5688836111111
 30
0.0
 10
442.8360883333333
 20
202.6003836111111
 30
0.0
 10
440.4971716666666
 20
200.7765225
 30
0.0
 10
438.0030327777777
 20
199.1114113888889
 30
0.0
 10
438.0030327777777
 20
201.5773280555555
 30
0.0
 10
438.0030327777777
 20
204.0432447222222
 30
0.0
 10
438.0030327777777
 20
206.5091613888889
 30
0.0
 10
440.5677272222222
 20
208.5129391666667
 30
0.0
 10
442.9101716666665
 20
210.7178002777778
 30
0.0
 10
445.0021438888888
 20
213.1096336111111
 30
0.0
 10
445.0021438888888
 20
210.2627169444445
 30
0.0
 10
445.0021438888888
 20
207.4158002777778
 30
0.0
 10
445.0021438888888
 20
204.5688836111111
 30
0.0
  0
SPLINE
  5
BA
330
1F
100
AcDbEntity
  8
DEFAULT
 62
     1
100
AcDbSpline
210
0.0
220
0.0
230
1.0
 70
    11
 71
     3
 72
    20
 73
    16
 74
     0
 42
0.000000001
 43
0.0000000001
 40
1.0
 40
1.0
 40
1.0
 40
1.0
 40
2.0
 40
2.0
 40
2.0
 40
3.0
 40
3.0
 40
3.0
 40
51.66146113712569
 40
51.66146113712569
 40
51.66146113712569
 40
52.66146113712569
 40
52.66146113712569
 40
52.66146113712569
 40
53.66146113712569
 40
53.66146113712569
 40
53.66146113712569
 40
53.66146113712569
 10
449.2919216666666
 20
331.5971058333333
 30
0.0
 10
450.7806438888888
 20
325.8962169444444
 30
0.0
 10
449.9128105555555
 20
321.9027725
 30
0.0
 10
447.7679216666667
 20
319.1546336111111
 30
0.0
 10
447.0059216666666
 20
323.5431891666667
 30
0.0
 10
447.1364494444443
 20
331.6853002777778
 30
0.0
 10
447.0023938888888
 20
332.2109391666667
 30
0.0
 10
446.3356438888888
 20
337.8941891666666
 30
0.0
 10
445.6688938888888
 20
343.5774391666666
 30
0.0
 10
445.0021438888888
 20
349.2606891666666
 30
0.0
 10
446.332116111111
 20
352.3686613888889
 30
0.0
 10
448.7486438888889
 20
354.7252169444444
 30
0.0
 10
451.7119772222221
 20
355.9458280555555
 30
0.0
 10
446.9388938888888
 20
353.6421891666666
 30
0.0
 10
445.7076994444444
 20
345.3236891666667
 30
0.0
 10
449.2919216666666
 20
331.5971058333333
 30
0.0
  0
SPLINE
  5
BB
330
1F
100
AcDbEntity
  8
DEFAULT
 62
     1
100
AcDbSpline
210
0.0
220
0.0
230
1.0
 70
    11
 71
     3
 72
    29
 73
    25
 74
     0
 42
0.000000001
 43
0.0000000001
 40
113.4400000000001
 40
113.4400000000001
 40
113.4400000000001
 40
113.4400000000001
 40
114.4400000000001
 40
114.4400000000001
 40
114.4400000000001
 40
118.73
 40
118.73
 40
118.73
 40
156.1799999999999
 40
156.1799999999999
 40
156.1799999999999
 40
157.1799999999999
 40
157.1799999999999
 40
157.1799999999999
 40
158.1799999999999
 40
158.1799999999999
 40
158.1799999999999
 40
159.1799999999999
 40
159.1799999999999
 40
159.1799999999999
 40
160.1799999999999
 40
160.1799999999999
 40
160.1799999999999
 40
273.62
 40
273.62
 40
273.62
 40
273.62
 10
459.0038938888889
 20
97.76188361111112
 30
0.0
 10
457.6668661111111
 20
92.85121694444446
 30
0.0
 10
455.8959216666667
 20
87.56660583333336
 30
0.0
 10
453.5146716666666
 20
81.99977250000002
 30
0.0
 10
453.0101994444444
 20
81.99977250000002
 30
0.0
 10
452.5057272222222
 20
81.99977250000002
 30
0.0
 10
452.001255
 20
81.99977250000002
 30
0.0
 10
452.001255
 20
86.4036150925926
 30
0.0
 10
452.001255
 20
90.80745768518518
 30
0.0
 10
452.001255
 20
95.21130027777778
 30
0.0
 10
454.9751716666666
 20
104.7221891666667
 30
0.0
 10
456.1957827777777
 20
112.9948280555555
 30
0.0
 10
456.8695883333333
 20
119.3942169444445
 30
0.0
 10
458.4182827777777
 20
130.8841891666667
 30
0.0
 10
458.4782549999999
 20
131.5015502777778
 30
0.0
 10
458.5629216666666
 20
132.3517447222222
 30
0.0
 10
458.7251994444444
 20
133.9815780555555
 30
0.0
 10
458.8521994444444
 20
135.6819669444444
 30
0.0
 10
458.9509772222221
 20
137.6293002777778
 30
0.0
 10
458.9686161111111
 20
137.6786891666667
 30
0.0
 10
458.986255
 20
137.7316058333333
 30
0.0
 10
459.0038938888889
 20
137.7809947222222
 30
0.0
 10
459.0038938888889
 20
124.4412910185185
 30
0.0
 10
459.0038938888889
 20
111.1015873148148
 30
0.0
 10
459.0038938888889
 20
97.76188361111112
 30
0.0
  0
SPLINE
  5
BC
330
1F
100
AcDbEntity
  8
DEFAULT
 62
     1
100
AcDbSpline
210
0.0
220
0.0
230
1.0
 70
    11
 71
     3
 72
    17
 73
    13
 74
     0
 42
0.000000001
 43
0.0000000001
 40
21.74000000000007
 40
21.74000000000007
 40
21.74000000000007
 40
21.74000000000007
 40
22.74000000000007
 40
22.74000000000007
 40
22.74000000000007
 40
43.01000000000005
 40
43.01000000000005
 40
43.01000000000005
 40
44.01000000000005
 40
44.01000000000005
 40
44.01000000000005
 40
65.75000000000011
 40
65.75000000000011
 40
65.75000000000011
 40
65.75000000000011
 10
459.0038938888889
 20
177.2850502777778
 30
0.0
 10
456.7602272222222
 20
175.5917169444444
 30
0.0
 10
454.4248383333333
 20
173.9901058333333
 30
0.0
 10
452.001255
 20
172.4837447222222
 30
0.0
 10
452.001255
 20
174.8673465740741
 30
0.0
 10
452.001255
 20
177.2509484259259
 30
0.0
 10
452.001255
 20
179.6345502777778
 30
0.0
 10
454.4460049999999
 20
181.2961336111111
 30
0.0
 10
456.7813938888888
 20
183.0706058333333
 30
0.0
 10
459.0038938888889
 20
184.9544391666667
 30
0.0
 10
459.0038938888889
 20
182.3979762037037
 30
0.0
 10
459.0038938888889
 20
179.8415132407407
 30
0.0
 10
459.0038938888889
 20
177.2850502777778
 30
0.0
  0
SPLINE
  5
BD
330
1F
100
AcDbEntity
  8
DEFAULT
 62
     1
100
AcDbSpline
210
0.0
220
0.0
230
1.0
 70
    11
 71
     3
 72
    20
 73
    16
 74
     0
 42
0.000000001
 43
0.0000000001
 40
17.2299999999999
 40
17.2299999999999
 40
17.2299999999999
 40
17.2299999999999
 40
18.2299999999999
 40
18.2299999999999
 40
18.2299999999999
 40
19.2299999999999
 40
19.2299999999999
 40
19.2299999999999
 40
41.64999999999986
 40
41.64999999999986
 40
41.64999999999986
 40
42.64999999999986
 40
42.64999999999986
 40
42.64999999999986
 40
59.87999999999977
 40
59.87999999999977
 40
59.87999999999977
 40
59.87999999999977
 10
459.0038938888889
 20
239.6949669444444
 30
0.0
 10
456.9013383333333
 20
239.3704113888889
 30
0.0
 10
454.7352827777777
 20
239.0917169444444
 30
0.0
 10
452.5021994444444
 20
238.8624113888889
 30
0.0
 10
452.350505
 20
238.2062447222222
 30
0.0
 10
452.1811716666666
 20
237.5641891666666
 30
0.0
 10
452.001255
 20
236.9327169444445
 30
0.0
 10
452.001255
 20
239.5691428703704
 30
0.0
 10
452.001255
 20
242.2055687962963
 30
0.0
 10
452.001255
 20
244.8419947222222
 30
0.0
 10
454.4213105555555
 20
245.0959947222222
 30
0.0
 10
456.7531716666667
 20
245.4029113888889
 30
0.0
 10
459.0038938888889
 20
245.7733280555555
 30
0.0
 10
459.0038938888889
 20
243.7472076851852
 30
0.0
 10
459.0038938888889
 20
241.7210873148148
 30
0.0
 10
459.0038938888889
 20
239.6949669444444
 30
0.0
  0
SPLINE
  5
BE
330
1F
100
AcDbEntity
  8
DEFAULT
 62
     1
100
AcDbSpline
210
0.0
220
0.0
230
1.0
 70
    11
 71
     3
 72
    17
 73
    13
 74
     0
 42
0.000000001
 43
0.0000000001
 40
17.55000000000007
 40
17.55000000000007
 40
17.55000000000007
 40
17.55000000000007
 40
18.55000000000007
 40
18.55000000000007
 40
18.55000000000007
 40
35.79000000000008
 40
35.79000000000008
 40
35.79000000000008
 40
36.79000000000008
 40
36.79000000000008
 40
36.79000000000008
 40
54.34000000000015
 40
54.34000000000015
 40
54.34000000000015
 40
54.34000000000015
 10
466.0030049999999
 20
253.3615780555555
 30
0.0
 10
463.7840327777777
 20
252.7830225
 30
0.0
 10
461.4521716666666
 20
252.2820780555556
 30
0.0
 10
459.0038938888889
 20
251.8552169444444
 30
0.0
 10
459.0038938888889
 20
253.8825132407407
 30
0.0
 10
459.0038938888889
 20
255.909809537037
 30
0.0
 10
459.0038938888889
 20
257.9371058333333
 30
0.0
 10
461.4733383333333
 20
258.3921891666667
 30
0.0
 10
463.8051994444443
 20
258.9319391666667
 30
0.0
 10
466.0030049999999
 20
259.5528280555556
 30
0.0
 10
466.0030049999999
 20
257.4890780555555
 30
0.0
 10
466.0030049999999
 20
255.4253280555555
 30
0.0
 10
466.0030049999999
 20
253.3615780555555
 30
0.0
  0
SPLINE
  5
BF
330
1F
100
AcDbEntity
  8
DEFAULT
 62
     1
100
AcDbSpline
210
0.0
220
0.0
230
1.0
 70
    11
 71
     3
 72
    17
 73
    13
 74
     0
 42
0.000000001
 43
0.0000000001
 40
2.740000000000009
 40
2.740000000000009
 40
2.740000000000009
 40
2.740000000000009
 40
22.58000000000015
 40
22.58000000000015
 40
22.58000000000015
 40
37.68000000000006
 40
37.68000000000006
 40
37.68000000000006
 40
38.68000000000006
 40
38.68000000000006
 40
38.68000000000006
 40
41.42000000000007
 40
41.42000000000007
 40
41.42000000000007
 40
41.42000000000007
 10
466.0030049999999
 20
368.0002447222222
 30
0.0
 10
468.336042037037
 20
368.0002447222221
 30
0.0
 10
470.669079074074
 20
368.0002447222221
 30
0.0
 10
473.0021161111111
 20
368.0002447222221
 30
0.0
 10
473.0021161111111
 20
366.224596574074
 30
0.0
 10
473.0021161111111
 20
364.4489484259259
 30
0.0
 10
473.0021161111111
 20
362.6733002777778
 30
0.0
 10
470.9524772222222
 20
364.4230780555555
 30
0.0
 10
468.6347272222221
 20
365.9364947222222
 30
0.0
 10
466.0030049999999
 20
367.0336336111111
 30
0.0
 10
466.0030049999999
 20
367.3558373148148
 30
0.0
 10
466.0030049999999
 20
367.6780410185185
 30
0.0
 10
466.0030049999999
 20
368.0002447222222
 30
0.0
  0
SPLINE
  5
C0
330
1F
100
AcDbEntity
  8
DEFAULT
 62
     1
100
AcDbSpline
210
0.0
220
0.0
230
1.0
 70
    11
 71
     3
 72
    26
 73
    22
 74
     0
 42
0.000000001
 43
0.0000000001
 40
20.5200000000001
 40
20.5200000000001
 40
20.5200000000001
 40
20.5200000000001
 40
21.5200000000001
 40
21.5200000000001
 40
21.5200000000001
 40
22.5200000000001
 40
22.5200000000001
 40
22.5200000000001
 40
23.5200000000001
 40
23.5200000000001
 40
23.5200000000001
 40
24.5200000000001
 40
24.5200000000001
 40
24.5200000000001
 40
112.2500000000001
 40
112.2500000000001
 40
112.2500000000001
 40
113.2500000000001
 40
113.2500000000001
 40
113.2500000000001
 40
133.7700000000002
 40
133.7700000000002
 40
133.7700000000002
 40
133.7700000000002
 10
480.0012272222222
 20
133.4524113888889
 30
0.0
 10
478.8582272222221
 20
132.7009947222222
 30
0.0
 10
477.7046438888888
 20
131.9672169444445
 30
0.0
 10
476.5404772222222
 20
131.2510780555556
 30
0.0
 10
476.5193105555555
 20
131.0288280555556
 30
0.0
 10
476.4981438888888
 20
130.8101058333333
 30
0.0
 10
476.4769772222222
 20
130.5913836111111
 30
0.0
 10
476.3640883333333
 20
129.4483836111111
 30
0.0
 10
476.3005883333333
 20
128.8169113888889
 30
0.0
 10
474.7413105555555
 20
117.2458002777778
 30
0.0
 10
474.3638383333333
 20
113.7039113888889
 30
0.0
 10
473.8381994444443
 20
109.6504947222222
 30
0.0
 10
473.0021161111111
 20
105.1702169444444
 30
0.0
 10
473.0021161111111
 20
115.4866150925926
 30
0.0
 10
473.0021161111111
 20
125.8030132407407
 30
0.0
 10
473.0021161111111
 20
136.1194113888889
 30
0.0
 10
475.3833661111111
 20
137.5763836111111
 30
0.0
 10
477.7222827777777
 20
139.1003836111111
 30
0.0
 10
480.0012272222222
 20
140.6914113888889
 30
0.0
 10
480.0012272222222
 20
138.2784113888889
 30
0.0
 10
480.0012272222222
 20
135.8654113888889
 30
0.0
 10
480.0012272222222
 20
133.4524113888889
 30
0.0
  0
SPLINE
  5
C1
330
1F
100
AcDbEntity
  8
DEFAULT
 62
     1
100
AcDbSpline
210
0.0
220
0.0
230
1.0
 70
    11
 71
     3
 72
    17
 73
    13
 74
     0
 42
0.000000001
 43
0.0000000001
 40
22.15999999999997
 40
22.15999999999997
 40
22.15999999999997
 40
22.15999999999997
 40
23.15999999999997
 40
23.15999999999997
 40
23.15999999999997
 40
44.08999999999997
 40
44.08999999999997
 40
44.08999999999997
 40
45.08999999999997
 40
45.08999999999997
 40
45.08999999999997
 40
67.24999999999994
 40
67.24999999999994
 40
67.24999999999994
 40
67.24999999999994
 10
480.0012272222222
 20
155.6562447222222
 30
0.0
 10
477.7434494444444
 20
153.8429669444444
 30
0.0
 10
475.4080605555555
 20
152.0967169444444
 30
0.0
 10
473.0021161111111
 20
150.4316058333334
 30
0.0
 10
473.0021161111111
 20
152.8928187962963
 30
0.0
 10
473.0021161111111
 20
155.3540317592592
 30
0.0
 10
473.0021161111111
 20
157.8152447222222
 30
0.0
 10
475.4221716666666
 20
159.6214669444444
 30
0.0
 10
477.7610883333333
 20
161.5088280555555
 30
0.0
 10
480.0012272222222
 20
163.4738002777778
 30
0.0
 10
480.0012272222222
 20
160.8679484259259
 30
0.0
 10
480.0012272222222
 20
158.2620965740741
 30
0.0
 10
480.0012272222222
 20
155.6562447222222
 30
0.0
  0
SPLINE
  5
C2
330
1F
100
AcDbEntity
  8
DEFAULT
 62
     1
100
AcDbSpline
210
0.0
220
0.0
230
1.0
 70
    11
 71
     3
 72
    23
 73
    19
 74
     0
 42
0.000000001
 43
0.0000000001
 40
27.22000000000003
 40
27.22000000000003
 40
27.22000000000003
 40
27.22000000000003
 40
28.22000000000003
 40
28.22000000000003
 40
28.22000000000003
 40
29.22000000000003
 40
29.22000000000003
 40
29.22000000000003
 40
53.63
 40
53.63
 40
53.63
 40
54.63
 40
54.63
 40
54.63
 40
55.63
 40
55.63
 40
55.63
 40
82.85000000000002
 40
82.85000000000002
 40
82.85000000000002
 40
82.85000000000002
 10
487.003866111111
 20
179.1265502777778
 30
0.0
 10
486.7463383333333
 20
178.8266891666667
 30
0.0
 10
486.5311438888888
 20
178.5726891666667
 30
0.0
 10
486.3582827777777
 20
178.3716058333333
 30
0.0
 10
484.3615605555555
 20
176.0432725
 30
0.0
 10
482.2378383333332
 20
173.7890225
 30
0.0
 10
480.0012272222222
 20
171.6229669444444
 30
0.0
 10
480.0012272222222
 20
174.4934021296296
 30
0.0
 10
480.0012272222222
 20
177.3638373148148
 30
0.0
 10
480.0012272222222
 20
180.2342725
 30
0.0
 10
480.6115327777777
 20
180.9080780555556
 30
0.0
 10
481.2147827777777
 20
181.5889391666667
 30
0.0
 10
481.8039216666666
 20
182.2768558333333
 30
0.0
 10
482.6964494444444
 20
183.3246058333333
 30
0.0
 10
484.6473105555555
 20
185.5929669444444
 30
0.0
 10
487.003866111111
 20
188.7291613888889
 30
0.0
 10
487.003866111111
 20
185.5282910185185
 30
0.0
 10
487.003866111111
 20
182.3274206481481
 30
0.0
 10
487.003866111111
 20
179.1265502777778
 30
0.0
  0
SPLINE
  5
C3
330
1F
100
AcDbEntity
  8
DEFAULT
 62
     1
100
AcDbSpline
210
0.0
220
0.0
230
1.0
 70
    11
 71
     3
 72
    17
 73
    13
 74
     0
 42
0.000000001
 43
0.0000000001
 40
18.40999999999997
 40
18.40999999999997
 40
18.40999999999997
 40
18.40999999999997
 40
19.40999999999997
 40
19.40999999999997
 40
19.40999999999997
 40
37.27999999999986
 40
37.27999999999986
 40
37.27999999999986
 40
38.27999999999986
 40
38.27999999999986
 40
38.27999999999986
 40
56.68999999999983
 40
56.68999999999983
 40
56.68999999999983
 40
56.68999999999983
 10
487.003866111111
 20
222.3277169444445
 30
0.0
 10
484.7425605555555
 20
221.4457725
 30
0.0
 10
482.4106994444443
 20
220.6343836111111
 30
0.0
 10
480.0012272222222
 20
219.8935502777778
 30
0.0
 10
480.0012272222222
 20
221.9949299074074
 30
0.0
 10
480.0012272222222
 20
224.096309537037
 30
0.0
 10
480.0012272222222
 20
226.1976891666666
 30
0.0
 10
482.4212827777777
 20
226.9914391666667
 30
0.0
 10
484.7531438888888
 20
227.8628002777778
 30
0.0
 10
487.003866111111
 20
228.8223558333333
 30
0.0
 10
487.003866111111
 20
226.6574762037037
 30
0.0
 10
487.003866111111
 20
224.4925965740741
 30
0.0
 10
487.003866111111
 20
222.3277169444445
 30
0.0
  0
SPLINE
  5
C4
330
1F
100
AcDbEntity
  8
DEFAULT
 62
     1
100
AcDbSpline
210
0.0
220
0.0
230
1.0
 70
    11
 71
     3
 72
    17
 73
    13
 74
     0
 42
0.000000001
 43
0.0000000001
 40
19.42999999999995
 40
19.42999999999995
 40
19.42999999999995
 40
19.42999999999995
 40
20.42999999999995
 40
20.42999999999995
 40
20.42999999999995
 40
38.80999999999995
 40
38.80999999999995
 40
38.80999999999995
 40
39.80999999999995
 40
39.80999999999995
 40
39.80999999999995
 40
59.2399999999999
 40
59.2399999999999
 40
59.2399999999999
 40
59.2399999999999
 10
487.003866111111
 20
242.0938558333333
 30
0.0
 10
484.7848938888888
 20
240.9402725
 30
0.0
 10
482.4495049999999
 20
239.8960502777778
 30
0.0
 10
480.0012272222222
 20
238.9506058333333
 30
0.0
 10
480.0012272222222
 20
241.1119576851852
 30
0.0
 10
480.0012272222222
 20
243.273309537037
 30
0.0
 10
480.0012272222222
 20
245.4346613888889
 30
0.0
 10
482.4777272222221
 20
246.4929947222222
 30
0.0
 10
484.8095883333333
 20
247.6606891666667
 30
0.0
 10
487.003866111111
 20
248.9483280555555
 30
0.0
 10
487.003866111111
 20
246.6635039814815
 30
0.0
 10
487.003866111111
 20
244.3786799074074
 30
0.0
 10
487.003866111111
 20
242.0938558333333
 30
0.0
  0
SPLINE
  5
C5
330
1F
100
AcDbEntity
  8
DEFAULT
 62
     1
100
AcDbSpline
210
0.0
220
0.0
230
1.0
 70
    11
 71
     3
 72
    20
 73
    16
 74
     0
 42
0.000000001
 43
0.0000000001
 40
43.43000000000006
 40
43.43000000000006
 40
43.43000000000006
 40
43.43000000000006
 40
44.43000000000006
 40
44.43000000000006
 40
44.43000000000006
 40
45.43000000000006
 40
45.43000000000006
 40
45.43000000000006
 40
82.09000000000003
 40
82.09000000000003
 40
82.09000000000003
 40
83.09000000000003
 40
83.09000000000003
 40
83.09000000000003
 40
126.5200000000001
 40
126.5200000000001
 40
126.5200000000001
 40
126.5200000000001
 10
487.003866111111
 20
314.1945780555556
 30
0.0
 10
486.3159494444444
 20
316.1383836111111
 30
0.0
 10
485.5186716666666
 20
318.1598002777778
 30
0.0
 10
484.6049772222221
 20
320.2694113888889
 30
0.0
 10
483.1691716666666
 20
323.5855225
 30
0.0
 10
481.606366111111
 20
326.9686613888889
 30
0.0
 10
480.0012272222222
 20
330.2459669444444
 30
0.0
 10
480.0012272222222
 20
334.5569113888889
 30
0.0
 10
480.0012272222222
 20
338.8678558333333
 30
0.0
 10
480.0012272222222
 20
343.1788002777777
 30
0.0
 10
482.3119216666666
 20
339.0654113888889
 30
0.0
 10
484.7319772222222
 20
334.3417169444444
 30
0.0
 10
487.003866111111
 20
329.5157169444444
 30
0.0
 10
487.003866111111
 20
324.4086706481481
 30
0.0
 10
487.003866111111
 20
319.3016243518518
 30
0.0
 10
487.003866111111
 20
314.1945780555556
 30
0.0
  0
SPLINE
  5
C6
330
1F
100
AcDbEntity
  8
DEFAULT
 62
     1
100
AcDbSpline
210
0.0
220
0.0
230
1.0
 70
    11
 71
     3
 72
    17
 73
    13
 74
     0
 42
0.000000001
 43
0.0000000001
 40
1.0
 40
1.0
 40
1.0
 40
1.0
 40
22.92999999999995
 40
22.92999999999995
 40
22.92999999999995
 40
23.92999999999995
 40
23.92999999999995
 40
23.92999999999995
 40
47.15999999999991
 40
47.15999999999991
 40
47.15999999999991
 40
48.15999999999991
 40
48.15999999999991
 40
48.15999999999991
 40
48.15999999999991
 10
494.0029772222222
 20
136.1546891666667
 30
0.0
 10
494.0029772222222
 20
138.7334947222222
 30
0.0
 10
494.0029772222222
 20
141.3123002777778
 30
0.0
 10
494.0029772222222
 20
143.8911058333333
 30
0.0
 10
496.4230327777777
 20
145.9336891666667
 30
0.0
 10
498.7619494444444
 20
148.0468280555556
 30
0.0
 10
501.0020883333332
 20
150.2234669444444
 30
0.0
 10
501.0020883333332
 20
147.4917910185185
 30
0.0
 10
501.0020883333332
 20
144.7601150925926
 30
0.0
 10
501.0020883333332
 20
142.0284391666667
 30
0.0
 10
498.7443105555555
 20
140.0105502777778
 30
0.0
 10
496.4089216666666
 20
138.0455780555556
 30
0.0
 10
494.0029772222222
 20
136.1546891666667
 30
0.0
  0
SPLINE
  5
C7
330
1F
100
AcDbEntity
  8
DEFAULT
 62
     1
100
AcDbSpline
210
0.0
220
0.0
230
1.0
 70
    11
 71
     3
 72
    23
 73
    19
 74
     0
 42
0.000000001
 43
0.0000000001
 40
21.78999999999996
 40
21.78999999999996
 40
21.78999999999996
 40
21.78999999999996
 40
22.78999999999996
 40
22.78999999999996
 40
22.78999999999996
 40
23.92991227732661
 40
23.92991227732661
 40
23.92991227732661
 40
24.92991227732661
 40
24.92991227732661
 40
24.92991227732661
 40
99.87991227732654
 40
99.87991227732654
 40
99.87991227732654
 40
100.8799122773265
 40
100.8799122773265
 40
100.8799122773265
 40
122.6699122773265
 40
122.6699122773265
 40
122.6699122773265
 40
122.6699122773265
 10
508.0011994444444
 20
116.6425502777778
 30
0.0
 10
506.8723105555555
 20
115.7570780555556
 30
0.0
 10
505.7293105555555
 20
114.8892447222222
 30
0.0
 10
504.5792549999999
 20
114.0355225
 30
0.0
 10
504.5616161111111
 20
113.9026428703704
 30
0.0
 10
504.5439772222222
 20
113.7697632407408
 30
0.0
 10
504.5263383333333
 20
113.6368836111111
 30
0.0
 10
503.8842827777777
 20
107.6749391666667
 30
0.0
 10
502.8859216666667
 20
100.5170780555555
 30
0.0
 10
501.0020883333332
 20
92.41377250000002
 30
0.0
 10
501.0020883333332
 20
101.2273373148148
 30
0.0
 10
501.0020883333332
 20
110.0409021296296
 30
0.0
 10
501.0020883333332
 20
118.8544669444444
 30
0.0
 10
503.3833383333333
 20
120.6183558333333
 30
0.0
 10
505.722255
 20
122.4492725
 30
0.0
 10
508.0011994444444
 20
124.3295780555555
 30
0.0
 10
508.0011994444444
 20
121.767235462963
 30
0.0
 10
508.0011994444444
 20
119.2048928703704
 30
0.0
 10
508.0011994444444
 20
116.6425502777778
 30
0.0
  0
SPLINE
  5
C8
330
1F
100
AcDbEntity
  8
DEFAULT
 62
     1
100
AcDbSpline
210
0.0
220
0.0
230
1.0
 70
    11
 71
     3
 72
    17
 73
    13
 74
     0
 42
0.000000001
 43
0.0000000001
 40
18.71999999999991
 40
18.71999999999991
 40
18.71999999999991
 40
18.71999999999991
 40
19.71999999999991
 40
19.71999999999991
 40
19.71999999999991
 40
37.9799999999999
 40
37.9799999999999
 40
37.9799999999999
 40
38.9799999999999
 40
38.9799999999999
 40
38.9799999999999
 40
57.69999999999982
 40
57.69999999999982
 40
57.69999999999982
 40
57.69999999999982
 10
508.0011994444444
 20
185.5541613888889
 30
0.0
 10
505.7187272222222
 20
184.5416891666667
 30
0.0
 10
503.386866111111
 20
183.5891891666666
 30
0.0
 10
501.0020883333332
 20
182.6896058333333
 30
0.0
 10
501.0020883333332
 20
184.8368465740741
 30
0.0
 10
501.0020883333332
 20
186.9840873148148
 30
0.0
 10
501.0020883333332
 20
189.1313280555555
 30
0.0
 10
503.3903938888888
 20
190.0732447222223
 30
0.0
 10
505.722255
 20
191.0857169444444
 30
0.0
 10
508.0011994444444
 20
192.1581613888889
 30
0.0
 10
508.0011994444444
 20
189.9568280555555
 30
0.0
 10
508.0011994444444
 20
187.7554947222222
 30
0.0
 10
508.0011994444444
 20
185.5541613888889
 30
0.0
  0
SPLINE
  5
C9
330
1F
100
AcDbEntity
  8
DEFAULT
 62
     1
100
AcDbSpline
210
0.0
220
0.0
230
1.0
 70
    11
 71
     3
 72
    17
 73
    13
 74
     0
 42
0.000000001
 43
0.0000000001
 40
22.33999999999992
 40
22.33999999999992
 40
22.33999999999992
 40
22.33999999999992
 40
23.33999999999992
 40
23.33999999999992
 40
23.33999999999992
 40
43.77999999999986
 40
43.77999999999986
 40
43.77999999999986
 40
44.77999999999986
 40
44.77999999999986
 40
44.77999999999986
 40
67.11999999999978
 40
67.11999999999978
 40
67.11999999999978
 40
67.11999999999978
 10
508.0011994444444
 20
234.2657169444444
 30
0.0
 10
505.7786994444443
 20
232.4983002777778
 30
0.0
 10
503.4468383333333
 20
230.8508280555556
 30
0.0
 10
501.0020883333332
 20
229.3233002777778
 30
0.0
 10
501.0020883333332
 20
231.7268928703704
 30
0.0
 10
501.0020883333332
 20
234.130485462963
 30
0.0
 10
501.0020883333332
 20
236.5340780555555
 30
0.0
 10
503.4680049999999
 20
238.2591613888889
 30
0.0
 10
505.7998661111111
 20
240.1324113888889
 30
0.0
 10
508.0011994444444
 20
242.1467725
 30
0.0
 10
508.0011994444444
 20
239.5197539814815
 30
0.0
 10
508.0011994444444
 20
236.8927354629629
 30
0.0
 10
508.0011994444444
 20
234.2657169444444
 30
0.0
  0
SPLINE
  5
CA
330
1F
100
AcDbEntity
  8
DEFAULT
 62
     1
100
AcDbSpline
210
0.0
220
0.0
230
1.0
 70
    11
 71
     3
 72
    23
 73
    19
 74
     0
 42
0.000000001
 43
0.0000000001
 40
1.0
 40
1.0
 40
1.0
 40
1.0
 40
2.0
 40
2.0
 40
2.0
 40
68.41999999999996
 40
68.41999999999996
 40
68.41999999999996
 40
69.41999999999996
 40
69.41999999999996
 40
69.41999999999996
 40
70.41999999999996
 40
70.41999999999996
 40
70.41999999999996
 40
110.73
 40
110.73
 40
110.73
 40
111.73
 40
111.73
 40
111.73
 40
111.73
 10
506.6288938888889
 20
329.8014669444444
 30
0.0
 10
507.1086716666666
 20
328.6902169444444
 30
0.0
 10
507.5672827777777
 20
327.5895502777778
 30
0.0
 10
508.0011994444444
 20
326.5029947222222
 30
0.0
 10
508.0011994444444
 20
318.6924947222222
 30
0.0
 10
508.0011994444444
 20
310.8819947222222
 30
0.0
 10
508.0011994444444
 20
303.0714947222222
 30
0.0
 10
507.2391994444444
 20
310.5680225
 30
0.0
 10
504.9849494444443
 20
318.4914113888889
 30
0.0
 10
501.1220327777777
 20
327.4202169444444
 30
0.0
 10
501.0832272222221
 20
327.5119391666667
 30
0.0
 10
501.0444216666666
 20
327.6036613888889
 30
0.0
 10
501.0020883333332
 20
327.6953836111111
 30
0.0
 10
501.0020883333332
 20
332.4355410185185
 30
0.0
 10
501.0020883333332
 20
337.1756984259259
 30
0.0
 10
501.0020883333332
 20
341.9158558333334
 30
0.0
 10
502.9705883333333
 20
337.9506336111111
 30
0.0
 10
504.8896994444444
 20
333.8266613888889
 30
0.0
 10
506.6288938888889
 20
329.8014669444444
 30
0.0
  0
ENDSEC
  0
SECTION
  2
OBJECTS
  0
DICTIONARY
  5
C
330
0
100
AcDbDictionary
  3
ACAD_GROUP
350
D
  3
ACAD_LAYOUT
350
1A
  3
ACAD_MATERIAL
350
43
  3
ACAD_MLEADERSTYLE
350
ED
  3
ACAD_MLINESTYLE
350
17
  3
ACAD_PLOTSETTINGS
350
19
  3
ACAD_SCALELIST
350
47
  3
ACAD_VISUALSTYLE
350
2A
  3
ACDBHEADERROUNDTRIPXREC
350
CB
  3
ACDBVARIABLEDICTIONARY
350
EB
  0
DICTIONARY
  5
D
102
{ACAD_REACTORS
330
C
102
}
330
C
100
AcDbDictionary
  0
DICTIONARY
  5
1A
102
{ACAD_REACTORS
330
C
102
}
330
C
100
AcDbDictionary
  0
DICTIONARY
  5
43
102
{ACAD_REACTORS
330
C
102
}
330
C
100
AcDbDictionary
  3
BYBLOCK
350
45
  3
BYLAYER
350
44
  3
GLOBAL
350
46
  0
DICTIONARY
  5
ED
102
{ACAD_REACTORS
330
C
102
}
330
C
100
AcDbDictionary
  0
DICTIONARY
  5
17
102
{ACAD_REACTORS
330
C
102
}
330
C
100
AcDbDictionary
  3
STANDARD
350
18
  0
DICTIONARY
  5
19
102
{ACAD_REACTORS
330
C
102
}
330
C
100
AcDbDictionary
  0
DICTIONARY
  5
47
102
{ACAD_REACTORS
330
C
102
}
330
C
100
AcDbDictionary
  3
A0
350
48
  3
A1
350
49
  3
A2
350
4A
  3
A3
350
4B
  3
A4
350
4C
  3
A5
350
4D
  3
A6
350
4E
  3
A7
350
4F
  3
A8
350
50
  3
A9
350
51
  3
B0
350
52
  3
B1
350
53
  3
B2
350
54
  3
B3
350
55
  3
B4
350
56
  3
B5
350
57
  3
B6
350
58
  3
B7
350
59
  3
B8
350
5A
  3
B9
350
5B
  3
C0
350
5C
  3
C1
350
5D
  3
C2
350
5E
  3
C3
350
5F
  3
C4
350
60
  3
C5
350
61
  3
C6
350
62
  3
C7
350
63
  3
C8
350
64
  3
C9
350
65
  3
D0
350
66
  3
D1
350
67
  3
D2
350
68
  0
DICTIONARY
  5
2A
102
{ACAD_REACTORS
330
C
102
}
330
C
100
AcDbDictionary
  3
2DWIREFRAME
350
2F
  3
BASIC
350
32
  3
BRIGHTEN
350
36
  3
COLORCHANGE
350
3A
  3
CONCEPTUAL
350
34
  3
DIM
350
35
  3
EDGECOLOROFF
350
3D
  3
FACEPATTERN
350
39
  3
FLAT
350
2B
  3
FLATWITHEDGES
350
2C
  3
GOURAUD
350
2D
  3
GOURAUDWITHEDGES
350
2E
  3
HIDDEN
350
31
  3
JITTEROFF
350
3B
  3
LINEPATTERN
350
38
  3
OVERHANGOFF
350
3C
  3
REALISTIC
350
33
  3
SHADED
350
42
  3
SHADED_WITH_EDGES
350
41
  3
SHADES_OF_GRAY
350
3E
  3
SKETCHY
350
3F
  3
THICKEN
350
37
  3
WIREFRAME
350
30
  3
X-RAY
350
40
  0
DICTIONARY
  5
CB
102
{ACAD_REACTORS
330
C
102
}
330
C
100
AcDbDictionary
  3
CEPSNTYPE
350
D4
  3
DIMSTYLEDATA
350
EA
  3
FINGERPRINTGUID
350
D5
  3
HYPERLINKBASE
350
CE
  3
INSUNITS
350
D3
  3
LAYOUTDICT
350
D0
  3
LWETCUNION
350
D2
  3
PLOTSETDICT
350
D1
  3
PSVPSCALE
350
D7
  3
PUCSBASE
350
DA
  3
PUCSORGBACK
350
E0
  3
PUCSORGBOTTOM
350
DC
  3
PUCSORGFRONT
350
DF
  3
PUCSORGLEFT
350
DD
  3
PUCSORGRIGHT
350
DE
  3
PUCSORGTOP
350
DB
  3
PUCSORTHOREF
350
D8
  3
PUCSORTHOVIEW
350
D9
  3
STYLESHEET
350
CF
  3
TSTACKALIGN
350
CC
  3
TSTACKSIZE
350
CD
  3
UCSBASE
350
E3
  3
UCSORGBACK
350
E9
  3
UCSORGBOTTOM
350
E5
  3
UCSORGFRONT
350
E8
  3
UCSORGLEFT
350
E6
  3
UCSORGRIGHT
350
E7
  3
UCSORGTOP
350
E4
  3
UCSORTHOREF
350
E1
  3
UCSORTHOVIEW
350
E2
  3
VERSIONGUID
350
D6
  0
DICTIONARY
  5
EB
102
{ACAD_REACTORS
330
C
102
}
330
C
100
AcDbDictionary
  3
CANNOSCALE
350
F2
  3
DIMASSOC
350
F0
  3
HIDETEXT
350
F1
  3
MSLTSCALE
350
F3
  0
MATERIAL
  5
45
102
{ACAD_REACTORS
330
43
102
}
102
{ACAD_XDICTIONARY
360
F6
102
}
330
43
100
AcDbMaterial
  1
BYBLOCK
  0
MATERIAL
  5
44
102
{ACAD_REACTORS
330
43
102
}
102
{ACAD_XDICTIONARY
360
F4
102
}
330
43
100
AcDbMaterial
  1
BYLAYER
  0
MATERIAL
  5
46
102
{ACAD_REACTORS
330
43
102
}
102
{ACAD_XDICTIONARY
360
F8
102
}
330
43
100
AcDbMaterial
  1
GLOBAL
  0
MLINESTYLE
  5
18
102
{ACAD_REACTORS
330
17
102
}
330
17
100
AcDbMlineStyle
  2
Standard
 70
     0
  3

 62
   256
 51
90.0
 52
90.0
 71
     2
 49
0.5
 62
   256
  6
BYLAYER
 49
-0.5
 62
   256
  6
BYLAYER
  0
ACAD_PROXY_OBJECT
  5
48
102
{ACAD_REACTORS
330
47
102
}
330
47
100
AcDbProxyObject
 90
      499
 91
      503
 93
       41
310
903313A31580
  0
ACAD_PROXY_OBJECT
  5
49
102
{ACAD_REACTORS
330
47
102
}
330
47
100
AcDbProxyObject
 90
      499
 91
      503
 93
      105
310
903313A324000000000000004000
  0
ACAD_PROXY_OBJECT
  5
4A
102
{ACAD_REACTORS
330
47
102
}
330
47
100
AcDbProxyObject
 90
      499
 91
      503
 93
      105
310
903313A344000000000000104000
  0
ACAD_PROXY_OBJECT
  5
4B
102
{ACAD_REACTORS
330
47
102
}
330
47
100
AcDbProxyObject
 90
      499
 91
      503
 93
      105
310
903313A354000000000000144000
  0
ACAD_PROXY_OBJECT
  5
4C
102
{ACAD_REACTORS
330
47
102
}
330
47
100
AcDbProxyObject
 90
      499
 91
      503
 93
      105
310
903313A384000000000000204000
  0
ACAD_PROXY_OBJECT
  5
4D
102
{ACAD_REACTORS
330
47
102
}
330
47
100
AcDbProxyObject
 90
      499
 91
      503
 93
      113
310
904313A31304000000000000244000
  0
ACAD_PROXY_OBJECT
  5
4E
102
{ACAD_REACTORS
330
47
102
}
330
47
100
AcDbProxyObject
 90
      499
 91
      503
 93
      113
310
904313A31364000000000000304000
  0
ACAD_PROXY_OBJECT
  5
4F
102
{ACAD_REACTORS
330
47
102
}
330
47
100
AcDbProxyObject
 90
      499
 91
      503
 93
      113
310
904313A32304000000000000344000
  0
ACAD_PROXY_OBJECT
  5
50
102
{ACAD_REACTORS
330
47
102
}
330
47
100
AcDbProxyObject
 90
      499
 91
      503
 93
      113
310
904313A333040000000000003E4000
  0
ACAD_PROXY_OBJECT
  5
51
102
{ACAD_REACTORS
330
47
102
}
330
47
100
AcDbProxyObject
 90
      499
 91
      503
 93
      113
310
904313A34304000000000000444000
  0
ACAD_PROXY_OBJECT
  5
52
102
{ACAD_REACTORS
330
47
102
}
330
47
100
AcDbProxyObject
 90
      499
 91
      503
 93
      113
310
904313A35304000000000000494000
  0
ACAD_PROXY_OBJECT
  5
53
102
{ACAD_REACTORS
330
47
102
}
330
47
100
AcDbProxyObject
 90
      499
 91
      503
 93
      121
310
905313A3130304000000000000594000
  0
ACAD_PROXY_OBJECT
  5
54
102
{ACAD_REACTORS
330
47
102
}
330
47
100
AcDbProxyObject
 90
      499
 91
      503
 93
      105
310
903323A310000000000000010100
  0
ACAD_PROXY_OBJECT
  5
55
102
{ACAD_REACTORS
330
47
102
}
330
47
100
AcDbProxyObject
 90
      499
 91
      503
 93
      105
310
903343A310000000000000410100
  0
ACAD_PROXY_OBJECT
  5
56
102
{ACAD_REACTORS
330
47
102
}
330
47
100
AcDbProxyObject
 90
      499
 91
      503
 93
      105
310
903383A310000000000000810100
  0
ACAD_PROXY_OBJECT
  5
57
102
{ACAD_REACTORS
330
47
102
}
330
47
100
AcDbProxyObject
 90
      499
 91
      503
 93
      113
310
90431303A310000000000000910100
  0
ACAD_PROXY_OBJECT
  5
58
102
{ACAD_REACTORS
330
47
102
}
330
47
100
AcDbProxyObject
 90
      499
 91
      503
 93
      121
310
9053130303A310000000000001650100
  0
ACAD_PROXY_OBJECT
  5
59
102
{ACAD_REACTORS
330
47
102
}
330
47
100
AcDbProxyObject
 90
      499
 91
      503
 93
      257
310
90E312F31323822203D2031272D3022000000000000200FC000000000000284000
  0
ACAD_PROXY_OBJECT
  5
5A
102
{ACAD_REACTORS
330
47
102
}
330
47
100
AcDbProxyObject
 90
      499
 91
      503
 93
      249
310
90D312F363422203D2031272D3022000000000000240FC000000000000284000
  0
ACAD_PROXY_OBJECT
  5
5B
102
{ACAD_REACTORS
330
47
102
}
330
47
100
AcDbProxyObject
 90
      499
 91
      503
 93
      249
310
90D312F333222203D2031272D3022000000000000280FC000000000000284000
  0
ACAD_PROXY_OBJECT
  5
5C
102
{ACAD_REACTORS
330
47
102
}
330
47
100
AcDbProxyObject
 90
      499
 91
      503
 93
      249
310
90D312F313622203D2031272D30220000000000002C0FC000000000000284000
  0
ACAD_PROXY_OBJECT
  5
5D
102
{ACAD_REACTORS
330
47
102
}
330
47
100
AcDbProxyObject
 90
      499
 91
      503
 93
      249
310
90D332F333222203D2031272D30220000000000002E0FC000000000000284000
  0
ACAD_PROXY_OBJECT
  5
5E
102
{ACAD_REACTORS
330
47
102
}
330
47
100
AcDbProxyObject
 90
      499
 91
      503
 93
      241
310
90C312F3822203D2031272D3022000000000000300FC000000000000284000
  0
ACAD_PROXY_OBJECT
  5
5F
102
{ACAD_REACTORS
330
47
102
}
330
47
100
AcDbProxyObject
 90
      499
 91
      503
 93
      249
310
90D332F313622203D2031272D3022000000000000320FC000000000000284000
  0
ACAD_PROXY_OBJECT
  5
60
102
{ACAD_REACTORS
330
47
102
}
330
47
100
AcDbProxyObject
 90
      499
 91
      503
 93
      241
310
90C312F3422203D2031272D3022000000000000340FC000000000000284000
  0
ACAD_PROXY_OBJECT
  5
61
102
{ACAD_REACTORS
330
47
102
}
330
47
100
AcDbProxyObject
 90
      499
 91
      503
 93
      241
310
90C332F3822203D2031272D3022000000000000360FC000000000000284000
  0
ACAD_PROXY_OBJECT
  5
62
102
{ACAD_REACTORS
330
47
102
}
330
47
100
AcDbProxyObject
 90
      499
 91
      503
 93
      241
310
90C312F3222203D2031272D3022000000000000380FC000000000000284000
  0
ACAD_PROXY_OBJECT
  5
63
102
{ACAD_REACTORS
330
47
102
}
330
47
100
AcDbProxyObject
 90
      499
 91
      503
 93
      241
310
90C332F3422203D2031272D30220000000000003A0FC000000000000284000
  0
ACAD_PROXY_OBJECT
  5
64
102
{ACAD_REACTORS
330
47
102
}
330
47
100
AcDbProxyObject
 90
      499
 91
      503
 93
      161
310
90A3122203D2031272D30224000000000000284000
  0
ACAD_PROXY_OBJECT
  5
65
102
{ACAD_REACTORS
330
47
102
}
330
47
100
AcDbProxyObject
 90
      499
 91
      503
 93
      257
310
90E312D312F3222203D2031272D30220000000000003E0FC000000000000284000
  0
ACAD_PROXY_OBJECT
  5
66
102
{ACAD_REACTORS
330
47
102
}
330
47
100
AcDbProxyObject
 90
      499
 91
      503
 93
      225
310
90A3322203D2031272D302200000000000002100000000000000284000
  0
ACAD_PROXY_OBJECT
  5
67
102
{ACAD_REACTORS
330
47
102
}
330
47
100
AcDbProxyObject
 90
      499
 91
      503
 93
      225
310
90A3622203D2031272D302200000000000006100000000000000284000
  0
ACAD_PROXY_OBJECT
  5
68
102
{ACAD_REACTORS
330
47
102
}
330
47
100
AcDbProxyObject
 90
      499
 91
      503
 93
      249
310
90D31272D3022203D2031272D30220000000000000A100000000000000284000
  0
ACAD_PROXY_OBJECT
  5
2F
102
{ACAD_REACTORS
330
2A
102
}
330
2A
100
AcDbProxyObject
 90
      499
 91
      501
 93
      436
310
42CC9915DA5C99599C985B595049028333333333333E33F0000000000000F90107901411070040501600405405064090741402480A0340
1001
ACAD
1000
AcDbSavedByObjectVersion
1070
     0
  0
ACAD_PROXY_OBJECT
  5
32
102
{ACAD_REACTORS
330
2A
102
}
330
2A
100
AcDbProxyObject
 90
      499
 91
      501
 93
      388
310
4150985CDA58D07406404333333333333E33F0000000000000F90107A41107004050150841D405064090741402480A0350
1001
ACAD
1000
AcDbSavedByObjectVersion
1070
     0
  0
ACAD_PROXY_OBJECT
  5
36
102
{ACAD_REACTORS
330
2A
102
}
330
2A
100
AcDbProxyObject
 90
      499
 91
      501
 93
      428
310
42109C9A59DA1D195B90C409028333333333333E33F0000000000000F9010790141107004050150841D405064090741402480A029950
1001
ACAD
1000
AcDbSavedByObjectVersion
1070
     0
  0
ACAD_PROXY_OBJECT
  5
3A
102
{ACAD_REACTORS
330
2A
102
}
330
2A
100
AcDbProxyObject
 90
      499
 91
      501
 93
      452
310
42D0DBDB1BDC90DA185B99D95104090240C333333333333E33F0000000000000F90108901411070040501508421405064090741402480A0350
1001
ACAD
1000
AcDbSavedByObjectVersion
1070
     0
  0
ACAD_PROXY_OBJECT
  5
34
102
{ACAD_REACTORS
330
2A
102
}
330
2A
100
AcDbProxyObject
 90
      499
 91
      501
 93
      500
310
4290DBDB98D95C1D1D585B10940D028333333333333E33F0000000000000F90107902409070040501000000000018199010841D405064090740C02480A0340
1001
ACAD
1000
AcDbSavedByObjectVersion
1070
     0
  0
ACAD_PROXY_OBJECT
  5
35
102
{ACAD_REACTORS
330
2A
102
}
330
2A
100
AcDbProxyObject
 90
      499
 91
      501
 93
      412
310
40D11A5B50B409028333333333333E33F0000000000000F9010790141107004050150841D405064090741402480A02677FFFFFD0
1001
ACAD
1000
AcDbSavedByObjectVersion
1070
     0
  0
ACAD_PROXY_OBJECT
  5
3D
102
{ACAD_REACTORS
330
2A
102
}
330
2A
100
AcDbProxyObject
 90
      499
 91
      501
 93
      452
310
43115919D950DBDB1BDC93D999916409028333333333333E33F0000000000000F9010790141107004050150841D405064090741402480A0350
1001
ACAD
1000
AcDbSavedByObjectVersion
1070
     0
  0
ACAD_PROXY_OBJECT
  5
39
102
{ACAD_REACTORS
330
2A
102
}
330
2A
100
AcDbProxyObject
 90
      499
 91
      501
 93
      444
310
42D19858D95C185D1D195C9B90F409028333333333333E33F0000000000000F9010790141107004050150841D405064090741402480A0350
1001
ACAD
1000
AcDbSavedByObjectVersion
1070
     0
  0
ACAD_PROXY_OBJECT
  5
2B
102
{ACAD_REACTORS
330
2A
102
}
330
2A
100
AcDbProxyObject
 90
      499
 91
      501
 93
      380
310
41119B185D240901404333333333333E33F0000000000000F9010740A907004050150841D405064090741402480A1B50
1001
ACAD
1000
AcDbSavedByObjectVersion
1070
     0
  0
ACAD_PROXY_OBJECT
  5
2C
102
{ACAD_REACTORS
330
2A
102
}
330
2A
100
AcDbProxyObject
 90
      499
 91
      501
 93
      468
310
43519B185D15DA5D1A115919D95CD0140901404333333333333E33F0000000000000F90107409019070040501600405405064090741402480A1B50
1001
ACAD
1000
AcDbSavedByObjectVersion
1070
     0
  0
ACAD_PROXY_OBJECT
  5
2D
102
{ACAD_REACTORS
330
2A
102
}
330
2A
100
AcDbProxyObject
 90
      499
 91
      501
 93
      404
310
41D1DBDD5C985D5910240902404333333333333E33F0000000000000F9010740A9070040501641D405064090741402480A1B50
1001
ACAD
1000
AcDbSavedByObjectVersion
1070
     0
  0
ACAD_PROXY_OBJECT
  5
2E
102
{ACAD_REACTORS
330
2A
102
}
330
2A
100
AcDbProxyObject
 90
      499
 91
      501
 93
      492
310
4411DBDD5C985D5915DA5D1A115919D95CD0340902404333333333333E33F0000000000000F90107409019070040501600405405064090741402480A1B50
1001
ACAD
1000
AcDbSavedByObjectVersion
1070
     0
  0
ACAD_PROXY_OBJECT
  5
31
102
{ACAD_REACTORS
330
2A
102
}
330
2A
100
AcDbProxyObject
 90
      499
 91
      501
 93
      476
310
41921A5919195B90640502408333333333333E33F0000000000000F901079024090700405020000000000001110200405405064090740C02480A0340
1001
ACAD
1000
AcDbSavedByObjectVersion
1070
     0
  0
ACAD_PROXY_OBJECT
  5
3B
102
{ACAD_REACTORS
330
2A
102
}
330
2A
100
AcDbProxyObject
 90
      499
 91
      501
 93
      428
310
42529A5D1D195C93D999914409028333333333333E33F0000000000000F9010790141107004050150A41D405064090741402480A0350
1001
ACAD
1000
AcDbSavedByObjectVersion
1070
     0
  0
ACAD_PROXY_OBJECT
  5
38
102
{ACAD_REACTORS
330
2A
102
}
330
2A
100
AcDbProxyObject
 90
      499
 91
      501
 93
      444
310
42D31A5B995C185D1D195C9B90E409028333333333333E33F0000000000000F9010790141107004050750841D405064090741402483A0350
1001
ACAD
1000
AcDbSavedByObjectVersion
1070
     0
  0
ACAD_PROXY_OBJECT
  5
3C
102
{ACAD_REACTORS
330
2A
102
}
330
2A
100
AcDbProxyObject
 90
      499
 91
      501
 93
      444
310
42D3DD995C9A185B99D3D999915409028333333333333E33F0000000000000F9010790141107004050150941D405064090741402480A0350
1001
ACAD
1000
AcDbSavedByObjectVersion
1070
     0
  0
ACAD_PROXY_OBJECT
  5
33
102
{ACAD_REACTORS
330
2A
102
}
330
2A
100
AcDbProxyObject
 90
      499
 91
      501
 93
      428
310
425499585B1A5CDD1A58D08409038333333333333E33F0000000000000F9010740A907004050150800405405064090740C02480A1B40
1001
ACAD
1000
AcDbSavedByObjectVersion
1070
     0
  0
ACAD_PROXY_OBJECT
  5
42
102
{ACAD_REACTORS
330
2A
102
}
330
2A
100
AcDbProxyObject
 90
      499
 91
      501
 93
      420
310
4194DA1859195911B40902404333333333333E33F0000000000000F9010740A41107004050150800405405064090840C02480A0B40
1001
ACAD
1000
AcDbSavedByObjectVersion
1070
     0
  0
ACAD_PROXY_OBJECT
  5
41
102
{ACAD_REACTORS
330
2A
102
}
330
2A
100
AcDbProxyObject
 90
      499
 91
      501
 93
      516
310
4454DA18591959081DDA5D1A08195919D95CD1A40902404333333333333E33F0000000000000F901074090142907004050250800405405064090740C02480A0B40
1001
ACAD
1000
AcDbSavedByObjectVersion
1070
     0
  0
ACAD_PROXY_OBJECT
  5
3E
102
{ACAD_REACTORS
330
2A
102
}
330
2A
100
AcDbProxyObject
 90
      499
 91
      501
 93
      532
310
4394DA1859195CC81BD98811DC985E5174090240C333333333333E33F0000000000000F901079024090741D01000000000000111010841D405064090740C02480A0340
1001
ACAD
1000
AcDbSavedByObjectVersion
1070
     0
  0
ACAD_PROXY_OBJECT
  5
3F
102
{ACAD_REACTORS
330
2A
102
}
330
2A
100
AcDbProxyObject
 90
      499
 91
      501
 93
      476
310
41D4DAD95D18DA1E51840502408333333333333E33F0000000000000F901079024090741D01000000000000111010B41D405064090741802480A0340
1001
ACAD
1000
AcDbSavedByObjectVersion
1070
     0
  0
ACAD_PROXY_OBJECT
  5
37
102
{ACAD_REACTORS
330
2A
102
}
330
2A
100
AcDbProxyObject
 90
      499
 91
      501
 93
      412
310
41D51A1A58DAD95B90D409028333333333333E33F0000000000000F9010790141107004050150C41D405064090741402480A0350
1001
ACAD
1000
AcDbSavedByObjectVersion
1070
     0
  0
ACAD_PROXY_OBJECT
  5
30
102
{ACAD_REACTORS
330
2A
102
}
330
2A
100
AcDbProxyObject
 90
      499
 91
      501
 93
      420
310
4255DA5C99599C985B595059028333333333333E33F0000000000000F90107901411070040501600405405064090740C02480A0340
1001
ACAD
1000
AcDbSavedByObjectVersion
1070
     0
  0
ACAD_PROXY_OBJECT
  5
40
102
{ACAD_REACTORS
330
2A
102
}
330
2A
100
AcDbProxyObject
 90
      499
 91
      501
 93
      404
310
41560B54985E51940902404000000000000E03F0000000000000F9010740501907004050150841D405064090740C02480A1B40
1001
ACAD
1000
AcDbSavedByObjectVersion
1070
     0
  0
XRECORD
  5
D4
102
{ACAD_REACTORS
330
CB
102
}
330
CB
100
AcDbXrecord
 90
        0
  0
XRECORD
  5
EA
102
{ACAD_REACTORS
330
CB
102
}
330
CB
100
AcDbXrecord
1000
DSTYLE
1002
{
1070
   279
 70
     2
1070
   340
340
11
1002
}
  0
XRECORD
  5
D5
102
{ACAD_REACTORS
330
CB
102
}
330
CB
100
AcDbXrecord
  1
{36C689C1-1DD6-44E3-9F55-D26DB9862F9A}
  0
XRECORD
  5
CE
102
{ACAD_REACTORS
330
CB
102
}
330
CB
100
AcDbXrecord
  1

  0
XRECORD
  5
D3
102
{ACAD_REACTORS
330
CB
102
}
330
CB
100
AcDbXrecord
 90
        4
  0
XRECORD
  5
D0
102
{ACAD_REACTORS
330
CB
102
}
330
CB
100
AcDbXrecord
340
1A
  0
XRECORD
  5
D2
102
{ACAD_REACTORS
330
CB
102
}
330
CB
100
AcDbXrecord
 90
    10781
  0
XRECORD
  5
D1
102
{ACAD_REACTORS
330
CB
102
}
330
CB
100
AcDbXrecord
340
19
  0
XRECORD
  5
D7
102
{ACAD_REACTORS
330
CB
102
}
330
CB
100
AcDbXrecord
 40
0.0
  0
XRECORD
  5
DA
102
{ACAD_REACTORS
330
CB
102
}
330
CB
100
AcDbXrecord
340
0
  0
XRECORD
  5
E0
102
{ACAD_REACTORS
330
CB
102
}
330
CB
100
AcDbXrecord
 10
0.0
 20
0.0
 30
0.0
  0
XRECORD
  5
DC
102
{ACAD_REACTORS
330
CB
102
}
330
CB
100
AcDbXrecord
 10
0.0
 20
0.0
 30
0.0
  0
XRECORD
  5
DF
102
{ACAD_REACTORS
330
CB
102
}
330
CB
100
AcDbXrecord
 10
0.0
 20
0.0
 30
0.0
  0
XRECORD
  5
DD
102
{ACAD_REACTORS
330
CB
102
}
330
CB
100
AcDbXrecord
 10
0.0
 20
0.0
 30
0.0
  0
XRECORD
  5
DE
102
{ACAD_REACTORS
330
CB
102
}
330
CB
100
AcDbXrecord
 10
0.0
 20
0.0
 30
0.0
  0
XRECORD
  5
DB
102
{ACAD_REACTORS
330
CB
102
}
330
CB
100
AcDbXrecord
 10
0.0
 20
0.0
 30
0.0
  0
XRECORD
  5
D8
102
{ACAD_REACTORS
330
CB
102
}
330
CB
100
AcDbXrecord
340
0
  0
XRECORD
  5
D9
102
{ACAD_REACTORS
330
CB
102
}
330
CB
100
AcDbXrecord
 70
     0
  0
XRECORD
  5
CF
102
{ACAD_REACTORS
330
CB
102
}
330
CB
100
AcDbXrecord
  1

  0
XRECORD
  5
CC
102
{ACAD_REACTORS
330
CB
102
}
330
CB
100
AcDbXrecord
 90
        1
  0
XRECORD
  5
CD
102
{ACAD_REACTORS
330
CB
102
}
330
CB
100
AcDbXrecord
 90
       70
  0
XRECORD
  5
E3
102
{ACAD_REACTORS
330
CB
102
}
330
CB
100
AcDbXrecord
340
0
  0
XRECORD
  5
E9
102
{ACAD_REACTORS
330
CB
102
}
330
CB
100
AcDbXrecord
 10
0.0
 20
0.0
 30
0.0
  0
XRECORD
  5
E5
102
{ACAD_REACTORS
330
CB
102
}
330
CB
100
AcDbXrecord
 10
0.0
 20
0.0
 30
0.0
  0
XRECORD
  5
E8
102
{ACAD_REACTORS
330
CB
102
}
330
CB
100
AcDbXrecord
 10
0.0
 20
0.0
 30
0.0
  0
XRECORD
  5
E6
102
{ACAD_REACTORS
330
CB
102
}
330
CB
100
AcDbXrecord
 10
0.0
 20
0.0
 30
0.0
  0
XRECORD
  5
E7
102
{ACAD_REACTORS
330
CB
102
}
330
CB
100
AcDbXrecord
 10
0.0
 20
0.0
 30
0.0
  0
XRECORD
  5
E4
102
{ACAD_REACTORS
330
CB
102
}
330
CB
100
AcDbXrecord
 10
0.0
 20
0.0
 30
0.0
  0
XRECORD
  5
E1
102
{ACAD_REACTORS
330
CB
102
}
330
CB
100
AcDbXrecord
340
0
  0
XRECORD
  5
E2
102
{ACAD_REACTORS
330
CB
102
}
330
CB
100
AcDbXrecord
 70
     0
  0
XRECORD
  5
D6
102
{ACAD_REACTORS
330
CB
102
}
330
CB
100
AcDbXrecord
  1
{FAEB1C32-E019-11D5-929B-00C0DF256EC4}
  0
DICTIONARYVAR
  5
F2
102
{ACAD_REACTORS
330
EB
102
}
330
EB
100
DictionaryVariables
280
     0
  1
1:1
  0
DICTIONARYVAR
  5
F0
102
{ACAD_REACTORS
330
EB
102
}
330
EB
100
DictionaryVariables
280
     0
  1
2
  0
DICTIONARYVAR
  5
F1
102
{ACAD_REACTORS
330
EB
102
}
330
EB
100
DictionaryVariables
280
     0
  1
1
  0
DICTIONARYVAR
  5
F3
102
{ACAD_REACTORS
330
EB
102
}
330
EB
100
DictionaryVariables
280
     0
  1
1
  0
DICTIONARY
  5
F6
330
45
100
AcDbDictionary
280
     1
  3
ACAD_XREC_ROUNDTRIP
360
F7
  0
DICTIONARY
  5
F4
330
44
100
AcDbDictionary
280
     1
  3
ACAD_XREC_ROUNDTRIP
360
F5
  0
DICTIONARY
  5
F8
330
46
100
AcDbDictionary
280
     1
  3
ACAD_XREC_ROUNDTRIP
360
F9
  0
XRECORD
  5
F7
102
{ACAD_REACTORS
330
F6
102
}
330
F6
100
AcDbXrecord
102
MATERIAL
148
0.0
149
0.0
149
0.0
 93
        0
 94
      127
282
     0
 72
     1
 77
     1
171
     1
175
     1
179
     1
273
     0
  0
XRECORD
  5
F5
102
{ACAD_REACTORS
330
F4
102
}
330
F4
100
AcDbXrecord
102
MATERIAL
148
0.0
149
0.0
149
0.0
 93
        0
 94
      127
282
     0
 72
     1
 77
     1
171
     1
175
     1
179
     1
273
     0
  0
XRECORD
  5
F9
102
{ACAD_REACTORS
330
F8
102
}
330
F8
100
AcDbXrecord
102
MATERIAL
148
0.0
149
0.0
149
0.0
 93
        0
 94
      127
282
     0
 72
     1
 77
     1
171
     1
175
     1
179
     1
273
     0
  0
ENDSEC
  0
EOF
